<?xml version="1.0" standalone="no"?>
<!DOCTYPE svg PUBLIC "-//W3C//DTD SVG 20010904//EN"
 "http://www.w3.org/TR/2001/REC-SVG-20010904/DTD/svg10.dtd">
<svg version="1.0" xmlns="http://www.w3.org/2000/svg"
 width="1200.000000pt" height="1200.000000pt" viewBox="0 0 1200.000000 1200.000000"
 preserveAspectRatio="xMidYMid meet">
<metadata>
Created by potrace 1.15, written by Peter Selinger 2001-2017
</metadata>
<g transform="translate(0.000000,1200.000000) scale(0.100000,-0.100000)"
fill="#000000" stroke="none">
<path d="M9106 10579 c-713 -337 -1735 -661 -2541 -804 -960 -170 -2198 -199
-3260 -75 -146 17 -591 89 -665 107 -18 5 17 -38 124 -153 82 -87 178 -196
215 -242 364 -456 727 -1118 1082 -1975 556 -1339 914 -2838 1036 -4334 11
-146 20 -213 29 -213 6 0 14 22 17 52 37 336 43 393 52 553 3 55 8 123 11 150
13 139 16 804 5 1055 -7 151 -14 291 -16 310 -2 19 -7 78 -10 130 -14 214 -50
545 -91 828 -137 951 -380 1837 -740 2698 -4 8 77 13 268 18 1618 41 3009 313
4047 790 79 37 145 65 147 63 19 -19 252 -720 349 -1052 377 -1283 622 -2657
721 -4043 13 -185 13 -226 2 -239 -11 -14 -11 -15 2 -11 18 6 22 73 41 628 16
485 16 1723 0 2145 -68 1827 -259 2956 -602 3565 -76 135 -52 130 -223 49z"/>
<path d="M8360 9057 c-36 -12 -66 -22 -67 -22 -2 -1 8 -34 22 -74 l25 -73 -51
-46 c-62 -55 -90 -108 -96 -182 -8 -80 18 -151 73 -206 52 -52 131 -79 277
-93 148 -15 212 -57 212 -141 0 -83 -84 -140 -214 -148 -42 -2 -93 0 -113 6
l-37 10 -3 -79 c-2 -63 0 -80 12 -85 30 -12 156 -16 197 -6 l42 10 22 -67 c12
-36 24 -69 28 -73 4 -4 36 2 73 13 l66 19 -25 76 -25 76 50 44 c71 62 102 129
102 219 0 60 -5 82 -31 134 -52 104 -123 141 -317 165 -134 17 -158 24 -189
58 -35 37 -39 77 -11 117 39 58 87 76 206 76 l102 0 0 77 0 76 -50 7 c-28 4
-77 4 -109 0 l-59 -7 -21 71 c-12 39 -23 71 -24 70 -1 0 -31 -10 -67 -22z"/>
<path d="M5155 8467 c-38 -11 -71 -21 -73 -23 -2 -1 9 -43 25 -94 l27 -93 -24
-16 c-155 -101 -213 -275 -141 -427 54 -115 141 -163 351 -194 163 -23 206
-37 251 -80 92 -87 47 -227 -87 -274 -73 -26 -177 -31 -254 -13 -36 9 -66 15
-67 14 0 -1 -3 -42 -5 -92 l-3 -90 50 -13 c33 -9 86 -12 156 -8 l107 4 22 -81
c13 -45 26 -85 29 -89 5 -5 142 27 158 37 2 1 -8 39 -22 86 -13 46 -25 91 -25
99 1 8 19 26 41 40 173 106 210 367 73 519 -61 68 -143 106 -270 126 -181 29
-218 37 -256 56 -72 37 -98 118 -56 179 58 85 185 122 335 96 42 -8 42 -7 47
26 3 18 7 57 9 86 4 50 3 54 -22 64 -29 12 -185 15 -218 4 -16 -5 -23 -2 -27
11 -37 131 -48 163 -54 162 -4 -1 -38 -10 -77 -22z"/>
<path d="M3090 8373 c-1143 -360 -1709 -546 -2075 -684 -281 -105 -276 -102
-273 -111 2 -4 107 -102 233 -219 1159 -1067 2182 -2127 2821 -2924 347 -432
642 -889 729 -1130 34 -93 33 -68 -1 51 -250 870 -754 1850 -1389 2704 -307
413 -617 771 -1007 1164 -120 121 -216 220 -215 221 5 3 615 436 991 704 225
160 405 291 400 290 -5 0 -101 -30 -214 -66z"/>
<path d="M2883 7771 c-95 -33 -197 -121 -233 -204 -21 -47 -41 -154 -35 -189
2 -13 6 -42 9 -65 3 -23 15 -62 25 -86 l20 -46 -35 -26 c-39 -30 -40 -32 -14
-65 l19 -25 25 24 c29 27 47 23 72 -14 18 -28 19 -27 -39 -66 -9 -7 21 -58 35
-59 3 0 20 12 37 26 l31 26 41 -37 c23 -21 71 -51 108 -69 59 -28 76 -31 156
-31 80 0 97 3 157 32 82 39 145 96 183 164 l28 53 -34 28 c-18 15 -36 28 -40
28 -4 0 -12 -13 -19 -30 -7 -16 -34 -52 -61 -79 -91 -92 -206 -113 -315 -58
-45 23 -103 73 -93 80 2 2 69 52 149 112 80 59 149 112 154 116 10 9 -19 59
-33 59 -5 0 -80 -55 -167 -121 l-158 -121 -23 26 c-13 15 -23 31 -23 36 0 5
64 58 142 117 77 60 149 115 160 123 18 15 18 16 -4 43 l-23 27 -150 -115
c-82 -63 -155 -115 -162 -115 -18 0 -43 88 -43 155 0 114 84 225 195 257 22 6
43 14 47 18 8 6 -21 90 -31 90 -3 -1 -29 -9 -58 -19z"/>
<path d="M6605 7001 c-280 -119 -529 -335 -685 -597 -29 -49 -54 -90 -55 -92
-1 -1 -64 11 -139 27 l-138 29 7 -26 c3 -15 51 -166 107 -337 l100 -310 27 31
c14 17 117 132 228 255 111 123 203 228 203 234 1 5 -56 22 -125 36 -69 15
-129 30 -132 33 -4 3 14 48 40 99 125 253 352 486 602 619 90 48 74 48 -40 -1z"/>
<path d="M7136 6779 c-38 -5 -72 -11 -74 -14 -5 -5 16 -207 24 -237 4 -13 -13
-26 -73 -57 -111 -55 -174 -116 -220 -209 -37 -74 -38 -79 -38 -186 0 -100 3
-117 27 -168 15 -32 39 -73 53 -92 60 -79 222 -161 416 -211 85 -22 196 -75
237 -114 68 -64 91 -174 53 -249 -27 -54 -68 -91 -131 -121 -107 -50 -326 -39
-453 23 -33 16 -50 20 -52 12 -3 -6 -15 -58 -29 -115 l-24 -103 53 -23 c73
-33 189 -55 285 -55 44 0 80 -1 80 -3 0 -15 32 -252 34 -254 8 -8 206 22 206
31 0 6 -7 66 -16 134 -9 68 -14 125 -12 126 1 1 33 17 71 35 78 37 176 124
214 188 39 68 63 156 63 236 0 137 -46 243 -142 333 -73 67 -160 109 -353 169
-82 26 -167 56 -187 66 -144 73 -177 222 -71 320 44 41 87 59 173 71 90 13
177 3 277 -32 32 -11 60 -17 64 -12 3 4 18 53 32 110 l25 103 -27 11 c-76 30
-126 40 -222 45 l-106 6 -12 106 c-7 58 -15 114 -17 124 -6 19 -19 20 -128 6z"/>
<path d="M821 6246 l-613 -520 128 -64 c239 -119 787 -404 1049 -545 1266
-682 2077 -1227 2264 -1522 88 -140 -30 129 -133 303 -148 246 -306 443 -570
708 -453 453 -1018 852 -1738 1228 -93 48 -168 90 -168 93 0 2 90 192 200 420
110 229 199 417 198 418 -2 1 -279 -233 -617 -519z"/>
<path d="M10305 6621 c17 -5 84 -21 150 -36 223 -51 463 -141 618 -232 467
-274 547 -655 235 -1125 -71 -107 -270 -312 -418 -429 -703 -560 -2034 -1206
-3480 -1689 -1648 -550 -3251 -828 -4373 -759 -349 21 -736 83 -976 155 -466
141 -691 344 -691 623 0 173 80 355 248 566 110 138 341 362 495 478 27 21 45
37 40 37 -18 0 -331 -185 -456 -269 -182 -123 -282 -205 -417 -341 -135 -134
-203 -222 -264 -340 -70 -134 -91 -215 -90 -345 0 -91 5 -124 27 -190 47 -142
141 -273 290 -403 354 -310 883 -472 1732 -531 184 -13 804 -10 1045 5 2202
133 4753 895 6305 1882 892 567 1414 1173 1547 1796 29 137 32 399 5 496 -57
210 -200 371 -422 479 -159 77 -316 122 -550 157 -110 17 -652 30 -600 15z"/>
<path d="M1443 6378 c-65 -69 -92 -157 -73 -237 17 -70 66 -123 156 -167 40
-20 74 -40 74 -44 0 -4 -11 -27 -25 -52 l-25 -44 35 -17 34 -16 31 54 31 55
48 -24 c85 -44 151 -144 151 -231 0 -13 10 -26 24 -33 29 -13 10 -39 170 235
58 100 106 186 106 190 0 16 -71 48 -78 36 -4 -6 -43 -74 -87 -152 -44 -77
-83 -140 -87 -141 -4 0 -17 22 -28 49 -24 54 -64 96 -127 133 l-42 24 41 69
41 68 -23 19 c-12 10 -28 18 -34 18 -7 0 -31 -34 -54 -75 l-43 -74 -57 25
c-72 31 -101 52 -129 94 -39 57 -24 119 45 192 l26 28 -24 25 c-31 32 -40 32
-77 -7z"/>
<path d="M8452 5432 c-186 -206 -229 -258 -215 -263 10 -3 68 -17 128 -29 61
-13 114 -26 119 -30 11 -11 -50 -135 -114 -235 -130 -199 -271 -333 -492 -467
-92 -55 -74 -55 47 1 95 45 198 107 280 170 138 105 298 289 381 437 20 35 41
64 47 64 7 0 67 -12 135 -27 67 -14 125 -24 128 -21 5 6 -198 643 -208 653 -2
2 -108 -111 -236 -253z"/>
</g>
</svg>
