<svg id="svg" version="1.1" width="400" height="400" viewBox="0 0 400 400" xmlns="http://www.w3.org/2000/svg" xmlns:xlink="http://www.w3.org/1999/xlink" ><g id="svgg"><path id="path0" d="M166.100 48.276 C 166.485 48.376,167.115 48.376,167.500 48.276 C 167.885 48.175,167.570 48.093,166.800 48.093 C 166.030 48.093,165.715 48.175,166.100 48.276 M224.305 48.283 C 224.802 48.379,225.522 48.375,225.905 48.275 C 226.287 48.175,225.880 48.096,225.000 48.101 C 224.120 48.105,223.807 48.187,224.305 48.283 M191.921 49.099 C 194.188 49.170,197.788 49.170,199.921 49.098 C 202.055 49.026,200.200 48.968,195.800 48.968 C 191.400 48.968,189.655 49.027,191.921 49.099 M355.200 68.496 C 353.770 68.942,352.536 69.362,352.459 69.428 C 352.381 69.495,352.811 71.030,353.413 72.840 L 354.509 76.130 353.355 76.952 C 349.866 79.434,348.335 82.009,348.091 85.800 C 347.611 93.273,351.744 97.449,360.600 98.440 C 369.024 99.382,370.637 100.020,372.073 102.975 C 374.725 108.435,366.139 113.534,358.151 111.243 L 356.908 110.887 356.639 114.109 C 356.290 118.292,356.162 118.201,362.414 118.194 L 367.587 118.188 368.663 121.194 C 369.255 122.847,369.759 124.237,369.784 124.281 C 369.834 124.371,375.326 122.408,375.493 122.240 C 375.551 122.182,375.149 120.813,374.599 119.197 C 373.341 115.498,373.327 115.610,375.203 114.313 C 378.847 111.793,380.998 106.461,380.099 102.176 C 378.620 95.128,374.995 92.524,365.061 91.372 C 357.849 90.536,355.440 89.141,355.440 85.800 C 355.440 82.240,359.012 80.200,365.248 80.200 L 369.496 80.200 369.568 76.940 L 369.639 73.680 367.607 73.401 C 366.489 73.247,364.356 73.244,362.868 73.393 L 360.161 73.665 359.210 70.633 C 358.687 68.965,358.156 67.619,358.030 67.642 C 357.903 67.665,356.630 68.050,355.200 68.496 M196.905 89.887 C 197.514 89.979,198.414 89.977,198.905 89.882 C 199.397 89.787,198.900 89.711,197.800 89.714 C 196.700 89.717,196.297 89.795,196.905 89.887 M212.228 92.168 C 208.444 93.202,208.512 93.067,209.781 97.041 C 211.081 101.112,211.064 101.372,209.424 102.385 C 204.100 105.675,201.404 112.294,202.942 118.297 C 204.670 125.043,209.006 127.849,220.085 129.394 C 228.954 130.631,231.388 132.060,232.214 136.517 C 233.396 142.890,222.594 148.149,214.273 145.252 C 212.333 144.576,212.430 144.411,212.137 148.876 C 211.828 153.585,211.449 153.353,219.578 153.433 L 225.756 153.494 226.743 157.247 C 227.286 159.311,227.755 161.038,227.784 161.085 C 227.813 161.132,228.729 160.902,229.819 160.574 C 230.908 160.246,232.490 159.792,233.333 159.564 C 234.536 159.240,234.810 159.005,234.603 158.476 C 234.458 158.104,233.915 156.222,233.397 154.293 L 232.454 150.785 234.570 149.222 C 241.085 144.410,243.163 137.089,239.923 130.369 C 236.950 124.203,232.978 122.005,222.280 120.602 C 214.234 119.547,211.200 117.628,211.200 113.594 C 211.200 108.513,220.044 104.748,227.176 106.793 C 228.930 107.296,228.822 107.507,229.087 103.059 L 229.315 99.244 228.157 98.922 C 227.521 98.745,224.919 98.616,222.377 98.636 L 217.753 98.671 216.577 94.986 L 215.400 91.302 212.228 92.168 M131.000 102.231 C 128.580 102.999,124.350 104.322,121.600 105.173 C 84.165 116.754,39.443 131.710,27.600 136.608 C 23.154 138.447,23.284 138.196,25.669 140.323 C 26.825 141.356,28.056 142.470,28.403 142.800 C 28.750 143.130,31.006 145.199,33.417 147.397 C 37.625 151.235,38.988 152.505,47.000 160.047 C 62.156 174.314,68.041 180.036,86.032 197.995 C 114.155 226.068,138.825 252.761,152.806 270.243 C 153.353 270.926,155.517 273.626,157.615 276.243 C 172.863 295.257,184.641 313.415,189.241 325.000 C 191.035 329.517,190.580 327.585,187.641 318.200 C 180.557 295.579,172.426 276.868,158.700 251.600 C 156.838 248.172,149.193 235.347,146.897 231.800 C 136.722 216.079,129.078 205.324,119.465 193.200 C 115.852 188.642,108.425 179.806,104.816 175.770 C 103.817 174.653,101.832 172.403,100.404 170.770 C 96.441 166.235,90.222 159.758,82.053 151.658 C 76.498 146.149,74.793 144.235,75.225 143.991 C 75.541 143.812,77.870 142.181,80.400 140.366 C 82.930 138.552,85.990 136.381,87.200 135.544 C 88.410 134.706,91.020 132.855,93.000 131.431 C 94.980 130.007,98.194 127.707,100.143 126.321 C 102.091 124.934,104.820 122.990,106.206 122.000 C 107.592 121.010,110.678 118.818,113.063 117.128 C 117.897 113.703,119.200 112.776,127.800 106.641 C 134.736 101.693,135.875 100.846,135.600 100.841 C 135.490 100.838,133.420 101.464,131.000 102.231 M281.596 163.121 C 268.153 168.691,256.251 179.201,249.233 191.700 C 248.522 192.965,247.851 194.000,247.742 194.000 C 247.632 194.000,245.018 193.447,241.933 192.771 C 238.848 192.096,236.229 191.638,236.112 191.754 C 235.897 191.969,240.874 207.687,245.055 220.000 C 245.211 220.460,245.499 220.320,246.290 219.400 C 248.194 217.184,252.954 211.893,259.321 204.917 C 263.086 200.791,265.431 197.923,265.121 197.824 C 263.948 197.448,255.702 195.600,255.172 195.594 C 253.456 195.575,253.512 194.961,255.615 190.757 C 261.241 179.513,271.461 168.962,281.892 163.629 C 285.484 161.792,285.351 161.565,281.596 163.121 M305.200 173.243 C 303.770 173.437,302.055 173.687,301.388 173.799 L 300.176 174.003 300.816 179.625 L 301.457 185.246 298.628 186.635 C 290.192 190.780,286.490 196.611,286.892 205.122 C 287.353 214.894,292.755 220.122,306.431 224.030 C 316.127 226.801,320.276 229.516,321.740 234.048 C 325.123 244.522,310.562 251.114,296.678 245.393 C 295.315 244.831,294.032 244.333,293.828 244.286 C 293.448 244.198,291.630 251.444,291.611 253.122 C 291.589 254.988,297.286 256.726,304.800 257.144 L 309.400 257.400 309.862 260.800 C 310.116 262.670,310.440 265.201,310.581 266.424 L 310.839 268.648 315.319 268.084 C 317.784 267.774,319.826 267.493,319.859 267.460 C 319.891 267.427,319.583 265.060,319.174 262.200 C 318.191 255.329,318.123 255.814,320.174 255.031 C 330.357 251.142,335.833 240.893,333.209 230.634 C 331.133 222.517,326.024 218.148,314.400 214.549 C 306.337 212.053,305.052 211.553,302.519 209.925 C 296.782 206.238,296.874 198.615,302.693 195.521 C 307.564 192.930,315.221 192.894,321.563 195.432 C 323.600 196.247,323.265 196.705,324.709 191.127 L 325.918 186.454 324.312 185.811 C 321.423 184.656,317.863 184.012,314.324 184.006 C 310.149 183.999,310.441 184.371,309.624 178.039 C 308.895 172.384,309.189 172.702,305.200 173.243 M54.182 191.300 C 48.568 197.747,50.258 204.882,58.305 208.711 C 61.888 210.416,61.791 210.234,60.346 212.557 C 59.687 213.615,59.205 214.530,59.274 214.590 C 59.343 214.649,59.986 214.996,60.702 215.360 L 62.003 216.022 63.202 214.133 C 63.861 213.094,64.400 212.099,64.400 211.922 C 64.400 210.800,69.280 213.349,70.923 215.329 C 72.052 216.690,73.077 219.248,73.382 221.470 C 73.749 224.137,75.187 225.046,76.263 223.290 C 77.882 220.649,78.262 220.005,80.212 216.600 C 81.347 214.620,83.203 211.411,84.337 209.468 C 85.472 207.526,86.400 205.709,86.400 205.431 C 86.400 204.922,83.757 203.278,83.486 203.618 C 83.281 203.873,79.691 209.991,77.571 213.695 C 75.523 217.274,75.395 217.343,74.752 215.197 C 74.101 213.024,71.936 210.596,69.345 209.134 C 66.779 207.686,66.795 207.822,68.800 204.447 C 69.680 202.965,70.400 201.634,70.400 201.487 C 70.400 201.242,68.276 200.000,67.858 200.000 C 67.758 200.000,66.832 201.440,65.800 203.200 C 63.620 206.918,63.987 206.800,60.291 204.973 C 53.926 201.828,52.940 197.521,57.534 192.928 L 58.699 191.763 57.769 190.681 C 56.504 189.212,55.912 189.314,54.182 191.300 M362.138 231.257 C 357.112 236.789,352.590 241.819,352.088 242.435 L 351.177 243.556 352.488 243.913 C 353.210 244.110,355.825 244.704,358.300 245.235 C 360.774 245.766,362.794 246.380,362.788 246.600 C 362.768 247.346,360.608 251.822,358.822 254.818 C 353.068 264.467,343.744 273.340,334.500 277.962 C 329.460 280.481,332.511 279.636,338.536 276.843 C 349.956 271.549,365.612 256.553,368.186 248.443 C 368.528 247.368,368.741 247.379,375.172 248.802 C 381.568 250.217,381.115 250.486,379.645 246.144 C 377.169 238.827,371.997 222.582,371.999 222.124 C 372.003 220.671,370.447 222.113,362.138 231.257 M113.200 261.725 C 113.200 261.794,113.785 262.379,114.500 263.025 L 115.800 264.200 114.625 262.900 C 113.530 261.688,113.200 261.416,113.200 261.725 M219.320 271.200 C 219.320 272.410,219.395 272.905,219.487 272.300 C 219.578 271.695,219.578 270.705,219.487 270.100 C 219.395 269.495,219.320 269.990,219.320 271.200 M83.000 287.062 C 28.046 315.932,16.484 350.151,53.519 374.310 C 85.538 395.197,163.325 397.899,247.400 381.045 C 301.746 370.150,351.434 354.657,393.891 335.367 L 399.982 332.600 399.991 316.500 C 399.996 307.645,399.920 300.400,399.823 300.400 C 399.725 300.400,396.757 301.750,393.226 303.400 C 389.696 305.050,386.728 306.400,386.633 306.400 C 386.537 306.400,385.070 307.041,383.372 307.825 C 381.675 308.609,378.741 309.891,376.852 310.672 C 374.964 311.454,372.474 312.526,371.320 313.054 C 369.014 314.108,363.982 316.130,355.400 319.451 C 352.320 320.643,349.440 321.793,349.000 322.007 C 347.845 322.570,335.948 326.937,329.400 329.203 C 326.320 330.268,322.810 331.496,321.600 331.931 C 304.235 338.174,271.378 347.723,251.200 352.391 C 246.470 353.485,242.060 354.559,241.400 354.778 C 238.687 355.676,211.522 360.855,202.600 362.175 C 197.320 362.956,191.920 363.775,190.600 363.995 C 163.364 368.519,120.535 368.610,97.800 364.192 C 73.064 359.386,59.418 352.882,53.717 343.183 C 48.962 335.093,51.154 322.626,59.199 312.000 C 59.782 311.230,61.028 309.571,61.968 308.313 C 65.759 303.240,76.871 292.459,83.213 287.700 C 85.061 286.313,84.967 286.029,83.000 287.062 M219.320 298.400 C 219.320 299.610,219.395 300.105,219.487 299.500 C 219.578 298.895,219.578 297.905,219.487 297.300 C 219.395 296.695,219.320 297.190,219.320 298.400 " stroke="none" fill="#ab4444" fill-rule="evenodd"></path><path id="path1" d="M394.600 4.889 C 358.591 24.098,292.997 42.437,244.800 46.771 C 196.321 51.129,149.082 49.203,108.405 41.209 C 105.546 40.647,105.045 39.943,114.802 50.200 C 150.326 87.545,189.530 181.407,205.362 267.022 C 209.618 290.036,212.548 311.643,214.202 332.200 C 215.382 346.858,215.477 346.911,217.035 333.800 C 217.139 332.920,217.316 331.480,217.427 330.600 C 221.571 297.866,219.181 234.662,212.412 198.000 C 211.986 195.690,211.069 190.650,210.374 186.800 C 205.045 157.255,195.139 123.622,183.229 94.634 C 182.333 92.452,181.600 90.517,181.600 90.334 C 181.600 90.150,183.895 89.999,186.700 89.998 C 200.760 89.991,232.577 88.200,243.600 86.795 C 245.250 86.584,250.560 85.948,255.400 85.381 C 270.581 83.603,292.531 79.901,303.625 77.248 C 306.361 76.594,310.310 75.667,312.400 75.190 C 331.232 70.883,366.103 58.632,374.800 53.267 C 376.748 52.065,376.992 52.146,377.919 54.301 C 379.258 57.412,388.101 83.984,390.000 90.600 C 390.189 91.260,391.063 94.140,391.942 97.000 C 393.438 101.867,397.397 116.038,399.150 122.800 L 399.927 125.800 399.964 67.914 L 400.000 10.028 398.170 7.014 C 397.164 5.356,396.309 4.008,396.270 4.018 C 396.232 4.027,395.480 4.419,394.600 4.889 M117.765 129.930 C 108.408 133.164,103.513 143.085,106.778 152.200 C 107.250 153.520,107.736 154.902,107.858 155.271 C 108.010 155.734,107.634 156.229,106.644 156.871 C 105.007 157.931,104.931 158.228,105.956 159.561 L 106.695 160.521 108.112 159.440 L 109.528 158.360 110.564 159.718 C 111.857 161.412,111.856 161.437,110.403 162.659 C 108.231 164.486,110.222 166.424,112.467 164.667 L 113.757 163.657 115.617 165.214 C 124.273 172.462,137.875 170.015,142.186 160.435 L 142.972 158.689 141.601 157.544 C 139.899 156.123,139.918 156.122,139.221 157.700 C 137.126 162.445,130.009 166.098,125.322 164.834 C 123.581 164.364,118.744 161.331,118.508 160.561 C 118.400 160.207,122.435 156.986,131.553 150.148 C 132.085 149.750,132.073 149.571,131.448 148.617 C 130.538 147.228,130.709 147.141,123.585 152.598 C 115.486 158.802,116.188 158.442,115.009 157.000 C 113.687 155.381,113.746 155.028,115.553 153.722 C 116.407 153.105,119.558 150.739,122.555 148.464 L 128.004 144.328 127.171 143.159 L 126.338 141.990 125.069 142.887 C 124.371 143.380,121.389 145.633,118.442 147.892 C 112.217 152.665,112.287 152.645,111.341 149.900 C 109.734 145.239,110.696 140.331,113.853 137.081 C 115.288 135.604,119.705 133.200,120.984 133.200 C 121.494 133.200,121.588 132.986,121.376 132.300 C 121.084 131.353,120.043 129.191,119.890 129.213 C 119.840 129.220,118.884 129.543,117.765 129.930 M49.139 178.288 C 44.716 182.075,24.700 199.036,17.615 205.000 C 4.075 216.399,0.763 219.320,1.065 219.596 C 1.249 219.765,7.340 222.890,14.600 226.541 C 38.175 238.396,69.699 255.350,85.000 264.404 C 122.838 286.792,142.879 301.282,150.436 311.713 C 152.176 314.116,151.853 312.872,149.390 307.691 C 144.986 298.426,138.927 289.490,129.530 278.400 C 111.183 256.749,79.696 233.343,44.175 214.950 C 35.599 210.509,36.046 211.465,39.359 204.658 C 51.172 180.383,53.661 175.128,53.446 174.913 C 53.354 174.820,51.415 176.339,49.139 178.288 " stroke="none" fill="#050505" fill-rule="evenodd"></path><path id="path2" d="M0.000 200.000 L 0.000 400.000 200.000 400.000 L 400.000 400.000 400.000 366.600 C 400.000 347.780,399.847 333.200,399.650 333.200 C 399.457 333.200,397.522 334.030,395.350 335.044 C 387.036 338.925,374.021 344.339,359.400 350.001 C 329.974 361.395,284.262 374.200,248.000 381.206 C 233.536 384.001,232.653 384.152,219.000 386.181 C 200.010 389.004,191.215 389.986,172.400 391.386 C 116.336 395.558,71.726 388.487,49.505 371.904 C 18.707 348.920,27.777 319.468,74.200 291.717 C 82.288 286.882,89.657 283.384,85.592 286.309 C 66.780 299.845,52.407 318.733,51.343 331.316 C 50.113 345.866,65.156 357.526,91.944 362.787 C 123.634 369.009,162.987 368.671,203.600 361.826 C 212.654 360.300,227.763 357.491,230.800 356.769 C 232.670 356.325,237.080 355.349,240.600 354.602 C 277.888 346.684,330.193 329.955,370.400 313.087 C 381.180 308.564,386.167 306.407,387.254 305.799 C 387.834 305.474,389.781 304.579,391.581 303.808 C 393.381 303.038,396.011 301.831,397.427 301.127 L 400.000 299.846 400.000 213.788 L 400.000 127.729 397.633 118.765 C 393.741 104.027,390.004 91.550,383.447 71.400 C 381.105 64.203,377.515 54.034,377.053 53.286 C 376.869 52.988,375.221 53.576,372.089 55.057 C 342.893 68.861,309.178 78.031,262.000 85.002 C 254.734 86.076,239.525 87.619,230.400 88.209 C 228.310 88.344,225.250 88.613,223.600 88.806 C 221.950 88.999,218.620 89.263,216.200 89.393 C 213.780 89.522,208.560 89.798,204.600 90.006 C 200.640 90.214,193.916 90.388,189.657 90.392 C 183.621 90.398,181.960 90.510,182.122 90.900 C 182.236 91.175,183.261 93.740,184.400 96.600 C 185.538 99.460,186.713 102.345,187.011 103.010 C 190.963 111.847,199.329 138.118,203.991 156.328 C 209.016 175.955,211.242 187.387,215.217 214.000 C 216.043 219.535,217.341 232.261,217.990 241.200 C 218.221 244.390,218.493 247.924,218.594 249.053 C 219.587 260.199,219.789 266.235,219.780 284.600 C 219.774 297.045,219.580 307.340,219.282 311.000 C 219.013 314.300,218.529 320.330,218.207 324.400 C 217.406 334.517,216.397 343.327,215.991 343.753 C 214.933 344.861,214.519 343.584,214.244 338.370 C 213.268 319.897,207.089 274.711,203.362 258.800 C 203.027 257.370,202.053 252.870,201.197 248.800 C 194.034 214.723,177.518 162.832,165.931 138.000 C 165.469 137.010,164.326 134.400,163.392 132.200 C 151.854 105.034,136.945 78.552,122.856 60.200 C 119.327 55.603,118.619 54.789,111.438 47.075 C 107.050 42.360,105.793 40.854,106.059 40.629 C 106.137 40.564,109.710 41.116,114.000 41.855 C 135.130 45.498,146.948 46.782,170.200 47.960 C 178.565 48.384,213.602 48.388,221.800 47.966 C 246.940 46.671,272.115 43.767,286.000 40.560 C 287.430 40.230,291.570 39.334,295.200 38.568 C 323.770 32.546,362.950 19.327,391.111 6.210 C 396.795 3.562,396.643 3.549,398.531 6.866 L 399.972 9.400 399.986 4.700 L 400.000 0.000 200.000 0.000 L 0.000 0.000 0.000 200.000 M359.485 70.255 L 360.420 73.059 364.710 73.042 C 370.147 73.020,370.000 72.910,370.000 77.000 C 370.000 80.896,369.930 80.975,366.960 80.426 C 360.433 79.220,354.221 83.311,356.255 87.475 C 357.286 89.586,358.911 90.251,364.800 90.972 C 371.736 91.821,374.460 92.808,377.067 95.415 C 382.271 100.619,381.855 108.857,376.129 113.960 L 373.908 115.940 374.953 119.050 C 376.157 122.629,376.144 122.657,372.906 123.668 C 369.438 124.751,369.453 124.758,368.431 121.500 L 367.522 118.600 362.424 118.600 C 355.872 118.600,355.862 118.593,356.229 114.233 C 356.570 110.192,356.389 110.407,358.889 111.081 C 365.338 112.819,372.743 109.313,372.303 104.731 C 371.961 101.177,369.721 99.871,362.522 99.030 C 354.456 98.087,351.185 96.436,349.010 92.209 C 346.481 87.293,347.730 81.248,352.058 77.462 L 354.065 75.706 353.206 72.953 C 352.734 71.439,352.260 69.993,352.153 69.740 C 351.966 69.295,357.364 67.160,358.175 67.358 C 358.381 67.409,358.971 68.712,359.485 70.255 M216.912 94.800 L 217.885 98.200 222.643 98.228 C 225.259 98.243,227.921 98.404,228.557 98.585 L 229.714 98.915 229.470 102.911 C 229.177 107.720,229.569 107.309,225.833 106.728 C 211.576 104.512,205.344 117.335,219.480 119.802 C 221.196 120.101,224.282 120.637,226.338 120.993 C 242.997 123.875,247.339 140.213,234.054 150.025 L 232.707 151.020 233.940 155.003 C 235.374 159.634,235.552 159.276,231.200 160.540 L 227.800 161.528 226.576 157.664 L 225.352 153.800 219.976 153.794 C 216.489 153.790,214.053 153.597,213.043 153.244 L 211.486 152.700 211.750 148.677 C 212.067 143.846,211.703 144.248,215.041 145.035 C 223.550 147.040,231.994 143.378,231.999 137.680 C 232.003 132.964,228.341 130.475,220.112 129.598 C 210.537 128.578,206.174 126.289,203.517 120.893 C 200.361 114.481,202.830 106.214,209.049 102.370 C 210.663 101.373,210.679 101.119,209.418 96.781 C 208.272 92.839,208.140 93.073,212.219 91.844 C 215.978 90.711,215.690 90.530,216.912 94.800 M135.400 101.420 C 134.740 101.965,131.500 104.336,128.200 106.689 C 124.900 109.042,119.950 112.582,117.200 114.555 C 114.450 116.529,109.755 119.866,106.767 121.972 C 99.463 127.119,90.589 133.440,84.669 137.715 C 81.991 139.649,78.780 141.940,77.534 142.807 L 75.268 144.383 83.935 153.092 C 96.410 165.628,113.600 184.843,120.214 193.646 C 120.646 194.222,123.709 198.272,127.020 202.646 C 132.347 209.683,142.092 223.527,144.227 227.090 C 144.652 227.799,146.465 230.679,148.255 233.490 C 157.451 247.927,169.783 271.157,175.386 284.600 C 176.211 286.580,177.321 289.143,177.853 290.296 C 181.862 298.989,191.246 327.163,191.188 330.329 C 191.181 330.698,190.487 329.200,189.647 327.000 C 178.321 297.355,135.339 245.817,65.200 177.781 C 59.940 172.678,46.820 160.180,44.643 158.197 C 44.399 157.975,40.780 154.637,36.600 150.779 C 28.854 143.629,26.595 141.560,24.305 139.515 C 23.239 138.564,23.117 138.297,23.607 137.987 C 25.468 136.809,39.408 131.715,60.600 124.469 C 73.870 119.931,111.385 107.914,128.390 102.754 C 132.014 101.654,135.059 100.675,135.156 100.577 C 135.254 100.480,135.618 100.406,135.967 100.414 C 136.399 100.424,136.220 100.743,135.400 101.420 M121.143 130.844 C 122.039 133.002,121.982 133.598,120.876 133.604 C 114.551 133.640,109.125 142.760,111.493 149.374 C 112.470 152.100,112.249 152.176,119.492 146.599 C 123.062 143.850,126.122 141.603,126.292 141.607 C 126.977 141.622,128.374 144.149,127.968 144.638 C 127.641 145.032,116.068 153.932,114.683 154.854 C 114.255 155.139,115.554 157.600,116.131 157.600 C 116.329 157.600,118.765 155.842,121.545 153.692 C 124.325 151.543,127.472 149.160,128.539 148.397 L 130.477 147.009 131.439 148.127 C 132.904 149.831,133.693 148.986,123.321 156.827 C 118.839 160.215,118.853 160.194,120.203 161.603 C 125.412 167.040,135.859 164.462,139.324 156.885 C 139.790 155.865,140.280 155.941,142.039 157.303 C 143.467 158.409,143.360 159.641,141.617 162.176 C 135.622 170.889,123.933 172.485,115.675 165.719 C 114.084 164.415,113.817 164.321,113.052 164.796 C 112.583 165.087,111.893 165.515,111.517 165.748 C 110.982 166.080,110.614 165.965,109.817 165.216 C 108.508 163.986,108.535 163.679,110.066 162.402 L 111.331 161.345 110.408 160.096 L 109.485 158.847 108.089 159.912 L 106.693 160.977 105.544 159.601 L 104.396 158.225 106.001 156.813 L 107.607 155.400 106.658 152.800 C 102.985 142.736,107.546 133.223,117.795 129.572 C 118.898 129.180,119.911 128.845,120.047 128.829 C 120.182 128.813,120.676 129.720,121.143 130.844 M282.838 163.429 C 270.545 169.979,260.209 180.784,255.025 192.505 C 253.828 195.211,253.424 194.910,260.155 196.333 C 265.636 197.493,266.515 197.804,265.784 198.322 C 265.569 198.475,263.060 201.210,260.210 204.400 C 257.360 207.590,254.101 211.190,252.968 212.400 C 251.835 213.610,249.669 215.984,248.154 217.675 C 244.819 221.399,245.065 221.565,242.684 214.000 C 241.679 210.810,239.662 204.447,238.201 199.861 C 236.740 195.275,235.627 191.440,235.727 191.339 C 235.828 191.239,238.571 191.706,241.822 192.378 C 245.074 193.050,247.757 193.554,247.786 193.500 C 247.814 193.445,248.895 191.690,250.189 189.600 C 258.218 176.630,269.092 167.551,282.800 162.372 C 287.403 160.633,287.416 160.990,282.838 163.429 M310.000 178.318 L 310.600 183.400 315.000 183.616 C 319.530 183.838,325.999 185.575,326.001 186.569 C 326.003 187.370,323.899 195.797,323.619 196.109 C 323.467 196.279,322.154 195.971,320.702 195.424 C 309.197 191.094,297.207 195.752,298.602 204.010 C 299.374 208.579,303.340 211.121,314.532 214.222 C 327.578 217.836,334.121 225.033,334.150 235.800 C 334.172 244.127,329.835 250.693,321.700 254.646 C 320.105 255.422,318.800 256.095,318.800 256.143 C 318.800 256.191,319.069 258.384,319.397 261.015 C 320.342 268.597,320.744 267.814,315.614 268.381 C 310.165 268.982,310.627 269.406,309.800 263.060 L 309.103 257.706 304.452 257.485 C 298.098 257.183,291.200 255.123,291.200 253.526 C 291.200 252.785,293.188 243.947,293.416 243.672 C 293.475 243.602,294.305 243.945,295.261 244.435 C 306.395 250.142,320.519 246.782,321.831 238.114 C 322.759 231.991,318.746 228.074,308.414 225.018 C 301.997 223.120,297.865 221.518,295.383 219.965 C 282.202 211.720,283.574 193.568,297.897 186.687 L 301.194 185.103 300.980 183.652 C 299.370 172.717,299.022 173.792,304.400 173.100 C 309.560 172.436,309.274 172.170,310.000 178.318 M50.768 181.824 C 46.894 189.870,43.067 197.795,39.579 205.000 C 38.407 207.420,37.313 209.702,37.148 210.071 C 36.901 210.621,37.724 211.189,41.724 213.229 C 48.374 216.621,63.778 225.119,65.600 226.400 C 66.150 226.787,68.130 228.028,70.000 229.157 C 74.690 231.989,80.109 235.580,89.200 241.877 C 92.351 244.060,102.002 251.643,108.400 256.964 C 124.392 270.262,141.285 290.639,148.918 305.836 C 152.411 312.792,154.641 319.385,151.925 314.729 C 148.379 308.650,139.540 300.329,128.000 292.206 C 123.387 288.959,114.412 282.833,112.718 281.775 C 111.682 281.129,108.802 279.319,106.318 277.753 C 97.608 272.265,84.332 264.397,72.200 257.533 C 70.440 256.538,64.410 253.239,58.800 250.203 C 53.190 247.167,46.890 243.732,44.800 242.571 C 40.097 239.958,29.238 234.354,12.900 226.109 C 6.025 222.639,0.400 219.665,0.400 219.499 C 0.400 219.092,1.826 217.837,13.000 208.399 C 18.280 203.940,23.500 199.528,24.600 198.594 C 32.683 191.735,44.333 181.874,46.970 179.661 C 48.714 178.197,51.045 176.208,52.150 175.241 C 54.985 172.760,54.871 173.303,50.768 181.824 M58.067 190.491 L 59.133 191.788 57.395 193.647 C 53.890 197.393,54.172 200.829,58.211 203.607 C 59.624 204.580,62.788 205.973,63.631 205.994 C 63.758 205.997,64.658 204.563,65.631 202.806 C 67.627 199.203,67.460 199.308,69.377 200.440 C 71.094 201.453,71.116 200.982,69.200 204.305 C 67.250 207.688,67.251 207.633,69.089 208.609 C 71.576 209.930,73.270 211.676,74.417 214.102 L 75.509 216.411 76.698 214.506 C 77.352 213.458,79.100 210.485,80.583 207.900 C 82.066 205.315,83.446 203.200,83.648 203.200 C 84.452 203.200,87.174 205.320,86.922 205.749 C 86.777 205.997,85.997 207.280,85.191 208.600 C 84.384 209.920,82.136 213.790,80.195 217.200 C 75.679 225.135,75.816 224.973,74.346 224.105 C 73.527 223.620,73.200 223.114,73.200 222.328 C 73.200 219.033,70.745 214.885,67.797 213.198 C 65.079 211.643,65.087 211.642,63.586 214.100 C 62.881 215.255,62.237 216.274,62.155 216.364 C 61.854 216.694,59.200 215.002,59.200 214.480 C 59.200 214.184,59.661 213.156,60.224 212.195 L 61.249 210.447 58.316 209.092 C 49.941 205.222,48.168 197.073,54.315 190.700 C 56.089 188.861,56.699 188.827,58.067 190.491 M373.476 225.904 C 378.140 240.084,381.273 250.061,381.112 250.222 C 381.013 250.320,378.383 249.861,375.268 249.201 C 372.153 248.540,369.431 248.000,369.220 248.000 C 369.008 248.000,368.082 249.305,367.160 250.900 C 360.072 263.174,347.888 273.695,335.000 278.672 C 329.928 280.631,327.820 280.957,331.506 279.214 C 343.743 273.425,353.829 263.722,360.324 251.490 C 361.466 249.340,362.400 247.318,362.400 246.998 C 362.400 246.344,362.400 246.344,355.873 245.031 C 350.012 243.852,350.211 244.178,353.247 240.715 C 358.328 234.919,371.308 220.800,371.551 220.804 C 371.688 220.805,372.554 223.100,373.476 225.904 " stroke="none" fill="#fbfbfb" fill-rule="evenodd"></path><path id="path3" d="M109.200 44.600 C 109.946 45.370,110.647 46.000,110.757 46.000 C 110.867 46.000,110.346 45.370,109.600 44.600 C 108.854 43.830,108.153 43.200,108.043 43.200 C 107.933 43.200,108.454 43.830,109.200 44.600 M150.900 47.076 C 151.285 47.176,151.915 47.176,152.300 47.076 C 152.685 46.975,152.370 46.893,151.600 46.893 C 150.830 46.893,150.515 46.975,150.900 47.076 M239.700 47.076 C 240.085 47.176,240.715 47.176,241.100 47.076 C 241.485 46.975,241.170 46.893,240.400 46.893 C 239.630 46.893,239.315 46.975,239.700 47.076 M156.305 47.483 C 156.802 47.579,157.522 47.575,157.905 47.475 C 158.287 47.375,157.880 47.296,157.000 47.301 C 156.120 47.305,155.807 47.387,156.305 47.483 M234.305 47.483 C 234.802 47.579,235.522 47.575,235.905 47.475 C 236.287 47.375,235.880 47.296,235.000 47.301 C 234.120 47.305,233.807 47.387,234.305 47.483 M162.500 47.887 C 163.105 47.978,164.095 47.978,164.700 47.887 C 165.305 47.795,164.810 47.720,163.600 47.720 C 162.390 47.720,161.895 47.795,162.500 47.887 M227.300 47.887 C 227.905 47.978,228.895 47.978,229.500 47.887 C 230.105 47.795,229.610 47.720,228.400 47.720 C 227.190 47.720,226.695 47.795,227.300 47.887 M114.400 50.200 C 115.595 51.410,116.663 52.400,116.773 52.400 C 116.883 52.400,115.995 51.410,114.800 50.200 C 113.605 48.990,112.537 48.000,112.427 48.000 C 112.317 48.000,113.205 48.990,114.400 50.200 M169.100 48.289 C 169.815 48.378,170.985 48.378,171.700 48.289 C 172.415 48.201,171.830 48.128,170.400 48.128 C 168.970 48.128,168.385 48.201,169.100 48.289 M219.900 48.289 C 220.615 48.378,221.785 48.378,222.500 48.289 C 223.215 48.201,222.630 48.128,221.200 48.128 C 219.770 48.128,219.185 48.201,219.900 48.289 M180.117 48.697 C 181.611 48.774,183.951 48.774,185.317 48.696 C 186.682 48.618,185.460 48.555,182.600 48.555 C 179.740 48.556,178.622 48.620,180.117 48.697 M206.917 48.697 C 208.411 48.774,210.751 48.774,212.117 48.696 C 213.482 48.618,212.260 48.555,209.400 48.555 C 206.540 48.556,205.422 48.620,206.917 48.697 M118.200 54.400 C 119.059 55.280,119.852 56.000,119.962 56.000 C 120.072 56.000,119.459 55.280,118.600 54.400 C 117.741 53.520,116.948 52.800,116.838 52.800 C 116.728 52.800,117.341 53.520,118.200 54.400 M365.200 57.800 C 364.650 58.114,364.380 58.372,364.600 58.372 C 364.820 58.372,365.450 58.114,366.000 57.800 C 366.550 57.486,366.820 57.228,366.600 57.228 C 366.380 57.228,365.750 57.486,365.200 57.800 M383.432 71.300 C 384.199 73.721,385.145 76.154,385.171 75.778 C 385.211 75.200,383.573 70.400,383.336 70.400 C 383.232 70.400,383.275 70.805,383.432 71.300 M253.300 85.876 C 253.685 85.976,254.315 85.976,254.700 85.876 C 255.085 85.775,254.770 85.693,254.000 85.693 C 253.230 85.693,252.915 85.775,253.300 85.876 M250.100 86.276 C 250.485 86.376,251.115 86.376,251.500 86.276 C 251.885 86.175,251.570 86.093,250.800 86.093 C 250.030 86.093,249.715 86.175,250.100 86.276 M246.500 86.676 C 246.885 86.776,247.515 86.776,247.900 86.676 C 248.285 86.575,247.970 86.493,247.200 86.493 C 246.430 86.493,246.115 86.575,246.500 86.676 M200.500 89.887 C 201.105 89.978,202.095 89.978,202.700 89.887 C 203.305 89.795,202.810 89.720,201.600 89.720 C 200.390 89.720,199.895 89.795,200.500 89.887 M181.606 90.700 C 181.610 91.184,181.708 91.250,181.922 90.913 C 182.130 90.585,183.857 90.385,187.216 90.299 L 192.200 90.173 186.900 90.086 C 182.084 90.008,181.601 90.064,181.606 90.700 M193.905 90.283 C 194.402 90.379,195.122 90.375,195.505 90.275 C 195.887 90.175,195.480 90.096,194.600 90.101 C 193.720 90.105,193.407 90.187,193.905 90.283 M392.856 101.200 C 392.856 101.530,393.011 102.160,393.200 102.600 C 393.417 103.104,393.544 103.178,393.544 102.800 C 393.544 102.470,393.389 101.840,393.200 101.400 C 392.983 100.896,392.856 100.822,392.856 101.200 M398.056 120.000 C 398.056 120.330,398.211 120.960,398.400 121.400 C 398.617 121.904,398.744 121.978,398.744 121.600 C 398.744 121.270,398.589 120.640,398.400 120.200 C 398.183 119.696,398.056 119.622,398.056 120.000 M159.228 122.600 C 159.228 122.820,159.486 123.450,159.800 124.000 C 160.114 124.550,160.372 124.820,160.372 124.600 C 160.372 124.380,160.114 123.750,159.800 123.200 C 159.486 122.650,159.228 122.380,159.228 122.600 M113.578 137.500 L 112.200 139.000 113.700 137.622 C 114.525 136.863,115.200 136.188,115.200 136.122 C 115.200 135.816,114.862 136.104,113.578 137.500 M110.493 145.200 C 110.493 145.970,110.575 146.285,110.676 145.900 C 110.776 145.515,110.776 144.885,110.676 144.500 C 110.575 144.115,110.493 144.430,110.493 145.200 M119.400 155.444 L 117.800 156.876 119.500 155.604 C 120.963 154.510,121.491 153.983,121.100 154.006 C 121.045 154.009,120.280 154.656,119.400 155.444 M107.506 159.866 C 106.936 160.435,106.736 160.453,106.120 159.988 C 105.432 159.468,105.431 159.478,106.102 160.209 C 106.791 160.961,106.818 160.959,107.690 160.087 C 108.178 159.599,108.486 159.200,108.375 159.200 C 108.263 159.200,107.872 159.500,107.506 159.866 M108.812 163.478 C 108.805 163.740,109.205 164.379,109.700 164.897 C 110.195 165.415,110.400 165.560,110.156 165.220 C 109.912 164.879,109.512 164.240,109.268 163.800 C 109.024 163.360,108.819 163.215,108.812 163.478 M138.981 164.900 L 137.400 166.600 139.100 165.019 C 140.681 163.548,140.984 163.200,140.681 163.200 C 140.616 163.200,139.851 163.965,138.981 164.900 M125.700 169.891 C 126.525 169.978,127.875 169.978,128.700 169.891 C 129.525 169.805,128.850 169.734,127.200 169.734 C 125.550 169.734,124.875 169.805,125.700 169.891 M53.072 176.219 C 52.132 178.189,52.264 178.524,53.247 176.662 C 53.693 175.816,53.987 175.054,53.901 174.967 C 53.814 174.881,53.441 175.444,53.072 176.219 M44.800 214.979 C 44.800 215.089,45.340 215.459,46.000 215.800 C 46.660 216.141,47.200 216.331,47.200 216.221 C 47.200 216.111,46.660 215.741,46.000 215.400 C 45.340 215.059,44.800 214.869,44.800 214.979 M47.600 216.579 C 47.600 216.689,48.140 217.059,48.800 217.400 C 49.460 217.741,50.000 217.931,50.000 217.821 C 50.000 217.711,49.460 217.341,48.800 217.000 C 48.140 216.659,47.600 216.469,47.600 216.579 M215.701 220.200 C 215.705 221.080,215.787 221.393,215.883 220.895 C 215.979 220.398,215.975 219.678,215.875 219.295 C 215.775 218.913,215.696 219.320,215.701 220.200 M53.600 219.779 C 53.600 219.889,54.140 220.259,54.800 220.600 C 55.460 220.941,56.000 221.131,56.000 221.021 C 56.000 220.911,55.460 220.541,54.800 220.200 C 54.140 219.859,53.600 219.669,53.600 219.779 M3.600 221.400 C 5.030 222.149,6.380 222.761,6.600 222.761 C 6.820 222.761,5.830 222.149,4.400 221.400 C 2.970 220.651,1.620 220.039,1.400 220.039 C 1.180 220.039,2.170 220.651,3.600 221.400 M216.101 223.400 C 216.105 224.280,216.187 224.593,216.283 224.095 C 216.379 223.598,216.375 222.878,216.275 222.495 C 216.175 222.113,216.096 222.520,216.101 223.400 M11.200 224.984 C 11.200 225.094,11.920 225.551,12.800 226.000 C 13.680 226.449,14.400 226.726,14.400 226.616 C 14.400 226.506,13.680 226.049,12.800 225.600 C 11.920 225.151,11.200 224.874,11.200 224.984 M216.493 226.800 C 216.493 227.570,216.575 227.885,216.676 227.500 C 216.776 227.115,216.776 226.485,216.676 226.100 C 216.575 225.715,216.493 226.030,216.493 226.800 M28.400 233.784 C 28.400 233.894,29.120 234.351,30.000 234.800 C 30.880 235.249,31.600 235.526,31.600 235.416 C 31.600 235.306,30.880 234.849,30.000 234.400 C 29.120 233.951,28.400 233.674,28.400 233.784 M38.400 238.979 C 38.400 239.089,38.940 239.459,39.600 239.800 C 40.260 240.141,40.800 240.331,40.800 240.221 C 40.800 240.111,40.260 239.741,39.600 239.400 C 38.940 239.059,38.400 238.869,38.400 238.979 M120.600 268.800 C 122.571 270.780,124.273 272.400,124.383 272.400 C 124.493 272.400,122.971 270.780,121.000 268.800 C 119.029 266.820,117.327 265.200,117.217 265.200 C 117.107 265.200,118.629 266.820,120.600 268.800 M219.314 267.400 C 219.317 268.500,219.395 268.903,219.487 268.295 C 219.579 267.686,219.577 266.786,219.482 266.295 C 219.387 265.803,219.311 266.300,219.314 267.400 M219.751 284.800 C 219.751 287.330,219.816 288.365,219.896 287.100 C 219.975 285.835,219.975 283.765,219.896 282.500 C 219.816 281.235,219.751 282.270,219.751 284.800 M219.309 302.000 C 219.309 302.990,219.387 303.395,219.482 302.900 C 219.578 302.405,219.578 301.595,219.482 301.100 C 219.387 300.605,219.309 301.010,219.309 302.000 M210.893 304.000 C 210.893 304.770,210.975 305.085,211.076 304.700 C 211.176 304.315,211.176 303.685,211.076 303.300 C 210.975 302.915,210.893 303.230,210.893 304.000 M145.400 306.400 C 146.483 307.500,147.460 308.400,147.570 308.400 C 147.680 308.400,146.883 307.500,145.800 306.400 C 144.717 305.300,143.740 304.400,143.630 304.400 C 143.520 304.400,144.317 305.300,145.400 306.400 M150.828 310.600 C 150.828 310.820,151.086 311.450,151.400 312.000 C 151.714 312.550,151.972 312.820,151.972 312.600 C 151.972 312.380,151.714 311.750,151.400 311.200 C 151.086 310.650,150.828 310.380,150.828 310.600 M151.279 313.477 C 152.006 314.619,152.672 315.348,152.760 315.097 C 152.848 314.846,152.723 314.574,152.482 314.494 C 152.242 314.414,152.147 314.083,152.272 313.758 C 152.396 313.433,152.320 313.220,152.102 313.284 C 151.884 313.348,151.313 312.950,150.832 312.400 C 150.352 311.850,150.553 312.335,151.279 313.477 M213.693 329.600 C 213.693 330.370,213.775 330.685,213.876 330.300 C 213.976 329.915,213.976 329.285,213.876 328.900 C 213.775 328.515,213.693 328.830,213.693 329.600 M214.101 334.600 C 214.105 335.480,214.187 335.793,214.283 335.295 C 214.379 334.798,214.375 334.078,214.275 333.695 C 214.175 333.313,214.096 333.720,214.101 334.600 M214.520 339.600 C 214.520 340.810,214.595 341.305,214.687 340.700 C 214.778 340.095,214.778 339.105,214.687 338.500 C 214.595 337.895,214.520 338.390,214.520 339.600 " stroke="none" fill="#949393" fill-rule="evenodd"></path><path id="path4" d="M191.700 48.698 C 194.065 48.769,197.935 48.769,200.300 48.698 C 202.665 48.628,200.730 48.570,196.000 48.570 C 191.270 48.570,189.335 48.628,191.700 48.698 M355.800 68.002 C 354.700 68.407,354.002 68.752,354.250 68.769 C 354.497 68.786,355.465 68.530,356.400 68.200 C 357.335 67.870,358.136 67.600,358.180 67.600 C 358.223 67.600,358.683 68.950,359.200 70.600 L 360.141 73.600 361.570 73.536 L 363.000 73.472 361.726 73.313 C 360.537 73.164,360.387 72.960,359.501 70.302 C 358.403 67.009,358.438 67.031,355.800 68.002 M364.105 73.087 C 364.714 73.179,365.614 73.177,366.105 73.082 C 366.597 72.987,366.100 72.911,365.000 72.914 C 363.900 72.917,363.497 72.995,364.105 73.087 M368.720 73.490 C 369.601 73.650,369.637 73.799,369.565 77.035 L 369.491 80.413 367.445 80.218 L 365.400 80.023 367.200 80.412 C 369.963 81.008,370.047 80.898,369.916 76.907 C 369.802 73.476,369.778 73.399,368.800 73.361 C 367.889 73.326,367.882 73.338,368.720 73.490 M352.164 77.400 C 351.044 78.500,349.889 79.760,349.595 80.200 C 349.302 80.640,349.768 80.274,350.631 79.387 C 351.494 78.499,352.720 77.404,353.355 76.952 C 353.990 76.500,354.440 75.966,354.355 75.765 C 354.270 75.564,353.284 76.300,352.164 77.400 M360.099 80.752 C 352.050 83.532,354.962 91.456,363.920 91.149 C 364.884 91.116,364.429 90.974,362.615 90.742 C 353.883 89.623,353.129 82.933,361.489 80.753 C 362.980 80.364,363.750 80.042,363.200 80.036 C 362.650 80.031,361.255 80.353,360.099 80.752 M347.714 86.600 C 347.717 87.700,347.795 88.103,347.887 87.495 C 347.979 86.886,347.977 85.986,347.882 85.495 C 347.787 85.003,347.711 85.500,347.714 86.600 M219.500 89.082 C 219.995 89.178,220.805 89.178,221.300 89.082 C 221.795 88.987,221.390 88.909,220.400 88.909 C 219.410 88.909,219.005 88.987,219.500 89.082 M212.307 89.490 C 213.026 89.579,214.106 89.577,214.707 89.486 C 215.308 89.395,214.720 89.322,213.400 89.324 C 212.080 89.326,211.588 89.401,212.307 89.490 M206.305 89.883 C 206.802 89.979,207.522 89.975,207.905 89.875 C 208.287 89.775,207.880 89.696,207.000 89.701 C 206.120 89.705,205.807 89.787,206.305 89.883 M196.900 90.287 C 197.505 90.378,198.495 90.378,199.100 90.287 C 199.705 90.195,199.210 90.120,198.000 90.120 C 196.790 90.120,196.295 90.195,196.900 90.287 M213.800 91.407 C 211.971 91.989,212.359 92.185,214.262 91.640 C 215.496 91.286,215.527 91.310,216.014 93.051 C 216.287 94.026,216.593 94.740,216.695 94.638 C 216.904 94.430,216.038 91.535,215.652 91.149 C 215.513 91.010,214.680 91.126,213.800 91.407 M366.305 91.483 C 366.802 91.579,367.522 91.575,367.905 91.475 C 368.287 91.375,367.880 91.296,367.000 91.301 C 366.120 91.305,365.807 91.387,366.305 91.483 M349.851 93.759 C 350.600 94.967,353.398 97.201,354.160 97.199 C 354.402 97.198,353.970 96.827,353.200 96.374 C 352.430 95.921,351.200 94.887,350.467 94.076 C 349.371 92.863,349.261 92.807,349.851 93.759 M375.042 94.100 C 378.184 96.214,380.049 99.848,380.535 104.800 C 380.664 106.120,380.676 106.105,380.736 104.536 C 380.908 100.058,376.430 92.800,373.495 92.800 C 373.283 92.800,373.979 93.385,375.042 94.100 M217.600 98.480 C 217.600 98.656,218.230 98.800,219.000 98.800 C 219.770 98.800,220.400 98.730,220.400 98.644 C 220.400 98.558,219.770 98.414,219.000 98.324 C 218.230 98.234,217.600 98.304,217.600 98.480 M221.900 98.289 C 222.615 98.378,223.785 98.378,224.500 98.289 C 225.215 98.201,224.630 98.128,223.200 98.128 C 221.770 98.128,221.185 98.201,221.900 98.289 M210.152 100.059 C 210.178 101.081,210.335 101.835,210.500 101.735 C 210.881 101.504,210.840 100.041,210.424 99.000 C 210.201 98.444,210.118 98.766,210.152 100.059 M226.600 98.662 C 229.346 99.243,229.154 99.012,229.303 101.903 L 229.443 104.600 229.522 101.747 C 229.607 98.644,229.362 98.347,226.800 98.452 C 226.008 98.484,225.967 98.528,226.600 98.662 M359.300 98.676 C 359.685 98.776,360.315 98.776,360.700 98.676 C 361.085 98.575,360.770 98.493,360.000 98.493 C 359.230 98.493,358.915 98.575,359.300 98.676 M362.905 99.087 C 363.514 99.179,364.414 99.177,364.905 99.082 C 365.397 98.987,364.900 98.911,363.800 98.914 C 362.700 98.917,362.297 98.995,362.905 99.087 M367.901 99.952 C 369.056 100.351,370.403 101.020,370.894 101.439 C 371.771 102.187,371.776 102.187,371.193 101.437 C 370.497 100.541,367.749 99.216,366.600 99.222 C 366.160 99.224,366.745 99.553,367.901 99.952 M134.621 100.761 C 133.875 101.053,133.878 101.075,134.707 101.292 C 135.207 101.422,135.766 101.283,136.034 100.959 C 136.565 100.320,135.964 100.236,134.621 100.761 M128.034 106.401 C 125.302 108.365,122.872 110.195,122.634 110.467 C 122.112 111.061,121.818 111.260,128.300 106.643 C 132.467 103.674,133.647 102.733,133.100 102.815 C 133.045 102.823,130.765 104.437,128.034 106.401 M206.400 104.600 C 205.428 105.590,204.723 106.400,204.833 106.400 C 204.943 106.400,205.828 105.590,206.800 104.600 C 207.772 103.610,208.477 102.800,208.367 102.800 C 208.257 102.800,207.372 103.610,206.400 104.600 M123.093 104.295 C 121.384 104.858,120.061 105.394,120.152 105.486 C 120.337 105.671,127.200 103.594,127.200 103.353 C 127.200 103.047,126.138 103.291,123.093 104.295 M228.893 106.000 C 228.893 106.770,228.975 107.085,229.076 106.700 C 229.176 106.315,229.176 105.685,229.076 105.300 C 228.975 104.915,228.893 105.230,228.893 106.000 M117.800 106.000 C 117.296 106.217,117.222 106.344,117.600 106.344 C 117.930 106.344,118.560 106.189,119.000 106.000 C 119.504 105.783,119.578 105.656,119.200 105.656 C 118.870 105.656,118.240 105.811,117.800 106.000 M379.872 107.600 C 379.460 109.578,377.059 113.029,375.203 114.313 C 373.327 115.610,373.341 115.497,374.600 119.200 C 375.150 120.817,375.600 122.184,375.600 122.237 C 375.600 122.291,374.419 122.728,372.974 123.209 C 369.772 124.274,369.729 124.645,372.922 123.657 C 376.141 122.661,376.156 122.628,374.953 119.050 L 373.908 115.940 376.129 113.960 C 378.429 111.910,380.598 108.267,380.317 106.926 C 380.221 106.468,380.057 106.716,379.872 107.600 M106.400 109.587 C 103.210 110.648,100.780 111.532,101.000 111.551 C 101.220 111.571,104.100 110.707,107.400 109.631 C 110.700 108.556,113.130 107.672,112.800 107.667 C 112.470 107.662,109.590 108.526,106.400 109.587 M213.793 108.859 C 209.080 112.998,212.050 120.242,218.350 119.972 C 218.708 119.957,218.103 119.669,217.006 119.333 C 210.829 117.438,209.691 111.931,214.769 108.510 C 215.511 108.009,215.918 107.600,215.673 107.600 C 215.428 107.600,214.582 108.167,213.793 108.859 M370.830 108.568 C 370.330 109.100,369.393 109.754,368.748 110.022 C 368.102 110.289,367.653 110.587,367.750 110.683 C 368.051 110.984,370.153 109.727,371.170 108.638 C 371.703 108.067,372.049 107.600,371.939 107.600 C 371.829 107.600,371.330 108.036,370.830 108.568 M202.573 111.034 C 201.850 113.519,201.956 117.052,202.827 119.520 C 203.529 121.511,203.608 120.883,202.967 118.412 C 202.655 117.210,202.400 115.584,202.400 114.800 C 202.400 114.016,202.655 112.390,202.967 111.188 C 203.731 108.243,203.420 108.122,202.573 111.034 M356.651 110.738 C 356.037 111.817,356.012 117.512,356.620 118.016 C 357.416 118.677,363.858 119.020,366.146 118.523 C 367.260 118.280,366.232 118.189,362.467 118.193 C 356.157 118.201,356.290 118.295,356.638 114.117 C 356.878 111.241,356.985 110.923,357.653 111.098 C 358.064 111.205,358.400 111.203,358.400 111.093 C 358.400 110.772,356.816 110.449,356.651 110.738 M94.400 113.400 C 92.310 114.135,90.787 114.751,91.015 114.769 C 91.244 114.786,93.224 114.184,95.415 113.430 C 97.607 112.677,99.130 112.061,98.800 112.062 C 98.470 112.062,96.490 112.665,94.400 113.400 M118.479 113.235 C 117.555 113.914,116.800 114.555,116.800 114.659 C 116.800 114.764,117.610 114.268,118.600 113.557 C 120.219 112.395,120.644 112.000,120.279 112.000 C 120.212 112.000,119.402 112.556,118.479 113.235 M79.000 118.400 C 76.580 119.245,74.786 119.951,75.013 119.969 C 75.241 119.986,77.491 119.294,80.013 118.431 C 82.536 117.567,84.330 116.861,84.000 116.862 C 83.670 116.862,81.420 117.555,79.000 118.400 M111.429 118.208 C 110.344 118.958,109.174 119.875,108.829 120.247 C 108.483 120.618,109.335 120.142,110.722 119.188 C 112.108 118.234,113.334 117.307,113.445 117.127 C 113.752 116.630,113.561 116.733,111.429 118.208 M368.261 120.800 C 368.717 122.602,369.652 124.803,369.384 123.444 C 369.259 122.808,368.898 121.728,368.582 121.044 C 368.151 120.108,368.071 120.048,368.261 120.800 M222.705 120.683 C 223.202 120.779,223.922 120.775,224.305 120.675 C 224.687 120.575,224.280 120.496,223.400 120.501 C 222.520 120.505,222.207 120.587,222.705 120.683 M65.075 122.873 C 63.136 123.539,61.619 124.153,61.704 124.237 C 61.788 124.322,63.645 123.777,65.829 123.026 C 68.013 122.275,69.530 121.661,69.200 121.662 C 68.870 121.663,67.014 122.208,65.075 122.873 M104.900 122.840 C 103.965 123.502,103.200 124.133,103.200 124.241 C 103.200 124.350,104.010 123.881,105.000 123.200 C 105.990 122.519,106.800 121.880,106.800 121.781 C 106.800 121.505,106.724 121.548,104.900 122.840 M232.990 123.211 C 234.304 123.893,235.644 124.665,235.967 124.926 C 236.424 125.296,236.488 125.291,236.256 124.905 C 235.875 124.270,232.902 122.560,231.600 122.227 C 231.050 122.086,231.675 122.529,232.990 123.211 M204.800 123.325 C 204.800 123.394,205.385 123.979,206.100 124.625 L 207.400 125.800 206.225 124.500 C 205.130 123.288,204.800 123.016,204.800 123.325 M98.857 127.176 C 95.757 129.419,95.350 130.036,98.322 127.990 C 100.480 126.504,101.587 125.565,101.124 125.613 C 101.056 125.620,100.036 126.323,98.857 127.176 M208.400 126.341 C 209.421 127.195,213.653 128.814,214.778 128.782 C 215.120 128.772,214.140 128.356,212.600 127.857 C 211.060 127.358,209.260 126.624,208.600 126.227 L 207.400 125.505 208.400 126.341 M237.600 126.278 C 237.600 126.539,237.784 126.866,238.008 127.005 C 238.232 127.144,238.962 128.279,239.630 129.529 C 240.297 130.778,240.744 131.470,240.622 131.067 C 240.500 130.664,240.400 130.201,240.400 130.038 C 240.400 129.874,239.770 128.855,239.000 127.772 C 238.230 126.689,237.600 126.016,237.600 126.278 M50.283 127.902 C 48.129 128.670,46.437 129.370,46.524 129.457 C 46.679 129.612,54.842 126.878,55.167 126.562 C 55.591 126.150,53.877 126.620,50.283 127.902 M37.885 132.275 C 35.732 133.061,34.043 133.776,34.131 133.864 C 34.296 134.029,42.002 131.331,42.344 130.989 C 42.750 130.583,41.648 130.901,37.885 132.275 M90.900 132.840 C 89.196 134.047,88.587 134.773,89.900 134.034 C 90.753 133.553,93.079 131.627,92.800 131.632 C 92.690 131.634,91.835 132.178,90.900 132.840 M230.100 133.137 C 230.925 134.053,231.600 135.012,231.600 135.268 C 231.600 135.524,231.711 135.623,231.846 135.488 C 232.222 135.111,230.440 132.449,229.464 131.930 C 228.878 131.619,229.082 132.006,230.100 133.137 M26.100 136.851 C 23.231 138.064,22.764 138.483,23.662 139.038 C 23.951 139.217,24.015 139.148,23.833 138.853 C 23.641 138.542,24.336 138.040,25.871 137.380 C 29.486 135.824,29.828 135.655,29.400 135.640 C 29.180 135.632,27.695 136.177,26.100 136.851 M85.279 136.835 C 84.355 137.514,83.600 138.155,83.600 138.259 C 83.600 138.364,84.410 137.868,85.400 137.157 C 87.019 135.995,87.444 135.600,87.079 135.600 C 87.012 135.600,86.202 136.156,85.279 136.835 M232.093 137.600 C 232.093 138.370,232.175 138.685,232.276 138.300 C 232.376 137.915,232.376 137.285,232.276 136.900 C 232.175 136.515,232.093 136.830,232.093 137.600 M24.626 139.630 C 24.915 140.277,27.963 142.995,28.132 142.756 C 28.192 142.670,27.371 141.804,26.307 140.830 C 25.242 139.857,24.486 139.317,24.626 139.630 M77.439 142.423 C 75.920 143.510,74.805 144.400,74.961 144.400 C 75.365 144.400,79.901 141.284,80.199 140.802 C 80.571 140.199,80.428 140.283,77.439 142.423 M229.400 142.668 C 228.520 143.457,228.160 143.916,228.600 143.688 C 229.341 143.304,231.551 141.179,231.170 141.217 C 231.076 141.226,230.280 141.879,229.400 142.668 M239.723 143.309 C 239.268 144.239,238.136 145.900,237.208 147.000 L 235.521 149.000 237.387 147.032 C 239.113 145.212,241.058 142.125,240.703 141.770 C 240.619 141.686,240.178 142.379,239.723 143.309 M29.200 143.714 C 29.200 143.821,32.575 147.030,36.700 150.845 C 40.825 154.659,44.332 157.965,44.494 158.190 C 44.684 158.455,44.790 158.430,44.794 158.120 C 44.797 157.856,44.542 157.496,44.227 157.319 C 43.912 157.143,42.337 155.738,40.727 154.197 C 36.203 149.866,29.200 143.498,29.200 143.714 M211.857 146.859 C 211.716 148.211,211.625 150.146,211.655 151.159 C 211.685 152.171,211.868 151.209,212.060 149.020 C 212.269 146.649,212.611 144.914,212.905 144.726 C 213.263 144.499,213.222 144.411,212.757 144.406 C 212.263 144.401,212.054 144.969,211.857 146.859 M76.373 146.128 C 77.128 146.931,77.821 147.513,77.913 147.421 C 78.200 147.133,77.625 146.471,76.288 145.552 L 75.000 144.667 76.373 146.128 M105.301 146.200 C 105.305 147.080,105.387 147.393,105.483 146.895 C 105.579 146.398,105.575 145.678,105.475 145.295 C 105.375 144.913,105.296 145.320,105.301 146.200 M214.200 145.181 C 214.968 145.529,217.110 145.756,216.767 145.453 C 216.675 145.372,215.880 145.196,215.000 145.062 C 213.885 144.893,213.642 144.929,214.200 145.181 M219.800 145.600 L 217.000 145.859 219.600 145.882 C 221.030 145.895,222.740 145.768,223.400 145.600 C 224.906 145.217,223.948 145.217,219.800 145.600 M83.800 153.200 C 86.212 155.620,88.276 157.600,88.386 157.600 C 88.496 157.600,86.612 155.620,84.200 153.200 C 81.788 150.780,79.724 148.800,79.614 148.800 C 79.504 148.800,81.388 150.780,83.800 153.200 M233.585 150.029 L 232.200 151.258 233.700 150.181 C 235.026 149.230,235.457 148.800,235.085 148.800 C 235.022 148.800,234.347 149.353,233.585 150.029 M224.575 153.560 C 225.001 153.727,225.585 154.479,225.871 155.232 L 226.393 156.600 226.149 155.200 C 225.828 153.355,225.709 153.195,224.676 153.228 C 223.860 153.254,223.853 153.277,224.575 153.560 M233.233 153.464 C 233.215 153.720,233.553 155.063,233.985 156.450 C 234.584 158.375,234.655 159.045,234.285 159.280 C 233.917 159.513,233.915 159.589,234.276 159.594 C 235.167 159.605,235.155 158.955,234.209 155.976 C 233.690 154.339,233.250 153.209,233.233 153.464 M217.491 153.889 C 218.201 153.977,219.461 153.979,220.291 153.892 C 221.121 153.805,220.540 153.733,219.000 153.731 C 217.460 153.729,216.781 153.800,217.491 153.889 M226.456 157.200 C 226.456 157.530,226.611 158.160,226.800 158.600 C 227.017 159.104,227.144 159.178,227.144 158.800 C 227.144 158.470,226.989 157.840,226.800 157.400 C 226.583 156.896,226.456 156.822,226.456 157.200 M47.200 160.600 C 48.395 161.810,49.463 162.800,49.573 162.800 C 49.683 162.800,48.795 161.810,47.600 160.600 C 46.405 159.390,45.337 158.400,45.227 158.400 C 45.117 158.400,46.005 159.390,47.200 160.600 M92.400 162.284 C 94.270 164.261,96.056 166.003,96.368 166.153 C 97.078 166.496,90.467 159.532,89.619 159.044 C 89.279 158.848,90.530 160.306,92.400 162.284 M118.975 160.040 C 118.825 160.283,119.123 160.868,119.637 161.340 L 120.570 162.200 119.846 161.325 C 119.448 160.844,119.240 160.259,119.384 160.025 C 119.529 159.791,119.557 159.600,119.447 159.600 C 119.337 159.600,119.125 159.798,118.975 160.040 M230.400 160.426 C 228.980 160.909,228.692 161.090,229.586 160.937 C 231.210 160.658,234.076 159.651,233.200 159.667 C 232.870 159.673,231.610 160.015,230.400 160.426 M285.027 161.559 C 284.601 161.726,284.423 161.967,284.632 162.096 C 284.840 162.225,285.458 162.082,286.005 161.779 C 287.052 161.200,286.349 161.041,285.027 161.559 M54.200 167.285 C 56.620 169.615,58.657 171.468,58.727 171.401 C 58.894 171.241,51.819 164.424,50.680 163.647 C 50.196 163.317,51.780 164.954,54.200 167.285 M276.141 165.227 C 272.706 167.027,272.508 167.529,275.900 165.837 C 277.495 165.041,278.800 164.302,278.800 164.195 C 278.800 163.866,278.560 163.959,276.141 165.227 M279.526 164.814 C 278.715 165.242,277.946 165.764,277.816 165.973 C 277.687 166.183,278.395 165.899,279.391 165.343 C 280.386 164.787,281.200 164.257,281.200 164.166 C 281.200 163.934,281.172 163.944,279.526 164.814 M99.022 169.225 C 99.890 170.229,100.681 170.988,100.780 170.912 C 100.880 170.835,100.170 170.014,99.203 169.086 L 97.444 167.400 99.022 169.225 M272.460 169.809 C 271.283 170.794,270.473 171.596,270.660 171.592 C 271.022 171.583,275.138 168.035,274.800 168.024 C 274.690 168.020,273.637 168.823,272.460 169.809 M268.629 169.808 C 267.544 170.558,266.374 171.465,266.029 171.824 C 265.683 172.183,266.615 171.636,268.100 170.608 C 269.585 169.579,270.800 168.662,270.800 168.569 C 270.800 168.313,270.744 168.345,268.629 169.808 M267.188 174.700 L 264.600 177.400 267.300 174.812 C 268.785 173.388,270.000 172.173,270.000 172.112 C 270.000 171.817,269.593 172.192,267.188 174.700 M103.127 173.900 C 103.783 174.725,104.826 175.850,105.444 176.400 C 106.062 176.950,105.612 176.275,104.444 174.900 C 102.140 172.187,101.189 171.465,103.127 173.900 M261.704 175.400 C 259.927 177.050,257.719 179.345,256.796 180.500 C 255.420 182.222,255.575 182.110,257.659 179.880 C 259.057 178.383,261.370 176.096,262.800 174.797 C 264.230 173.498,265.295 172.427,265.167 172.417 C 265.038 172.408,263.480 173.750,261.704 175.400 M308.670 172.805 C 308.929 173.138,309.214 174.128,309.303 175.005 L 309.466 176.600 309.533 174.949 C 309.580 173.793,309.390 173.133,308.900 172.749 C 308.289 172.270,308.260 172.277,308.670 172.805 M66.200 178.735 C 69.500 182.088,72.560 185.025,73.000 185.261 C 73.916 185.751,74.418 186.258,66.000 178.194 L 60.200 172.637 66.200 178.735 M302.500 173.476 C 302.885 173.576,303.515 173.576,303.900 173.476 C 304.285 173.375,303.970 173.293,303.200 173.293 C 302.430 173.293,302.115 173.375,302.500 173.476 M299.875 173.900 C 299.780 174.065,299.926 175.730,300.199 177.600 C 300.472 179.470,300.705 180.370,300.718 179.600 C 300.731 178.830,300.608 177.262,300.444 176.115 C 300.199 174.394,300.257 174.001,300.774 173.862 C 301.299 173.720,301.291 173.685,300.724 173.646 C 300.352 173.621,299.970 173.735,299.875 173.900 M309.701 178.200 C 309.705 179.080,309.787 179.393,309.883 178.895 C 309.979 178.398,309.975 177.678,309.875 177.295 C 309.775 176.913,309.696 177.320,309.701 178.200 M263.200 178.923 C 261.814 180.611,261.123 181.600,261.329 181.600 C 261.603 181.600,264.507 177.971,264.345 177.831 C 264.265 177.762,263.750 178.253,263.200 178.923 M108.750 180.341 C 109.644 181.408,110.692 182.533,111.080 182.841 C 111.468 183.148,110.816 182.275,109.632 180.900 C 108.449 179.525,107.400 178.400,107.303 178.400 C 107.205 178.400,107.857 179.273,108.750 180.341 M310.093 181.200 C 310.093 181.970,310.175 182.285,310.276 181.900 C 310.376 181.515,310.376 180.885,310.276 180.500 C 310.175 180.115,310.093 180.430,310.093 181.200 M300.901 182.600 C 300.905 183.480,300.987 183.793,301.083 183.295 C 301.179 182.798,301.175 182.078,301.075 181.695 C 300.975 181.313,300.896 181.720,300.901 182.600 M253.701 184.300 C 252.277 186.131,251.747 187.004,252.247 186.695 C 252.714 186.406,255.317 182.800,255.058 182.800 C 254.953 182.800,254.342 183.475,253.701 184.300 M310.719 183.656 C 310.874 183.797,312.980 184.008,315.400 184.124 C 317.820 184.239,320.250 184.444,320.800 184.578 L 321.800 184.823 320.800 184.367 C 319.746 183.886,310.237 183.216,310.719 183.656 M114.153 186.697 C 115.645 188.510,117.075 190.123,117.330 190.280 C 117.918 190.644,112.935 184.604,112.077 183.914 C 111.726 183.631,112.660 184.884,114.153 186.697 M258.714 185.100 C 257.519 186.908,256.312 189.200,256.556 189.200 C 256.652 189.200,257.161 188.435,257.686 187.500 C 258.211 186.565,258.967 185.305,259.366 184.700 C 259.765 184.095,260.005 183.600,259.899 183.600 C 259.793 183.600,259.260 184.275,258.714 185.100 M87.003 199.163 C 105.843 218.357,109.302 221.918,109.643 222.470 C 109.815 222.749,110.057 222.876,110.180 222.754 C 110.302 222.631,102.347 214.430,92.501 204.529 C 82.656 194.628,80.182 192.213,87.003 199.163 M295.950 187.602 C 293.996 188.634,290.376 192.003,289.443 193.658 C 288.571 195.204,288.805 194.992,291.160 192.103 C 292.100 190.950,293.934 189.349,295.235 188.546 C 296.536 187.743,297.600 187.022,297.600 186.943 C 297.600 186.737,297.546 186.758,295.950 187.602 M54.051 190.991 C 53.143 191.976,52.401 192.921,52.403 193.091 C 52.404 193.261,53.138 192.545,54.034 191.500 C 55.911 189.310,56.636 189.184,57.931 190.823 C 58.710 191.809,58.763 192.039,58.255 192.234 C 57.921 192.362,57.343 192.947,56.971 193.534 C 56.378 194.467,56.472 194.430,57.724 193.244 L 59.155 191.887 58.130 190.544 C 56.774 188.766,56.027 188.848,54.051 190.991 M248.979 191.500 C 248.376 192.545,247.842 193.452,247.792 193.516 C 247.742 193.580,246.417 193.341,244.848 192.984 C 243.279 192.627,241.780 192.407,241.517 192.494 C 241.254 192.582,242.551 192.957,244.399 193.328 C 246.246 193.698,247.879 193.866,248.026 193.701 C 248.542 193.121,250.474 189.600,250.276 189.600 C 250.166 189.600,249.583 190.455,248.979 191.500 M118.741 192.300 C 119.471 193.235,120.154 194.000,120.261 194.000 C 120.573 194.000,118.903 191.781,118.126 191.164 C 117.735 190.854,118.012 191.365,118.741 192.300 M235.606 191.900 C 235.610 192.332,235.725 192.431,235.906 192.160 C 236.068 191.918,236.470 191.617,236.800 191.492 C 237.201 191.339,237.101 191.253,236.500 191.232 C 235.895 191.210,235.602 191.430,235.606 191.900 M254.065 193.817 C 253.487 195.086,253.487 195.200,254.067 195.200 C 254.323 195.200,254.420 195.086,254.281 194.947 C 254.142 194.808,254.216 194.343,254.446 193.913 C 254.677 193.483,254.789 193.056,254.697 192.964 C 254.605 192.872,254.321 193.256,254.065 193.817 M323.788 194.471 C 323.629 195.202,323.297 195.949,323.050 196.130 C 322.751 196.350,322.796 196.408,323.182 196.303 C 323.745 196.150,324.634 193.700,324.261 193.328 C 324.159 193.226,323.946 193.741,323.788 194.471 M308.305 193.883 C 308.802 193.979,309.522 193.975,309.905 193.875 C 310.287 193.775,309.880 193.696,309.000 193.701 C 308.120 193.705,307.807 193.787,308.305 193.883 M313.505 193.883 C 314.002 193.979,314.722 193.975,315.105 193.875 C 315.487 193.775,315.080 193.696,314.200 193.701 C 313.320 193.705,313.007 193.787,313.505 193.883 M122.387 196.946 C 123.534 198.406,124.557 199.600,124.660 199.600 C 124.931 199.600,121.263 194.886,120.741 194.563 C 120.499 194.414,121.240 195.486,122.387 196.946 M301.337 196.309 C 300.068 197.325,298.397 199.985,298.418 200.956 C 298.429 201.499,298.633 201.245,298.989 200.246 C 299.294 199.392,300.222 197.997,301.053 197.146 C 302.651 195.510,302.769 195.162,301.337 196.309 M262.400 197.146 C 263.830 197.506,265.225 197.946,265.500 198.124 C 265.787 198.309,266.000 198.270,266.000 198.031 C 266.000 197.802,265.505 197.504,264.900 197.369 C 264.295 197.233,263.170 196.961,262.400 196.763 C 261.630 196.566,260.730 196.424,260.400 196.448 C 260.070 196.472,260.970 196.786,262.400 197.146 M258.969 205.300 C 251.849 213.133,250.336 214.891,253.016 212.214 C 255.574 209.660,265.335 198.800,265.073 198.800 C 264.965 198.800,262.219 201.725,258.969 205.300 M286.652 200.100 C 286.329 201.306,286.386 207.623,286.728 208.485 C 286.878 208.862,287.000 206.927,287.000 204.185 C 287.000 198.756,287.003 198.791,286.652 200.100 M66.084 202.005 C 65.361 203.322,64.852 204.400,64.955 204.400 C 65.057 204.400,65.714 203.398,66.415 202.174 C 67.276 200.668,67.875 200.020,68.265 200.170 C 68.586 200.293,68.733 200.216,68.597 199.995 C 68.066 199.136,67.343 199.714,66.084 202.005 M238.535 201.000 C 239.632 204.737,240.886 208.448,241.010 208.323 C 241.199 208.134,238.907 200.767,238.557 200.440 C 238.416 200.308,238.406 200.560,238.535 201.000 M55.536 201.404 C 55.953 202.264,57.021 203.292,58.000 203.774 C 58.330 203.936,58.170 203.719,57.644 203.291 C 57.118 202.862,56.341 202.082,55.917 201.556 C 55.332 200.830,55.240 200.794,55.536 201.404 M126.791 202.788 C 127.257 203.441,127.842 204.102,128.091 204.256 C 128.341 204.411,128.041 203.876,127.425 203.068 C 126.088 201.315,125.584 201.092,126.791 202.788 M82.185 205.100 C 79.846 209.176,79.518 209.816,80.189 209.000 C 80.550 208.560,81.421 207.156,82.123 205.881 C 83.071 204.159,83.580 203.608,84.101 203.743 C 84.486 203.844,84.700 203.762,84.577 203.563 C 84.075 202.751,83.217 203.303,82.185 205.100 M52.336 204.657 C 53.137 206.195,58.171 209.662,59.487 209.581 C 59.659 209.570,58.787 209.038,57.549 208.399 C 56.310 207.759,54.531 206.463,53.594 205.518 C 52.657 204.573,52.091 204.186,52.336 204.657 M64.058 205.482 C 63.734 206.061,63.518 206.091,62.620 205.682 C 61.174 205.023,60.774 205.099,62.000 205.800 C 63.368 206.582,63.898 206.538,64.400 205.600 C 64.919 204.630,64.598 204.518,64.058 205.482 M86.400 205.354 C 86.400 205.684,86.010 206.640,85.533 207.477 C 84.453 209.374,85.152 208.735,86.349 206.732 C 86.902 205.805,87.074 205.169,86.813 205.008 C 86.586 204.868,86.400 205.023,86.400 205.354 M67.614 206.374 C 66.967 207.583,67.105 207.934,68.500 208.609 C 69.598 209.141,69.682 209.145,69.043 208.634 C 68.627 208.301,68.089 207.963,67.848 207.883 C 67.537 207.779,67.551 207.426,67.896 206.668 C 68.455 205.442,68.235 205.213,67.614 206.374 M298.800 205.797 C 298.800 206.287,300.472 208.861,300.665 208.668 C 300.761 208.572,300.381 207.818,299.820 206.991 C 299.259 206.165,298.800 205.627,298.800 205.797 M132.399 210.352 C 133.360 211.722,134.327 212.955,134.547 213.091 C 134.768 213.227,134.162 212.218,133.201 210.848 C 132.240 209.478,131.273 208.245,131.053 208.109 C 130.832 207.973,131.438 208.982,132.399 210.352 M70.200 209.452 C 70.420 209.645,71.320 210.432,72.199 211.201 L 73.798 212.600 72.599 211.266 C 71.940 210.532,71.040 209.745,70.600 209.517 C 70.160 209.289,69.980 209.260,70.200 209.452 M60.503 210.034 C 61.069 210.363,61.123 210.614,60.781 211.321 C 60.374 212.163,60.381 212.168,60.971 211.433 C 61.615 210.630,61.202 209.587,60.251 209.612 C 60.003 209.619,60.116 209.808,60.503 210.034 M78.400 211.600 C 77.951 212.480,77.674 213.200,77.784 213.200 C 77.894 213.200,78.351 212.480,78.800 211.600 C 79.249 210.720,79.526 210.000,79.416 210.000 C 79.306 210.000,78.849 210.720,78.400 211.600 M303.816 210.826 C 304.044 211.196,309.967 213.368,310.171 213.157 C 310.254 213.071,308.818 212.445,306.979 211.767 C 305.140 211.089,303.717 210.665,303.816 210.826 M64.053 212.700 L 63.578 213.800 64.352 212.819 C 65.051 211.932,65.235 211.885,66.263 212.325 C 67.312 212.775,67.340 212.766,66.624 212.207 C 65.464 211.301,64.585 211.470,64.053 212.700 M81.160 214.900 C 80.239 216.495,79.410 217.935,79.319 218.100 C 79.228 218.265,79.236 218.400,79.338 218.400 C 79.440 218.400,80.015 217.545,80.615 216.500 C 81.215 215.455,82.056 214.015,82.485 213.300 C 82.914 212.585,83.169 212.000,83.050 212.000 C 82.932 212.000,82.082 213.305,81.160 214.900 M76.247 215.200 C 75.665 216.080,75.326 216.799,75.494 216.797 C 75.662 216.795,76.210 216.075,76.712 215.197 C 77.888 213.137,77.612 213.139,76.247 215.200 M289.116 214.200 C 289.349 214.640,290.493 215.900,291.658 217.000 L 293.776 219.000 291.408 216.400 C 290.106 214.970,288.962 213.710,288.866 213.600 C 288.770 213.490,288.882 213.760,289.116 214.200 M62.634 215.004 C 62.006 215.963,61.924 215.981,60.808 215.404 C 59.116 214.529,58.774 214.665,60.310 215.601 C 62.005 216.635,62.097 216.621,62.936 215.200 C 63.794 213.748,63.557 213.595,62.634 215.004 M242.950 214.615 C 243.080 214.953,243.478 216.258,243.835 217.515 C 244.659 220.414,245.252 221.116,246.034 220.120 C 246.544 219.471,246.534 219.452,245.936 219.919 C 245.135 220.545,245.133 220.541,244.044 216.900 C 243.567 215.305,243.073 214.000,242.946 214.000 C 242.818 214.000,242.821 214.277,242.950 214.615 M70.231 214.800 C 70.396 215.130,70.841 215.850,71.219 216.400 C 71.597 216.950,72.189 218.210,72.534 219.200 C 72.879 220.190,73.170 220.700,73.181 220.333 C 73.208 219.393,71.807 216.389,70.788 215.200 C 70.316 214.650,70.066 214.470,70.231 214.800 M317.600 215.523 C 319.250 216.157,321.410 217.072,322.400 217.556 C 323.390 218.040,323.858 218.164,323.441 217.831 C 322.507 217.086,317.435 214.952,315.800 214.616 C 315.140 214.481,315.950 214.888,317.600 215.523 M136.800 216.600 C 137.481 217.590,138.128 218.400,138.238 218.400 C 138.348 218.400,137.881 217.590,137.200 216.600 C 136.519 215.610,135.872 214.800,135.762 214.800 C 135.652 214.800,136.119 215.610,136.800 216.600 M248.420 216.979 L 246.640 219.000 248.601 217.114 C 249.679 216.077,250.480 215.167,250.381 215.093 C 250.281 215.019,249.399 215.867,248.420 216.979 M294.600 219.428 C 295.574 220.202,299.230 222.103,299.405 221.927 C 299.474 221.857,298.241 221.123,296.665 220.296 C 295.089 219.469,294.160 219.078,294.600 219.428 M325.600 219.274 C 325.930 219.604,327.190 220.751,328.400 221.823 L 330.600 223.773 329.000 222.053 C 328.120 221.107,326.860 219.960,326.200 219.504 C 325.540 219.048,325.270 218.945,325.600 219.274 M77.348 221.500 C 75.702 224.380,75.636 224.441,74.658 223.970 C 73.822 223.566,73.820 223.572,74.584 224.183 C 75.300 224.756,75.424 224.750,76.021 224.105 C 76.794 223.272,78.923 219.600,78.634 219.600 C 78.524 219.600,77.945 220.455,77.348 221.500 M369.583 222.700 L 367.800 224.600 369.624 222.891 C 370.628 221.951,371.573 221.306,371.724 221.458 C 371.876 221.609,372.000 221.523,372.000 221.267 C 372.000 220.415,371.385 220.780,369.583 222.700 M141.855 224.000 C 142.880 225.540,143.792 226.800,143.882 226.800 C 144.095 226.800,143.798 226.301,141.915 223.500 C 141.066 222.235,140.285 221.200,140.182 221.200 C 140.078 221.200,140.831 222.460,141.855 224.000 M372.121 222.938 C 372.235 223.235,372.897 225.322,373.593 227.576 C 374.288 229.831,374.953 231.580,375.070 231.463 C 375.313 231.221,372.445 222.400,372.124 222.400 C 372.009 222.400,372.007 222.642,372.121 222.938 M304.433 223.765 C 304.525 223.856,306.310 224.420,308.400 225.019 C 310.490 225.618,312.470 226.188,312.800 226.284 C 313.323 226.438,313.322 226.409,312.793 226.063 C 311.845 225.440,303.928 223.265,304.433 223.765 M111.600 224.390 C 111.600 224.547,111.985 225.019,112.455 225.438 C 113.666 226.518,130.195 244.508,135.106 250.092 C 137.364 252.659,139.434 254.887,139.706 255.042 C 140.258 255.357,140.254 255.352,132.796 247.000 C 122.325 235.273,111.600 223.833,111.600 224.390 M331.405 225.647 C 331.957 226.663,332.773 228.823,333.217 230.447 C 333.749 232.394,333.950 232.822,333.808 231.704 C 333.527 229.500,332.165 225.880,331.178 224.716 C 330.607 224.044,330.668 224.291,331.405 225.647 M361.571 231.500 C 358.208 235.185,354.913 238.785,354.250 239.500 C 353.586 240.215,353.153 240.800,353.286 240.800 C 353.420 240.800,356.797 237.200,360.790 232.800 C 364.783 228.400,367.968 224.800,367.868 224.800 C 367.767 224.800,364.934 227.815,361.571 231.500 M316.800 228.088 C 316.800 228.166,317.655 228.933,318.700 229.792 C 319.745 230.651,320.240 230.940,319.800 230.434 C 319.022 229.539,316.800 227.802,316.800 228.088 M145.661 230.023 C 146.162 230.915,146.828 231.858,147.140 232.117 C 147.453 232.376,147.128 231.645,146.420 230.494 C 144.901 228.026,144.344 227.680,145.661 230.023 M334.109 236.000 C 334.109 236.990,334.187 237.395,334.282 236.900 C 334.378 236.405,334.378 235.595,334.282 235.100 C 334.187 234.605,334.109 235.010,334.109 236.000 M322.059 236.600 C 322.020 237.260,321.896 238.250,321.783 238.800 L 321.577 239.800 322.008 238.814 C 322.244 238.272,322.368 237.282,322.283 236.614 L 322.128 235.400 322.059 236.600 M376.461 236.000 C 376.461 236.330,376.703 237.230,377.000 238.000 C 377.297 238.770,377.539 239.130,377.539 238.800 C 377.539 238.470,377.297 237.570,377.000 236.800 C 376.703 236.030,376.461 235.670,376.461 236.000 M149.703 236.200 C 150.058 237.023,152.920 241.600,153.080 241.600 C 153.330 241.600,151.107 237.730,150.265 236.699 C 149.861 236.205,149.608 235.980,149.703 236.200 M333.450 240.050 C 333.309 240.753,333.269 241.402,333.359 241.492 C 333.450 241.583,333.648 241.091,333.800 240.400 C 333.952 239.709,333.993 239.059,333.891 238.958 C 333.789 238.856,333.591 239.347,333.450 240.050 M377.819 240.500 C 379.227 245.139,380.489 248.844,380.618 248.715 C 380.826 248.507,378.031 239.600,377.758 239.600 C 377.641 239.600,377.669 240.005,377.819 240.500 M153.318 242.300 C 154.524 244.483,156.932 248.400,157.069 248.400 C 157.279 248.400,157.373 248.579,155.212 244.900 C 154.275 243.305,153.429 242.000,153.331 242.000 C 153.233 242.000,153.227 242.135,153.318 242.300 M332.429 243.312 C 332.181 244.063,331.437 245.560,330.776 246.639 C 329.990 247.921,329.875 248.254,330.445 247.600 C 331.446 246.452,333.381 242.448,333.081 242.148 C 332.970 242.037,332.677 242.561,332.429 243.312 M351.378 242.824 C 350.766 243.501,350.731 243.710,351.182 243.989 C 351.904 244.435,355.208 244.925,355.503 244.630 C 355.630 244.504,355.388 244.399,354.967 244.398 C 352.679 244.391,351.100 243.573,351.826 242.771 C 352.210 242.347,352.434 242.000,352.324 242.000 C 352.214 242.000,351.788 242.371,351.378 242.824 M318.400 243.855 C 316.070 245.685,315.955 245.827,317.400 245.089 C 318.418 244.569,320.878 242.359,320.370 242.421 C 320.276 242.432,319.390 243.077,318.400 243.855 M293.200 244.067 C 293.200 244.323,293.312 244.421,293.450 244.284 C 293.587 244.147,294.390 244.387,295.234 244.817 C 297.433 245.939,297.750 245.751,295.600 244.600 C 293.535 243.494,293.200 243.420,293.200 244.067 M306.300 247.489 C 307.015 247.578,308.185 247.578,308.900 247.489 C 309.615 247.401,309.030 247.328,307.600 247.328 C 306.170 247.328,305.585 247.401,306.300 247.489 M368.511 248.100 C 367.742 249.095,367.550 249.776,368.297 248.860 L 369.064 247.920 372.366 248.593 C 374.181 248.963,375.746 249.187,375.843 249.090 C 375.990 248.943,369.949 247.599,369.149 247.600 C 369.011 247.600,368.724 247.825,368.511 248.100 M157.800 250.000 C 158.141 250.660,158.511 251.200,158.621 251.200 C 158.731 251.200,158.541 250.660,158.200 250.000 C 157.859 249.340,157.489 248.800,157.379 248.800 C 157.269 248.800,157.459 249.340,157.800 250.000 M328.175 249.726 C 327.166 250.932,325.046 252.504,322.358 254.039 C 321.171 254.716,320.560 255.156,321.000 255.016 C 323.226 254.307,330.575 248.868,329.375 248.818 C 329.140 248.808,328.600 249.217,328.175 249.726 M377.200 249.600 C 377.750 249.776,378.560 249.920,379.000 249.920 C 379.633 249.920,379.592 249.854,378.800 249.600 C 378.250 249.424,377.440 249.280,377.000 249.280 C 376.367 249.280,376.408 249.346,377.200 249.600 M360.000 252.000 C 358.743 254.489,358.646 255.389,359.881 253.100 C 360.885 251.238,361.590 249.600,361.386 249.600 C 361.290 249.600,360.666 250.680,360.000 252.000 M365.041 253.700 C 363.968 255.358,363.643 256.050,364.282 255.316 C 365.361 254.077,367.384 250.800,367.071 250.800 C 366.986 250.800,366.073 252.105,365.041 253.700 M291.247 253.036 C 291.211 253.996,291.427 254.375,292.219 254.736 C 293.621 255.375,294.023 255.295,292.800 254.620 C 292.250 254.316,291.686 253.558,291.547 252.934 L 291.295 251.800 291.247 253.036 M159.206 252.450 C 159.197 252.805,161.233 256.400,161.442 256.400 C 161.538 256.400,161.260 255.725,160.824 254.900 C 159.878 253.111,159.215 252.106,159.206 252.450 M218.914 255.800 C 218.917 256.900,218.995 257.303,219.087 256.695 C 219.179 256.086,219.177 255.186,219.082 254.695 C 218.987 254.203,218.911 254.700,218.914 255.800 M318.858 255.555 C 318.421 255.833,318.398 256.390,318.741 258.449 L 319.165 261.000 318.990 258.516 C 318.846 256.463,318.936 255.961,319.508 255.628 C 319.888 255.406,320.020 255.222,319.800 255.218 C 319.580 255.215,319.156 255.367,318.858 255.555 M142.476 258.400 C 143.890 260.050,146.809 263.515,148.964 266.100 C 151.118 268.685,152.981 270.800,153.102 270.800 C 153.224 270.800,153.053 270.485,152.722 270.100 C 152.390 269.715,150.228 267.150,147.916 264.400 C 145.604 261.650,142.856 258.500,141.809 257.400 C 140.757 256.295,141.056 256.743,142.476 258.400 M300.600 257.237 C 301.480 257.411,303.757 257.564,305.660 257.577 L 309.121 257.600 309.620 261.808 C 309.894 264.122,310.203 265.930,310.306 265.827 C 310.676 265.458,309.495 257.535,309.051 257.401 C 308.803 257.326,306.440 257.187,303.800 257.092 C 300.839 256.986,299.613 257.042,300.600 257.237 M355.991 258.700 C 354.933 260.311,354.902 260.418,355.791 259.400 C 356.924 258.103,357.747 256.800,357.433 256.800 C 357.326 256.800,356.677 257.655,355.991 258.700 M361.487 258.623 C 359.015 261.796,354.448 266.381,351.439 268.712 C 350.800 269.207,350.357 269.690,350.453 269.787 C 350.941 270.275,360.133 261.184,362.470 257.901 C 363.737 256.122,363.032 256.639,361.487 258.623 M110.600 259.200 C 111.459 260.080,112.252 260.800,112.362 260.800 C 112.472 260.800,111.859 260.080,111.000 259.200 C 110.141 258.320,109.348 257.600,109.238 257.600 C 109.128 257.600,109.741 258.320,110.600 259.200 M164.000 261.600 C 164.885 263.360,165.699 264.800,165.809 264.800 C 165.919 264.800,165.285 263.360,164.400 261.600 C 163.515 259.840,162.701 258.400,162.591 258.400 C 162.481 258.400,163.115 259.840,164.000 261.600 M219.331 263.000 C 219.333 264.540,219.405 265.121,219.492 264.291 C 219.579 263.461,219.577 262.201,219.489 261.491 C 219.400 260.781,219.329 261.460,219.331 263.000 M319.293 262.400 C 319.293 263.170,319.375 263.485,319.476 263.100 C 319.576 262.715,319.576 262.085,319.476 261.700 C 319.375 261.315,319.293 261.630,319.293 262.400 M115.183 263.300 C 116.841 265.066,117.200 265.384,117.200 265.083 C 117.200 265.019,116.345 264.164,115.300 263.183 L 113.400 261.400 115.183 263.300 M348.800 266.923 C 346.490 269.186,343.880 271.629,343.000 272.353 C 341.858 273.292,341.770 273.424,342.692 272.813 C 343.823 272.064,349.099 267.413,350.200 266.195 C 350.420 265.952,351.220 265.088,351.978 264.276 C 354.568 261.503,353.005 262.805,348.800 266.923 M319.693 265.600 C 319.693 266.370,319.775 266.685,319.876 266.300 C 319.976 265.915,319.976 265.285,319.876 264.900 C 319.775 264.515,319.693 264.830,319.693 265.600 M318.100 267.876 C 318.485 267.976,319.115 267.976,319.500 267.876 C 319.885 267.775,319.570 267.693,318.800 267.693 C 318.030 267.693,317.715 267.775,318.100 267.876 M315.105 268.283 C 315.602 268.379,316.322 268.375,316.705 268.275 C 317.087 268.175,316.680 268.096,315.800 268.101 C 314.920 268.105,314.607 268.187,315.105 268.283 M311.700 268.676 C 312.085 268.776,312.715 268.776,313.100 268.676 C 313.485 268.575,313.170 268.493,312.400 268.493 C 311.630 268.493,311.315 268.575,311.700 268.676 M219.759 274.800 C 219.759 277.990,219.821 279.295,219.897 277.700 C 219.973 276.105,219.973 273.495,219.897 271.900 C 219.821 270.305,219.759 271.610,219.759 274.800 M168.839 271.000 C 168.839 271.220,169.451 272.570,170.200 274.000 C 170.949 275.430,171.561 276.420,171.561 276.200 C 171.561 275.980,170.949 274.630,170.200 273.200 C 169.451 271.770,168.839 270.780,168.839 271.000 M346.687 272.168 C 344.326 273.802,343.764 274.375,345.506 273.372 C 346.850 272.599,349.156 270.823,348.800 270.836 C 348.690 270.841,347.739 271.440,346.687 272.168 M157.642 276.800 C 160.081 279.880,162.171 282.400,162.287 282.400 C 162.541 282.400,162.716 282.630,157.650 276.300 C 155.405 273.495,153.487 271.200,153.388 271.200 C 153.289 271.200,155.203 273.720,157.642 276.800 M337.111 276.160 C 334.971 277.432,334.711 277.844,336.673 276.855 C 337.593 276.391,338.459 275.829,338.596 275.606 C 338.914 275.093,338.898 275.099,337.111 276.160 M338.200 276.994 C 336.660 277.730,335.539 278.348,335.709 278.367 C 336.167 278.416,341.200 276.087,341.200 275.825 C 341.200 275.537,341.441 275.443,338.200 276.994 M330.600 279.687 L 329.000 280.453 330.400 280.218 C 331.170 280.088,331.857 279.816,331.926 279.613 C 331.995 279.411,332.310 279.344,332.626 279.465 C 332.942 279.586,333.200 279.596,333.200 279.486 C 333.200 278.916,332.021 279.007,330.600 279.687 M172.826 279.296 C 172.786 279.747,175.294 285.240,175.462 285.071 C 175.543 284.990,174.989 283.591,174.231 281.962 C 173.472 280.333,172.840 279.133,172.826 279.296 M166.059 287.700 C 168.069 290.395,171.051 294.535,172.687 296.900 C 174.322 299.265,175.750 301.200,175.860 301.200 C 175.970 301.200,174.664 299.175,172.957 296.700 C 169.477 291.652,162.874 282.800,162.590 282.800 C 162.487 282.800,164.048 285.005,166.059 287.700 M84.300 286.027 C 82.748 286.847,82.272 287.373,83.500 286.913 C 84.135 286.674,84.145 286.720,83.600 287.409 C 83.223 287.885,83.630 287.727,84.691 286.984 C 87.237 285.202,86.993 284.606,84.300 286.027 M80.351 290.037 L 78.600 291.675 80.294 290.408 C 81.864 289.235,82.687 288.400,82.275 288.400 C 82.180 288.400,81.315 289.137,80.351 290.037 M76.300 290.424 C 74.815 291.315,73.600 292.128,73.600 292.230 C 73.600 292.439,76.937 290.567,78.431 289.521 C 80.182 288.294,79.051 288.774,76.300 290.424 M177.355 289.800 C 178.193 292.176,180.171 296.762,180.301 296.632 C 180.468 296.466,177.662 289.521,177.299 289.200 C 177.174 289.090,177.200 289.360,177.355 289.800 M219.750 293.400 C 219.751 295.820,219.816 296.758,219.896 295.485 C 219.976 294.212,219.975 292.232,219.894 291.085 C 219.814 289.938,219.749 290.980,219.750 293.400 M73.205 296.300 C 68.828 300.439,62.897 306.816,61.173 309.237 C 59.527 311.549,60.743 310.318,64.010 306.364 C 65.844 304.145,69.781 300.005,72.759 297.164 C 75.737 294.324,78.078 292.000,77.963 292.000 C 77.847 292.000,75.706 293.935,73.205 296.300 M70.900 293.646 C 69.537 294.519,69.095 295.106,70.300 294.443 C 71.218 293.939,72.656 292.827,72.400 292.819 C 72.290 292.816,71.615 293.188,70.900 293.646 M66.900 296.217 C 65.745 296.974,64.800 297.677,64.800 297.780 C 64.800 298.033,68.791 295.539,69.045 295.127 C 69.348 294.637,69.181 294.722,66.900 296.217 M61.585 300.029 L 60.200 301.258 61.700 300.181 C 63.026 299.230,63.457 298.800,63.085 298.800 C 63.022 298.800,62.347 299.353,61.585 300.029 M398.300 300.629 C 396.749 301.470,396.925 301.761,398.500 300.959 C 400.008 300.193,400.275 299.994,399.767 300.016 C 399.565 300.025,398.905 300.301,398.300 300.629 M55.400 304.650 C 49.848 309.206,45.486 313.374,42.849 316.640 L 40.297 319.800 43.023 316.800 C 46.838 312.601,50.362 309.264,54.900 305.551 C 58.256 302.806,59.169 301.956,58.700 302.012 C 58.645 302.019,57.160 303.206,55.400 304.650 M182.400 302.512 C 182.400 303.035,184.899 309.634,185.043 309.490 C 185.126 309.407,184.642 307.823,183.966 305.971 C 182.823 302.841,182.400 301.906,182.400 302.512 M177.279 303.700 C 179.756 307.603,180.554 308.800,180.681 308.800 C 180.908 308.800,180.012 307.215,178.478 304.900 C 177.144 302.887,176.100 301.842,177.279 303.700 M389.700 304.602 C 388.105 305.345,386.800 306.049,386.800 306.166 C 386.800 306.374,392.777 303.756,393.147 303.386 C 393.612 302.921,392.369 303.360,389.700 304.602 M219.328 306.000 C 219.328 307.430,219.401 308.015,219.489 307.300 C 219.578 306.585,219.578 305.415,219.489 304.700 C 219.401 303.985,219.328 304.570,219.328 306.000 M379.687 309.067 C 377.865 309.859,376.440 310.574,376.521 310.654 C 376.686 310.819,382.657 308.277,383.067 307.866 C 383.499 307.435,383.168 307.552,379.687 309.067 M181.400 310.400 C 181.741 311.060,182.111 311.600,182.221 311.600 C 182.331 311.600,182.141 311.060,181.800 310.400 C 181.459 309.740,181.089 309.200,180.979 309.200 C 180.869 309.200,181.059 309.740,181.400 310.400 M218.914 313.000 C 218.917 314.100,218.995 314.503,219.087 313.895 C 219.179 313.286,219.177 312.386,219.082 311.895 C 218.987 311.403,218.911 311.900,218.914 313.000 M185.718 318.429 C 187.523 322.074,189.079 324.995,189.175 324.920 C 189.389 324.752,183.901 313.719,183.047 312.600 C 182.711 312.160,183.913 314.783,185.718 318.429 M57.877 313.900 C 56.493 316.125,56.232 316.721,57.123 315.626 C 58.145 314.369,59.308 312.400,59.028 312.400 C 58.908 312.400,58.390 313.075,57.877 313.900 M367.482 314.268 C 365.548 315.055,364.032 315.766,364.115 315.849 C 364.300 316.034,370.451 313.603,370.980 313.136 C 371.546 312.636,371.311 312.712,367.482 314.268 M186.517 314.529 C 186.629 314.819,187.216 316.711,187.823 318.732 C 188.430 320.754,189.001 322.333,189.092 322.242 C 189.313 322.021,186.829 314.000,186.540 314.000 C 186.416 314.000,186.406 314.238,186.517 314.529 M357.475 318.276 C 355.536 319.050,354.017 319.751,354.100 319.833 C 354.257 319.990,361.182 317.351,361.532 317.001 C 361.955 316.579,360.881 316.916,357.475 318.276 M53.947 321.018 C 53.066 322.897,52.418 324.652,52.507 324.918 C 52.596 325.183,52.903 324.680,53.190 323.800 C 53.476 322.920,54.228 321.165,54.861 319.900 C 55.494 318.635,55.907 317.600,55.780 317.600 C 55.652 317.600,54.827 319.138,53.947 321.018 M39.079 321.300 C 37.955 322.820,37.490 323.600,37.709 323.600 C 37.794 323.600,38.446 322.790,39.157 321.800 C 39.868 320.810,40.358 320.000,40.245 320.000 C 40.133 320.000,39.608 320.585,39.079 321.300 M345.689 322.881 C 343.868 323.558,342.449 324.182,342.534 324.268 C 342.733 324.466,348.473 322.393,348.980 321.940 C 349.506 321.470,349.420 321.494,345.689 322.881 M34.529 329.015 C 33.741 330.673,33.165 332.098,33.248 332.181 C 33.332 332.264,34.061 330.908,34.870 329.166 C 35.678 327.425,36.254 326.000,36.150 326.000 C 36.046 326.000,35.316 327.357,34.529 329.015 M333.689 327.281 C 331.868 327.958,330.449 328.582,330.535 328.668 C 330.715 328.848,337.600 326.406,337.600 326.162 C 337.600 325.874,337.057 326.029,333.689 327.281 M190.030 327.900 C 190.047 328.065,190.303 328.830,190.600 329.600 C 191.163 331.062,191.418 330.255,190.948 328.500 C 190.730 327.685,189.957 327.180,190.030 327.900 M320.468 331.883 C 318.856 332.426,317.612 332.946,317.705 333.038 C 317.907 333.240,322.536 331.795,323.513 331.225 C 324.567 330.610,323.681 330.802,320.468 331.883 M396.800 334.000 C 393.916 335.524,394.443 335.524,397.664 334.000 C 399.059 333.340,399.930 332.809,399.600 332.819 C 399.270 332.829,398.010 333.361,396.800 334.000 M390.200 337.005 C 388.220 337.961,386.780 338.747,387.000 338.751 C 387.220 338.755,389.020 337.974,391.000 337.015 C 392.980 336.055,394.420 335.270,394.200 335.269 C 393.980 335.268,392.180 336.049,390.200 337.005 M305.200 337.000 C 303.770 337.516,302.790 337.952,303.022 337.969 C 303.254 337.986,304.694 337.563,306.222 337.030 C 307.750 336.496,308.730 336.060,308.400 336.061 C 308.070 336.062,306.630 336.484,305.200 337.000 M379.814 341.459 C 376.559 342.869,375.410 343.543,377.200 342.992 C 378.577 342.568,383.894 340.064,383.400 340.072 C 383.180 340.076,381.566 340.700,379.814 341.459 M52.400 340.647 C 52.400 342.275,58.153 349.139,61.200 351.146 C 62.459 351.976,62.439 351.936,61.000 350.755 C 58.291 348.532,55.347 345.200,53.839 342.651 C 53.048 341.313,52.400 340.411,52.400 340.647 M291.000 341.393 C 289.460 341.901,288.380 342.335,288.600 342.356 C 288.820 342.378,290.350 341.964,292.000 341.437 C 293.650 340.910,294.730 340.477,294.400 340.475 C 294.070 340.472,292.540 340.885,291.000 341.393 M31.293 342.400 C 31.293 343.170,31.375 343.485,31.476 343.100 C 31.576 342.715,31.576 342.085,31.476 341.700 C 31.375 341.315,31.293 341.630,31.293 342.400 M214.400 342.576 C 214.400 343.113,214.547 343.644,214.728 343.755 C 214.908 343.867,214.977 343.427,214.882 342.779 C 214.672 341.349,214.400 341.235,214.400 342.576 M276.000 345.664 C 271.516 346.918,270.357 347.290,270.496 347.429 C 270.658 347.592,278.076 345.642,278.367 345.361 C 278.638 345.099,277.501 345.244,276.000 345.664 M366.296 346.887 C 364.589 347.568,363.264 348.198,363.352 348.285 C 363.537 348.470,370.000 346.026,370.000 345.771 C 370.000 345.463,369.439 345.632,366.296 346.887 M354.689 351.300 C 352.319 352.187,350.449 352.983,350.535 353.069 C 350.712 353.246,358.060 350.638,359.113 350.025 C 360.378 349.287,359.033 349.675,354.689 351.300 M256.070 350.879 C 254.239 351.316,252.817 351.750,252.910 351.844 C 253.109 352.042,260.400 350.407,260.400 350.164 C 260.400 349.904,259.624 350.032,256.070 350.879 M32.832 351.170 C 32.795 351.834,35.539 357.515,36.048 357.829 C 36.237 357.946,35.693 356.638,34.839 354.921 C 33.985 353.204,33.192 351.530,33.075 351.200 C 32.903 350.713,32.857 350.707,32.832 351.170 M66.800 354.622 C 66.800 354.738,67.987 355.366,69.437 356.017 C 72.061 357.194,73.252 357.555,71.882 356.758 C 70.557 355.987,66.800 354.408,66.800 354.622 M240.600 354.603 C 240.380 354.681,238.260 355.141,235.888 355.627 C 233.516 356.112,231.659 356.592,231.761 356.694 C 231.993 356.927,240.390 355.202,241.200 354.755 C 241.789 354.430,241.386 354.328,240.600 354.603 M342.275 355.673 C 340.336 356.339,338.820 356.954,338.906 357.040 C 339.076 357.209,345.994 354.939,346.329 354.604 C 346.711 354.223,345.806 354.461,342.275 355.673 M329.400 360.000 C 326.980 360.845,325.186 361.551,325.413 361.569 C 325.641 361.586,327.891 360.894,330.413 360.031 C 332.936 359.167,334.730 358.461,334.400 358.462 C 334.070 358.462,331.820 359.155,329.400 360.000 M77.200 358.944 C 77.200 359.071,78.775 359.643,80.700 360.217 C 85.554 361.663,85.832 361.733,85.560 361.443 C 85.428 361.302,83.777 360.740,81.891 360.193 C 80.005 359.646,78.178 359.090,77.831 358.956 C 77.484 358.823,77.200 358.818,77.200 358.944 M214.800 359.789 C 213.370 360.072,210.883 360.523,209.274 360.792 C 207.665 361.061,206.430 361.363,206.530 361.464 C 206.723 361.656,218.880 359.631,219.167 359.358 C 219.472 359.068,217.429 359.269,214.800 359.789 M38.024 360.800 C 39.161 362.552,46.121 369.484,48.000 370.736 C 48.906 371.340,48.694 371.063,47.400 369.952 C 44.824 367.741,40.575 363.498,38.635 361.200 C 37.442 359.787,37.311 359.701,38.024 360.800 M317.800 363.600 C 317.296 363.817,317.222 363.944,317.600 363.944 C 317.930 363.944,318.560 363.789,319.000 363.600 C 319.504 363.383,319.578 363.256,319.200 363.256 C 318.870 363.256,318.240 363.411,317.800 363.600 M180.600 364.843 C 175.540 365.460,172.930 365.875,174.800 365.765 C 178.831 365.528,191.275 364.059,191.545 363.788 C 191.829 363.504,190.599 363.622,180.600 364.843 M98.443 364.173 C 98.746 364.480,109.033 366.012,110.400 365.953 C 111.254 365.916,108.277 365.412,100.000 364.191 C 99.010 364.045,98.310 364.037,98.443 364.173 M312.690 365.087 C 310.760 365.652,309.255 366.188,309.346 366.279 C 309.530 366.463,316.399 364.534,316.727 364.207 C 317.074 363.859,316.341 364.019,312.690 365.087 M168.300 366.282 C 168.795 366.378,169.605 366.378,170.100 366.282 C 170.595 366.187,170.190 366.109,169.200 366.109 C 168.210 366.109,167.805 366.187,168.300 366.282 M116.500 366.676 C 116.885 366.776,117.515 366.776,117.900 366.676 C 118.285 366.575,117.970 366.493,117.200 366.493 C 116.430 366.493,116.115 366.575,116.500 366.676 M163.900 366.682 C 164.395 366.778,165.205 366.778,165.700 366.682 C 166.195 366.587,165.790 366.509,164.800 366.509 C 163.810 366.509,163.405 366.587,163.900 366.682 M121.705 367.087 C 122.314 367.179,123.214 367.177,123.705 367.082 C 124.197 366.987,123.700 366.911,122.600 366.914 C 121.500 366.917,121.097 366.995,121.705 367.087 M157.305 367.087 C 157.914 367.179,158.814 367.177,159.305 367.082 C 159.797 366.987,159.300 366.911,158.200 366.914 C 157.100 366.917,156.697 366.995,157.305 367.087 M130.900 367.496 C 132.165 367.575,134.235 367.575,135.500 367.496 C 136.765 367.416,135.730 367.351,133.200 367.351 C 130.670 367.351,129.635 367.416,130.900 367.496 M143.900 367.496 C 145.275 367.574,147.525 367.574,148.900 367.496 C 150.275 367.418,149.150 367.354,146.400 367.354 C 143.650 367.354,142.525 367.418,143.900 367.496 M296.097 369.705 C 293.620 370.377,291.669 371.002,291.762 371.095 C 291.937 371.270,301.268 368.865,301.565 368.568 C 301.915 368.218,300.460 368.521,296.097 369.705 M51.800 373.513 C 52.542 374.244,56.875 376.864,56.375 376.280 C 56.252 376.135,54.992 375.276,53.575 374.371 C 52.159 373.466,51.360 373.080,51.800 373.513 M277.000 374.592 C 273.260 375.536,270.411 376.330,270.669 376.355 C 271.254 376.411,284.486 373.247,284.745 372.989 C 285.127 372.606,283.648 372.912,277.000 374.592 M56.800 376.657 C 56.800 376.934,66.013 381.321,66.200 381.133 C 66.287 381.046,64.208 379.961,61.579 378.721 C 58.951 377.481,56.800 376.552,56.800 376.657 M258.600 378.653 C 256.180 379.177,253.241 379.800,252.068 380.038 C 250.896 380.275,250.014 380.547,250.108 380.642 C 250.297 380.830,264.075 378.058,264.358 377.775 C 264.690 377.444,262.989 377.703,258.600 378.653 M70.035 382.552 C 70.345 382.883,76.016 384.809,76.570 384.770 C 76.807 384.754,75.800 384.321,74.334 383.808 C 70.650 382.519,69.762 382.260,70.035 382.552 M231.800 383.811 C 228.940 384.329,226.240 384.777,225.800 384.808 C 225.360 384.838,225.202 384.946,225.449 385.048 C 225.912 385.239,238.041 383.293,238.356 382.977 C 238.680 382.653,237.050 382.861,231.800 383.811 M211.700 387.076 C 212.085 387.176,212.715 387.176,213.100 387.076 C 213.485 386.975,213.170 386.893,212.400 386.893 C 211.630 386.893,211.315 386.975,211.700 387.076 M86.800 387.306 C 87.093 387.616,95.035 389.143,97.600 389.383 C 99.486 389.559,97.708 389.183,88.200 387.395 C 87.320 387.229,86.690 387.189,86.800 387.306 M201.800 388.203 C 198.060 388.696,195.540 389.121,196.200 389.149 C 197.421 389.199,209.870 387.704,210.600 387.419 C 211.508 387.065,208.202 387.359,201.800 388.203 M192.300 389.482 C 192.795 389.578,193.605 389.578,194.100 389.482 C 194.595 389.387,194.190 389.309,193.200 389.309 C 192.210 389.309,191.805 389.387,192.300 389.482 M100.705 389.883 C 101.202 389.979,101.922 389.975,102.305 389.875 C 102.687 389.775,102.280 389.696,101.400 389.701 C 100.520 389.705,100.207 389.787,100.705 389.883 M188.700 389.882 C 189.195 389.978,190.005 389.978,190.500 389.882 C 190.995 389.787,190.590 389.709,189.600 389.709 C 188.610 389.709,188.205 389.787,188.700 389.882 M184.705 390.283 C 185.202 390.379,185.922 390.375,186.305 390.275 C 186.687 390.175,186.280 390.096,185.400 390.101 C 184.520 390.105,184.207 390.187,184.705 390.283 M106.900 390.676 C 107.285 390.776,107.915 390.776,108.300 390.676 C 108.685 390.575,108.370 390.493,107.600 390.493 C 106.830 390.493,106.515 390.575,106.900 390.676 M179.705 390.687 C 180.314 390.779,181.214 390.777,181.705 390.682 C 182.197 390.587,181.700 390.511,180.600 390.514 C 179.500 390.517,179.097 390.595,179.705 390.687 M110.700 391.082 C 111.195 391.178,112.005 391.178,112.500 391.082 C 112.995 390.987,112.590 390.909,111.600 390.909 C 110.610 390.909,110.205 390.987,110.700 391.082 M175.100 391.082 C 175.595 391.178,176.405 391.178,176.900 391.082 C 177.395 390.987,176.990 390.909,176.000 390.909 C 175.010 390.909,174.605 390.987,175.100 391.082 M115.300 391.487 C 115.905 391.578,116.895 391.578,117.500 391.487 C 118.105 391.395,117.610 391.320,116.400 391.320 C 115.190 391.320,114.695 391.395,115.300 391.487 M168.500 391.487 C 169.105 391.578,170.095 391.578,170.700 391.487 C 171.305 391.395,170.810 391.320,169.600 391.320 C 168.390 391.320,167.895 391.395,168.500 391.487 M121.111 391.893 C 122.051 391.978,123.491 391.977,124.311 391.891 C 125.130 391.805,124.360 391.736,122.600 391.737 C 120.840 391.739,120.170 391.809,121.111 391.893 M160.700 391.893 C 161.635 391.977,163.165 391.977,164.100 391.893 C 165.035 391.809,164.270 391.740,162.400 391.740 C 160.530 391.740,159.765 391.809,160.700 391.893 M134.473 392.299 C 138.804 392.364,146.004 392.364,150.473 392.300 C 154.943 392.235,151.400 392.182,142.600 392.182 C 133.800 392.182,130.143 392.235,134.473 392.299 " stroke="none" fill="#d09898" fill-rule="evenodd"></path></g></svg>