<?xml version="1.0" encoding="UTF-8"?>
<!-- Generator: Adobe Illustrator 19.1.0, SVG Export Plug-In . SVG Version: 6.00 Build 0)  -->
<svg version="1.1" xmlns="http://www.w3.org/2000/svg" xmlns:xlink="http://www.w3.org/1999/xlink" x="0px" y="0px" width="172.7px" height="50.4px" viewBox="0 0 172.7 50.4" enable-background="new 0 0 172.7 50.4" xml:space="preserve">
<symbol id="New_Symbol_20" viewBox="-14.4 -14.9 28.9 29.9">
	<polygon fill="#BFE7F2" points="14.4,-14.9 -14.4,-14.9 -14.4,14.9 14.4,14.9  "/>
	<polygon fill="#96FFB4" points="12.3,-8.7 -12.3,-8.7 -12.3,12 12.3,12  "/>
	<path fill="#91CCFF" d="M11.2,2.9c0-4-3.2-7.2-7.2-7.2s-7.2,3.2-7.2,7.2S0.1,10,4,10S11.2,6.8,11.2,2.9z"/>
	<polygon fill="#BFE7F2" points="-3.7,-3.6 -7.5,0.2 -3.7,4 0.1,0.2  "/>
</symbol>
<symbol id="New_Symbol_33" viewBox="-14.4 -14.9 28.9 29.9">
	<polygon fill="#BFE7F2" points="14.4,-14.9 -14.4,-14.9 -14.4,14.9 14.4,14.9  "/>
	<polygon fill="#96FFB4" points="12.3,-8.7 -12.3,-8.7 -12.3,12 12.3,12  "/>
	<polygon fill="#91CCFF" points="9.4,-0.4 0.1,-0.4 4.8,7.4  "/>
	<path fill="none" stroke="#91CCFF" stroke-miterlimit="10" d="M5.2-0.1c0-3.5-2.9-6.4-6.4-6.4s-6.4,2.9-6.4,6.4s2.9,6.4,6.4,6.4   S5.2,3.4,5.2-0.1z"/>
	<polygon opacity="0.1" points="14.4,-14.9 -14.4,-14.9 -14.4,14.9 14.4,14.9  "/>
</symbol>
<symbol id="New_Symbol_9" viewBox="-135.8 -101.9 275.6 199.8">
	<path fill="#202020" d="M139.8-101.9h-270.9l-4.1,4.6l1.4,193.2l268.9,1.4l4.7-4.9V-101.9z M-128.8-95h261.7V91h-261.7V-95z"/>
	<path opacity="0.54" fill="#202020" d="M139.8-101.9L-133.8,95.9l268.9,1.4l4.7-4.9V-101.9z M-128.8-95h261.7V91h-261.7V-95z"/>
	<path fill="#B3FFFF" d="M135.8-97.9h-271.6V97.9h271.6V-97.9z M-130.8-93h261.7V93h-261.7V-93z"/>
	<g>
		<g>
			<polygon fill="#1C6FEB" points="135.1,-4.7 -58.6,-4.7 -58.6,97.3 135.1,97.3    "/>
			<polygon fill="#00B0FF" points="31,-97.3 135.1,-97.3 135.1,-4.7 31,-4.7    "/>
			<polygon fill="#00FFFF" points="63.4,-62.7 42.6,-62.7 53,-44.3    "/>
			<polygon fill="#00FFFF" points="96.6,-62.7 75.9,-62.7 86.3,-44.3    "/>
			<polygon fill="#00FFFF" points="129.9,-62.7 109.1,-62.7 119.5,-44.3    "/>
			<polygon fill="#00FFFF" points="114.5,-34.1 93.8,-34.1 104.2,-52.5    "/>
			<polygon fill="#00FFFF" points="81.3,-34.1 60.6,-34.1 70.9,-52.5    "/>
			<path fill="#00B0FF" d="M105.3,46.3c0-13-10.8-23.6-24.2-23.6S57,33.2,57,46.3s10.8,23.6,24.2,23.6S105.3,59.3,105.3,46.3z"/>
			<polygon fill="#00FFFF" points="135.1,-4.7 79.7,-4.7 79.7,46.2 135.1,46.2    "/>
			<polygon fill="#00FFFF" points="-41.1,-97.3 -103.7,-97.3 -103.7,-46.8 -41.1,-46.8    "/>
			<polygon fill="#00FFFF" points="31,-97.3 -58.6,-97.3 -58.6,35.5 31,35.5    "/>
			<line fill="none" stroke="#00B0FF" stroke-width="4" stroke-miterlimit="10" x1="-52.1" y1="14.9" x2="-52.1" y2="-54.8"/>
			<line fill="none" stroke="#00B0FF" stroke-width="4" stroke-miterlimit="10" x1="-43.3" y1="33.3" x2="-43.3" y2="-76.7"/>
			<line fill="none" stroke="#00B0FF" stroke-width="4" stroke-miterlimit="10" x1="-23.5" y1="-24.4" x2="-23.5" y2="-97.3"/>
			<line fill="none" stroke="#00B0FF" stroke-width="4" stroke-miterlimit="10" x1="-23.5" y1="47" x2="-23.5" y2="-2.4"/>
			<line fill="none" stroke="#00B0FF" stroke-width="4" stroke-miterlimit="10" x1="-34.5" y1="-3" x2="-34.5" y2="-97.3"/>
			<polygon fill="#1C6FEB" points="31.8,-97.3 -13.2,-97.3 -13.2,-45.3 31.8,-45.3    "/>
			<polygon fill="#00FFFF" points="31.8,-45 -13.2,-45 -13.2,55.3 31.8,55.3    "/>
			<polygon fill="#00FFFF" points="-135.1,73.3 -13.6,73.3 -13.6,97.3 -135.1,97.3    "/>
			<polygon fill="#00FFFF" points="-135.1,81 -103.7,81 -103.7,20.7 -135.1,20.7    "/>
			<polygon fill="#1C6FEB" points="-135.1,20.9 -103.7,20.9 -103.7,-97.3 -135.1,-97.3    "/>
			<polygon fill="#00B0FF" points="-58.6,-46.8 -103.7,-46.8 -103.7,97.3 -58.6,97.3    "/>
		</g>
		<path opacity="0.28" d="M13,20.1L13,20.1c0,0-18.6,0-30.9-0.9c-1.7-0.2-5.5-0.2-8.9-3.7c-2.6-2.7-3.5-8.8-3.5-8.8    s-0.9-7.1-0.9-14.3v-6.7c0-7.1,0.9-14.3,0.9-14.3s0.9-6.1,3.5-8.8c3.4-3.5,7.8-3.4,9.7-3.8c7.1-0.7,30-0.9,30-0.9l0,0    c0,0,18.6,0,30.9,0.9c1.7,0.2,5.5,0.2,8.9,3.7c2.6,2.7,3.5,8.8,3.5,8.8s0.9,7.1,0.9,14.3v6.7c0,7.1-0.9,14.3-0.9,14.3    s-0.9,6.1-3.5,8.8c-3.4,3.5-7.1,3.5-8.9,3.7C31.6,20.1,13,20.1,13,20.1"/>
		<g id="Lozenge_24_">
			<g>
				<path fill="#B42405" d="M46.5,14.9c0,0-0.9,6.1-3.5,8.8c-3.4,3.5-7.1,3.5-8.9,3.7c-12.4,0.9-30.9,0.9-30.9,0.9h0      c0,0-18.5,0-30.9-0.9c-1.7-0.2-5.5-0.2-8.9-3.7c-2.6-2.7-3.5-8.8-3.5-8.8S-41,7.7-41,0.6v-6.7c0-7.1,0.9-14.3,0.9-14.3      s0.9-6.1,3.5-8.8c3.4-3.5,7.8-3.4,9.7-3.8c7.1-0.7,30-0.9,30-0.9s18.6,0,30.9,0.9c1.7,0.2,5.5,0.2,8.9,3.7      c2.6,2.7,3.5,8.8,3.5,8.8s0.9,7.1,0.9,14.3v6.7C47.3,7.7,46.5,14.9,46.5,14.9z"/>
			</g>
		</g>
		<polygon fill="#FFFFFF" stroke="#000000" stroke-miterlimit="10" points="16.8,-14.5 -13.4,-14.5 -13.4,21.6 16.8,21.6   "/>
		<g id="Lozenge_22_">
			<g>
				<path fill="#FD3C20" d="M43.3,17.7c0,0-0.9,6.1-3.5,8.8c-3.4,3.5-7.1,3.5-8.9,3.7C18.6,31.1,0,31.1,0,31.1h0      c0,0-18.5,0-30.9-0.9c-1.7-0.2-5.5-0.2-8.9-3.7c-2.6-2.7-3.5-8.8-3.5-8.8s-0.9-7.1-0.9-14.3v-6.7c0-7.1,0.9-14.3,0.9-14.3      s0.9-6.1,3.5-8.8c3.4-3.5,7.8-3.4,9.7-3.8c7.1-0.7,30-0.9,30-0.9s18.6,0,30.9,0.9c1.7,0.2,5.5,0.2,8.9,3.7      c2.6,2.7,3.5,8.8,3.5,8.8s0.9,7.1,0.9,14.3v6.7C44.2,10.5,43.3,17.7,43.3,17.7z M-9.1-11.5l0,24.8L14.7,0.9L-9.1-11.5z"/>
			</g>
		</g>
	</g>
	<g>
		<polygon fill="#2D2D2D" points="135.2,-97.3 -135.2,-97.3 -135.2,-84.2 135.2,-84.2   "/>
		<polygon opacity="0.61" fill="#FFFFFF" points="135.2,-82.7 -135.2,-82.7 -135.2,-84.2 135.2,-84.2   "/>
		<polygon opacity="0.34" fill="#FFFFFF" points="-122.1,-91.1 -128.6,-94.7 -128.6,-87.5   "/>
		<polygon opacity="0.34" fill="#FFFFFF" points="-111.4,-89 -111.4,-90.9 -114.9,-89 -114.9,-90.2 -117,-89 -117,-93.2 -114.9,-92     -114.9,-93.2 -111.4,-91.3 -111.4,-93.1 -111,-93.1 -111,-89   "/>
		<polygon opacity="0.34" fill="#FFFFFF" points="117,-93.6 107.4,-93.6 107.4,-87.9 117,-87.9   "/>
		<g opacity="0.34">
			<path fill="#FFFFFF" d="M129.2-88.9v-3.8h-7.6v3.8H129.2 M130.2-87.9h-9.6v-5.8h9.6V-87.9L130.2-87.9z"/>
		</g>
		<polygon fill="#FD3C20" points="-46.6,-82.7 -135.2,-82.7 -135.2,-84.2 -46.6,-84.2   "/>
		<path fill="#FD3C20" d="M-44.4-83.4c0-1.6-1.3-2.8-2.8-2.8c-1.6,0-2.8,1.3-2.8,2.8s1.3,2.8,2.8,2.8    C-45.7-80.6-44.4-81.9-44.4-83.4z"/>
	</g>
</symbol>
<symbol id="logo" viewBox="-100.2 -19.7 201.2 39.5">
	<g>
		<g>
			<g>
				<defs>
					<path id="SVGID_1_" d="M-64.8,4.1H-72v8.1l-7.6,7.4h0c-0.1,0.1-0.1,0.1-0.2,0.1c-0.2,0-0.3-0.1-0.3-0.3v-7.2h-8.1l-7.4-7.6v0       c-0.1-0.1-0.1-0.1-0.1-0.2c0-0.2,0.1-0.3,0.3-0.3h7.2V-4l7.6-7.4h0c0.1-0.1,0.1-0.1,0.2-0.1c0.2,0,0.3,0.1,0.3,0.3V-4h8.1       l7.4,7.6v0c0.1,0.1,0.1,0.1,0.1,0.2C-64.5,4-64.6,4.1-64.8,4.1z"/>
				</defs>
				<clipPath id="SVGID_2_">
					<use xlink:href="#SVGID_1_" overflow="visible"/>
				</clipPath>
				<g clip-path="url(#SVGID_2_)">
					<path fill="#4285F4" d="M-64.6,3.5L-64.6,3.5c0.1,0.1,0.1,0.1,0.1,0.2c0,0.2-0.1,0.3-0.3,0.3h-15.3V-4h8.1L-64.6,3.5z"/>
					<g>
						<g>
							
								<image overflow="visible" opacity="0.2" width="42" height="42" xlink:href="CD9D89A3BA0F70A6.png" transform="matrix(0.48 0 0 -0.48 -84.1018 8.0985)">
							</image>
							<polygon fill="#3367D6" points="-80.1,4.1 -80.1,-4 -72,-4        "/>
						</g>
					</g>
					<path fill="#263238" fill-opacity="0.2" d="M-72-4l7.4,7.6v0c0.1,0.1,0.1,0.1,0.1,0.2c0,0,0,0.1,0,0.1c0-0.1,0-0.1-0.1-0.1v0       L-72-3.9h-8.1V-4H-72z"/>
					<polygon fill="#263238" fill-opacity="0.1" points="-80.1,4.1 -80.1,3.9 -72.1,-4 -72,-4      "/>
					<path fill="#FFFFFF" fill-opacity="0.2" d="M-64.5,3.7C-64.5,3.7-64.5,3.7-64.5,3.7c0,0.3-0.1,0.4-0.3,0.4h-15.3V3.9h15.3       C-64.6,3.9-64.5,3.8-64.5,3.7z"/>
				</g>
				<g clip-path="url(#SVGID_2_)">
					<g>
						<g>
							
								<image overflow="visible" opacity="0.25" width="42" height="58" xlink:href="CD9D89A3BA0F70A5.png" transform="matrix(0.48 0 0 -0.48 -92.2407 8.0985)">
							</image>
							<path fill="#80A44A" d="M-80.7-11.4L-80.7-11.4c0.1-0.1,0.1-0.1,0.2-0.1c0.2,0,0.3,0.1,0.3,0.3V4.1h-8.1V-4L-80.7-11.4z"/>
						</g>
					</g>
					<g>
						<g>
							
								<image overflow="visible" opacity="0.2" width="42" height="42" xlink:href="CD9D89A3BA0F70A2.png" transform="matrix(0.48 0 0 -0.48 -94.2407 10.0985)">
							</image>
							<polygon fill="#0F8058" points="-88.2,4.1 -88.2,-4 -80.1,4.1        "/>
						</g>
					</g>
					<path fill="#3E2723" fill-opacity="0.1" d="M-80.4-11.4c-0.1,0-0.2,0-0.2,0.1h0L-88.2-4L-88.2-4l7.6-7.4h0       c0.1-0.1,0.1-0.1,0.2-0.1c0.2,0,0.3,0.1,0.3,0.3v0.2C-80.1-11.2-80.2-11.4-80.4-11.4z"/>
					<polygon fill="#3E2723" fill-opacity="5.000000e-02" points="-80.1,3.9 -80.3,3.9 -88.2,-4 -88.2,-4.2      "/>
				</g>
				<g clip-path="url(#SVGID_2_)">
					<g>
						<g>
							
								<image overflow="visible" opacity="0.2" width="52" height="36" xlink:href="CD9D89A3BA0F70AD.png" transform="matrix(0.48 0 0 -0.48 -100.2284 15.7374)">
							</image>
							<path fill="#DC9900" d="M-95.6,4.7L-95.6,4.7c-0.1-0.1-0.1-0.1-0.1-0.2c0-0.2,0.1-0.3,0.3-0.3h15.3v8.1h-8.1L-95.6,4.7z"/>
						</g>
					</g>
					<g>
						<g>
							
								<image overflow="visible" opacity="0.2" width="36" height="36" xlink:href="CD9D89A3BA0F70AF.png" transform="matrix(0.48 0 0 -0.48 -91.7407 16.7374)">
							</image>
							<polygon fill="#FF8026" points="-80.1,4.1 -80.1,12.2 -88.2,12.2        "/>
						</g>
					</g>
					<path fill="#FFFFFF" fill-opacity="0.2" d="M-88.2,12.2l-7.4-7.6v0c-0.1-0.1-0.1-0.1-0.1-0.2c0,0,0-0.1,0-0.1       c0,0.1,0,0.1,0.1,0.1v0l7.4,7.6h8.1v0.2H-88.2z"/>
					<path fill="#3E2723" fill-opacity="5.000000e-02" d="M-95.7,4.3C-95.7,4.3-95.7,4.3-95.7,4.3c0-0.3,0.1-0.4,0.3-0.4h15.3v0.2       h-15.3C-95.6,4.1-95.7,4.2-95.7,4.3z"/>
					<polygon fill="#3E2723" fill-opacity="0.1" points="-80.1,4.1 -80.1,4.3 -88.1,12.2 -88.2,12.2      "/>
				</g>
				<g clip-path="url(#SVGID_2_)">
					<path fill="#DB4437" d="M-79.5,19.6L-79.5,19.6c-0.1,0.1-0.1,0.1-0.2,0.1c-0.2,0-0.3-0.1-0.3-0.3V4.1h8.1v8.1L-79.5,19.6z"/>
					<path fill="#FFFFFF" fill-opacity="0.2" d="M-79.5,19.6L-79.5,19.6c-0.1,0.1-0.1,0.1-0.2,0.1c-0.2,0-0.3-0.1-0.3-0.3v-0.2       c0,0.2,0.1,0.3,0.3,0.3c0.1,0,0.2,0,0.2-0.1h0l7.4-7.2l0.2,0L-79.5,19.6z"/>
					<polygon fill="#AD1457" points="-72,4.1 -72,12.2 -80.1,4.1      "/>
					<g opacity="0.2">
						<polygon fill="#FFFFFF" points="-80.1,4.3 -79.9,4.3 -72,12.2 -72.1,12.2       "/>
					</g>
					<polygon fill="#3E2723" fill-opacity="0.1" points="-80.1,4.1 -72,4.1 -72,4.3 -80.1,4.3      "/>
					<polygon fill="#F1F1F1" points="-81.1,5.1 -80.1,7.4 -79.1,5.1 -76.8,4.1 -79.1,3.1 -80.1,0.8 -81.1,3.1 -83.4,4.1      "/>
				</g>
			</g>
			<radialGradient id="SVGID_3_" cx="-88.2872" cy="12.2374" r="25.1291" gradientUnits="userSpaceOnUse">
				<stop offset="0" style="stop-color:#FFFFFF"/>
				<stop offset="1" style="stop-color:#FFFFFF;stop-opacity:0"/>
			</radialGradient>
			<path display="none" fill="url(#SVGID_3_)" fill-opacity="0.1" d="M-64.8,4.1H-72v8.1l-7.6,7.4h0c-0.1,0.1-0.1,0.1-0.2,0.1     c-0.2,0-0.3-0.1-0.3-0.3v-7.2h-8.1l-7.4-7.6v0c-0.1-0.1-0.1-0.1-0.1-0.2c0-0.2,0.1-0.3,0.3-0.3h7.2V-4l7.6-7.4h0     c0.1-0.1,0.1-0.1,0.2-0.1c0.2,0,0.3,0.1,0.3,0.3V-4h8.1l7.4,7.6v0c0.1,0.1,0.1,0.1,0.1,0.2C-64.5,4-64.6,4.1-64.8,4.1z"/>
		</g>
	</g>
	<g>
		
			<text transform="matrix(1 0 0 -1 28.0156 -4.3213)" fill="#838383" font-family="'ProductSans-Regular'" font-size="25.9547px" letter-spacing="-1">Photos</text>
		<g>
			<path fill="#838383" d="M-27.3,5.2c1.9,0,3.6-1.5,3.6-3.9c0-2.4-1.8-3.9-3.6-3.9C-29.4-2.6-31-1-31,1.3     C-31,3.6-29.4,5.2-27.3,5.2L-27.3,5.2L-27.3,5.2z M-27.3,7.8c-3.8,0-6.5-3-6.5-6.4c0-3.5,2.6-6.5,6.6-6.5c3.5,0,6.5,2.7,6.5,6.5     C-20.8,5.6-24.2,7.8-27.3,7.8L-27.3,7.8L-27.3,7.8z"/>
			<path fill="#838383" d="M-13.1,5.2c1.9,0,3.6-1.5,3.6-3.9c0-2.4-1.8-3.9-3.6-3.9c-2.1,0-3.7,1.7-3.7,3.9     C-16.8,3.6-15.2,5.2-13.1,5.2L-13.1,5.2L-13.1,5.2z M-13.2,7.8c-3.8,0-6.5-3-6.5-6.4c0-3.5,2.6-6.5,6.6-6.5     c3.5,0,6.5,2.7,6.5,6.5C-6.7,5.6-10,7.8-13.2,7.8L-13.2,7.8L-13.2,7.8z"/>
			<path fill="#838383" d="M1,5.2c1.7,0,3.5-1.5,3.5-3.9c0-2.5-1.7-3.9-3.5-3.9c-1.9,0-3.6,1.5-3.6,3.9C-2.6,3.8-0.9,5.2,1,5.2     L1,5.2L1,5.2z M0.7,7.8c-3.5,0-6.2-3-6.2-6.5c0-3.9,3.2-6.5,6.2-6.5c1.8,0,2.8,0.7,3.6,1.6v-1.3c0-2.2-1.4-3.6-3.4-3.6     c-2,0-3,1.5-3.3,2.3l-2.5-1C-4.1-9.1-2.3-11,0.8-11c3.5,0,6.1,2.2,6.1,6.8V7.4H4.2V6.3C3.4,7.2,2.2,7.8,0.7,7.8L0.7,7.8L0.7,7.8z     "/>
			<path fill="#838383" d="M19.1,5.3c1.2,0,2-0.6,2.4-1.4l-5.8-2.4C15.5,3.4,17.2,5.3,19.1,5.3L19.1,5.3L19.1,5.3z M19,7.8     c-3.3,0-6-2.6-6-6.5c0-4.1,3.1-6.5,6.4-6.5c2.7,0,4.4,1.5,5.4,2.8l-2.2,1.5c-0.6-0.9-1.6-1.8-3.2-1.8c-1.8,0-2.7,1-3.2,2l8.7,3.6     L24.4,4C23.6,6.1,21.6,7.8,19,7.8L19,7.8L19,7.8z"/>
			<polygon fill="#838383" points="8.8,-4.8 11.7,-4.8 11.7,14.3 8.8,14.3 8.8,-4.8    "/>
			<path fill="#838383" d="M-34.9,5.8h-9.2V3.1h6.6c-0.3-3.8-3.5-5.5-6.5-5.5c-3.9,0-7.2,3-7.2,7.3c0,4.2,3.2,7.3,7.2,7.3     c3.1,0,4.9-2,4.9-2l1.9,2c0,0-2.5,2.7-7,2.7c-5.7,0-10.2-4.8-10.2-10c0-5.1,4.2-10.1,10.3-10.1c5.4,0,9.3,3.7,9.3,9.2     C-34.7,5.1-34.9,5.8-34.9,5.8L-34.9,5.8L-34.9,5.8z"/>
		</g>
	</g>
</symbol>
<pattern x="332.8" y="6855.3" width="28.8" height="28.8" patternUnits="userSpaceOnUse" id="_x31_0_dpi_30_x25_" viewBox="2.2 -31 28.8 28.8" overflow="visible">
	<g>
		<polygon fill="none" points="2.2,-31 31,-31 31,-2.2 2.2,-2.2   "/>
		<g>
			<path fill="#1C6FEB" d="M31,0c1.2,0,2.2-1,2.2-2.2c0-1.2-1-2.2-2.2-2.2c-1.2,0-2.2,1-2.2,2.2C28.8-1,29.8,0,31,0z"/>
			<path fill="#1C6FEB" d="M16.6,0c1.2,0,2.2-1,2.2-2.2c0-1.2-1-2.2-2.2-2.2c-1.2,0-2.2,1-2.2,2.2C14.4-1,15.4,0,16.6,0z"/>
			<path fill="#1C6FEB" d="M31-14.4c1.2,0,2.2-1,2.2-2.2c0-1.2-1-2.2-2.2-2.2c-1.2,0-2.2,1-2.2,2.2C28.8-15.4,29.8-14.4,31-14.4z"/>
			<path fill="#1C6FEB" d="M16.6-14.4c1.2,0,2.2-1,2.2-2.2c0-1.2-1-2.2-2.2-2.2c-1.2,0-2.2,1-2.2,2.2C14.4-15.4,15.4-14.4,16.6-14.4     z"/>
			<path fill="#1C6FEB" d="M9.4-7.2c1.2,0,2.2-1,2.2-2.2c0-1.2-1-2.2-2.2-2.2c-1.2,0-2.2,1-2.2,2.2C7.2-8.2,8.2-7.2,9.4-7.2z"/>
			<path fill="#1C6FEB" d="M23.8-7.2c1.2,0,2.2-1,2.2-2.2c0-1.2-1-2.2-2.2-2.2c-1.2,0-2.2,1-2.2,2.2C21.6-8.2,22.6-7.2,23.8-7.2z"/>
			<path fill="#1C6FEB" d="M9.4-21.6c1.2,0,2.2-1,2.2-2.2c0-1.2-1-2.2-2.2-2.2c-1.2,0-2.2,1-2.2,2.2C7.2-22.6,8.2-21.6,9.4-21.6z"/>
			<path fill="#1C6FEB" d="M23.8-21.6c1.2,0,2.2-1,2.2-2.2c0-1.2-1-2.2-2.2-2.2c-1.2,0-2.2,1-2.2,2.2C21.6-22.6,22.6-21.6,23.8-21.6     z"/>
		</g>
		<g>
			<path fill="#1C6FEB" d="M2.2,0c1.2,0,2.2-1,2.2-2.2c0-1.2-1-2.2-2.2-2.2C1-4.3,0-3.4,0-2.2C0-1,1,0,2.2,0z"/>
			<path fill="#1C6FEB" d="M2.2-14.4c1.2,0,2.2-1,2.2-2.2c0-1.2-1-2.2-2.2-2.2c-1.2,0-2.2,1-2.2,2.2C0-15.4,1-14.4,2.2-14.4z"/>
		</g>
		<g>
			<path fill="#1C6FEB" d="M31-28.8c1.2,0,2.2-1,2.2-2.2c0-1.2-1-2.2-2.2-2.2c-1.2,0-2.2,1-2.2,2.2C28.8-29.8,29.8-28.8,31-28.8z"/>
			<path fill="#1C6FEB" d="M16.6-28.8c1.2,0,2.2-1,2.2-2.2c0-1.2-1-2.2-2.2-2.2c-1.2,0-2.2,1-2.2,2.2C14.4-29.8,15.4-28.8,16.6-28.8     z"/>
		</g>
		<g>
			<path fill="#1C6FEB" d="M2.2-28.8c1.2,0,2.2-1,2.2-2.2c0-1.2-1-2.2-2.2-2.2C1-33.1,0-32.2,0-31C0-29.8,1-28.8,2.2-28.8z"/>
		</g>
	</g>
</pattern>
<pattern x="332.8" y="6855.3" width="28.8" height="28.8" patternUnits="userSpaceOnUse" id="_x31_0_dpi_30_x25__10" viewBox="2.2 -31 28.8 28.8" overflow="visible">
	<g>
		<polygon fill="none" points="2.2,-31 31,-31 31,-2.2 2.2,-2.2   "/>
		<g>
			<path fill="#FFFFFF" d="M31,0c1.2,0,2.2-1,2.2-2.2c0-1.2-1-2.2-2.2-2.2c-1.2,0-2.2,1-2.2,2.2C28.8-1,29.8,0,31,0z"/>
			<path fill="#FFFFFF" d="M16.6,0c1.2,0,2.2-1,2.2-2.2c0-1.2-1-2.2-2.2-2.2c-1.2,0-2.2,1-2.2,2.2C14.4-1,15.4,0,16.6,0z"/>
			<path fill="#FFFFFF" d="M31-14.4c1.2,0,2.2-1,2.2-2.2c0-1.2-1-2.2-2.2-2.2c-1.2,0-2.2,1-2.2,2.2C28.8-15.4,29.8-14.4,31-14.4z"/>
			<path fill="#FFFFFF" d="M16.6-14.4c1.2,0,2.2-1,2.2-2.2c0-1.2-1-2.2-2.2-2.2c-1.2,0-2.2,1-2.2,2.2C14.4-15.4,15.4-14.4,16.6-14.4     z"/>
			<path fill="#FFFFFF" d="M9.4-7.2c1.2,0,2.2-1,2.2-2.2c0-1.2-1-2.2-2.2-2.2c-1.2,0-2.2,1-2.2,2.2C7.2-8.2,8.2-7.2,9.4-7.2z"/>
			<path fill="#FFFFFF" d="M23.8-7.2c1.2,0,2.2-1,2.2-2.2c0-1.2-1-2.2-2.2-2.2c-1.2,0-2.2,1-2.2,2.2C21.6-8.2,22.6-7.2,23.8-7.2z"/>
			<path fill="#FFFFFF" d="M9.4-21.6c1.2,0,2.2-1,2.2-2.2c0-1.2-1-2.2-2.2-2.2c-1.2,0-2.2,1-2.2,2.2C7.2-22.6,8.2-21.6,9.4-21.6z"/>
			<path fill="#FFFFFF" d="M23.8-21.6c1.2,0,2.2-1,2.2-2.2c0-1.2-1-2.2-2.2-2.2c-1.2,0-2.2,1-2.2,2.2C21.6-22.6,22.6-21.6,23.8-21.6     z"/>
		</g>
		<g>
			<path fill="#FFFFFF" d="M2.2,0c1.2,0,2.2-1,2.2-2.2c0-1.2-1-2.2-2.2-2.2C1-4.3,0-3.4,0-2.2C0-1,1,0,2.2,0z"/>
			<path fill="#FFFFFF" d="M2.2-14.4c1.2,0,2.2-1,2.2-2.2c0-1.2-1-2.2-2.2-2.2c-1.2,0-2.2,1-2.2,2.2C0-15.4,1-14.4,2.2-14.4z"/>
		</g>
		<g>
			<path fill="#FFFFFF" d="M31-28.8c1.2,0,2.2-1,2.2-2.2c0-1.2-1-2.2-2.2-2.2c-1.2,0-2.2,1-2.2,2.2C28.8-29.8,29.8-28.8,31-28.8z"/>
			<path fill="#FFFFFF" d="M16.6-28.8c1.2,0,2.2-1,2.2-2.2c0-1.2-1-2.2-2.2-2.2c-1.2,0-2.2,1-2.2,2.2C14.4-29.8,15.4-28.8,16.6-28.8     z"/>
		</g>
		<g>
			<path fill="#FFFFFF" d="M2.2-28.8c1.2,0,2.2-1,2.2-2.2c0-1.2-1-2.2-2.2-2.2C1-33.1,0-32.2,0-31C0-29.8,1-28.8,2.2-28.8z"/>
		</g>
	</g>
</pattern>
<pattern x="332.8" y="6855.3" width="28.8" height="28.8" patternUnits="userSpaceOnUse" id="_x31_0_dpi_30_x25__12" viewBox="2.2 -31 28.8 28.8" overflow="visible">
	<g>
		<polygon fill="none" points="2.2,-31 31,-31 31,-2.2 2.2,-2.2   "/>
		<g>
			<path fill="#771280" d="M31,0c1.2,0,2.2-1,2.2-2.2c0-1.2-1-2.2-2.2-2.2c-1.2,0-2.2,1-2.2,2.2C28.8-1,29.8,0,31,0z"/>
			<path fill="#771280" d="M16.6,0c1.2,0,2.2-1,2.2-2.2c0-1.2-1-2.2-2.2-2.2c-1.2,0-2.2,1-2.2,2.2C14.4-1,15.4,0,16.6,0z"/>
			<path fill="#771280" d="M31-14.4c1.2,0,2.2-1,2.2-2.2c0-1.2-1-2.2-2.2-2.2c-1.2,0-2.2,1-2.2,2.2C28.8-15.4,29.8-14.4,31-14.4z"/>
			<path fill="#771280" d="M16.6-14.4c1.2,0,2.2-1,2.2-2.2c0-1.2-1-2.2-2.2-2.2c-1.2,0-2.2,1-2.2,2.2C14.4-15.4,15.4-14.4,16.6-14.4     z"/>
			<path fill="#771280" d="M9.4-7.2c1.2,0,2.2-1,2.2-2.2c0-1.2-1-2.2-2.2-2.2c-1.2,0-2.2,1-2.2,2.2C7.2-8.2,8.2-7.2,9.4-7.2z"/>
			<path fill="#771280" d="M23.8-7.2c1.2,0,2.2-1,2.2-2.2c0-1.2-1-2.2-2.2-2.2c-1.2,0-2.2,1-2.2,2.2C21.6-8.2,22.6-7.2,23.8-7.2z"/>
			<path fill="#771280" d="M9.4-21.6c1.2,0,2.2-1,2.2-2.2c0-1.2-1-2.2-2.2-2.2c-1.2,0-2.2,1-2.2,2.2C7.2-22.6,8.2-21.6,9.4-21.6z"/>
			<path fill="#771280" d="M23.8-21.6c1.2,0,2.2-1,2.2-2.2c0-1.2-1-2.2-2.2-2.2c-1.2,0-2.2,1-2.2,2.2C21.6-22.6,22.6-21.6,23.8-21.6     z"/>
		</g>
		<g>
			<path fill="#771280" d="M2.2,0c1.2,0,2.2-1,2.2-2.2c0-1.2-1-2.2-2.2-2.2C1-4.3,0-3.4,0-2.2C0-1,1,0,2.2,0z"/>
			<path fill="#771280" d="M2.2-14.4c1.2,0,2.2-1,2.2-2.2c0-1.2-1-2.2-2.2-2.2c-1.2,0-2.2,1-2.2,2.2C0-15.4,1-14.4,2.2-14.4z"/>
		</g>
		<g>
			<path fill="#771280" d="M31-28.8c1.2,0,2.2-1,2.2-2.2c0-1.2-1-2.2-2.2-2.2c-1.2,0-2.2,1-2.2,2.2C28.8-29.8,29.8-28.8,31-28.8z"/>
			<path fill="#771280" d="M16.6-28.8c1.2,0,2.2-1,2.2-2.2c0-1.2-1-2.2-2.2-2.2c-1.2,0-2.2,1-2.2,2.2C14.4-29.8,15.4-28.8,16.6-28.8     z"/>
		</g>
		<g>
			<path fill="#771280" d="M2.2-28.8c1.2,0,2.2-1,2.2-2.2c0-1.2-1-2.2-2.2-2.2C1-33.1,0-32.2,0-31C0-29.8,1-28.8,2.2-28.8z"/>
		</g>
	</g>
</pattern>
<pattern x="332.8" y="6855.3" width="28.8" height="28.8" patternUnits="userSpaceOnUse" id="_x31_0_dpi_30_x25__14" viewBox="2.2 -31 28.8 28.8" overflow="visible">
	<g>
		<polygon fill="none" points="2.2,-31 31,-31 31,-2.2 2.2,-2.2   "/>
		<g>
			<path fill="#D11D52" d="M31,0c1.2,0,2.2-1,2.2-2.2c0-1.2-1-2.2-2.2-2.2c-1.2,0-2.2,1-2.2,2.2C28.8-1,29.8,0,31,0z"/>
			<path fill="#D11D52" d="M16.6,0c1.2,0,2.2-1,2.2-2.2c0-1.2-1-2.2-2.2-2.2c-1.2,0-2.2,1-2.2,2.2C14.4-1,15.4,0,16.6,0z"/>
			<path fill="#D11D52" d="M31-14.4c1.2,0,2.2-1,2.2-2.2c0-1.2-1-2.2-2.2-2.2c-1.2,0-2.2,1-2.2,2.2C28.8-15.4,29.8-14.4,31-14.4z"/>
			<path fill="#D11D52" d="M16.6-14.4c1.2,0,2.2-1,2.2-2.2c0-1.2-1-2.2-2.2-2.2c-1.2,0-2.2,1-2.2,2.2C14.4-15.4,15.4-14.4,16.6-14.4     z"/>
			<path fill="#D11D52" d="M9.4-7.2c1.2,0,2.2-1,2.2-2.2c0-1.2-1-2.2-2.2-2.2c-1.2,0-2.2,1-2.2,2.2C7.2-8.2,8.2-7.2,9.4-7.2z"/>
			<path fill="#D11D52" d="M23.8-7.2c1.2,0,2.2-1,2.2-2.2c0-1.2-1-2.2-2.2-2.2c-1.2,0-2.2,1-2.2,2.2C21.6-8.2,22.6-7.2,23.8-7.2z"/>
			<path fill="#D11D52" d="M9.4-21.6c1.2,0,2.2-1,2.2-2.2c0-1.2-1-2.2-2.2-2.2c-1.2,0-2.2,1-2.2,2.2C7.2-22.6,8.2-21.6,9.4-21.6z"/>
			<path fill="#D11D52" d="M23.8-21.6c1.2,0,2.2-1,2.2-2.2c0-1.2-1-2.2-2.2-2.2c-1.2,0-2.2,1-2.2,2.2C21.6-22.6,22.6-21.6,23.8-21.6     z"/>
		</g>
		<g>
			<path fill="#D11D52" d="M2.2,0c1.2,0,2.2-1,2.2-2.2c0-1.2-1-2.2-2.2-2.2C1-4.3,0-3.4,0-2.2C0-1,1,0,2.2,0z"/>
			<path fill="#D11D52" d="M2.2-14.4c1.2,0,2.2-1,2.2-2.2c0-1.2-1-2.2-2.2-2.2c-1.2,0-2.2,1-2.2,2.2C0-15.4,1-14.4,2.2-14.4z"/>
		</g>
		<g>
			<path fill="#D11D52" d="M31-28.8c1.2,0,2.2-1,2.2-2.2c0-1.2-1-2.2-2.2-2.2c-1.2,0-2.2,1-2.2,2.2C28.8-29.8,29.8-28.8,31-28.8z"/>
			<path fill="#D11D52" d="M16.6-28.8c1.2,0,2.2-1,2.2-2.2c0-1.2-1-2.2-2.2-2.2c-1.2,0-2.2,1-2.2,2.2C14.4-29.8,15.4-28.8,16.6-28.8     z"/>
		</g>
		<g>
			<path fill="#D11D52" d="M2.2-28.8c1.2,0,2.2-1,2.2-2.2c0-1.2-1-2.2-2.2-2.2C1-33.1,0-32.2,0-31C0-29.8,1-28.8,2.2-28.8z"/>
		</g>
	</g>
</pattern>
<pattern x="332.8" y="6855.3" width="28.8" height="28.8" patternUnits="userSpaceOnUse" id="_x31_0_dpi_30_x25__15" viewBox="34.5 -68.8 28.8 28.8" overflow="visible">
	<g>
		<polygon fill="none" points="34.5,-68.8 63.3,-68.8 63.3,-40 34.5,-40   "/>
		<g>
			<g>
				<defs>
					<rect id="SVGID_4_" x="63.3" y="-40" width="28.8" height="28.8"/>
				</defs>
				<clipPath id="SVGID_5_">
					<use xlink:href="#SVGID_4_" overflow="visible"/>
				</clipPath>
				<g clip-path="url(#SVGID_5_)">
					<line fill="#FFFFFF" stroke="#FFE211" stroke-miterlimit="10" x1="60.1" y1="-49.1" x2="60.1" y2="0"/>
					<line fill="#FFFFFF" stroke="#FFE211" stroke-miterlimit="10" x1="83.2" y1="-53.5" x2="48.5" y2="-18.8"/>
					<line fill="#FFFFFF" stroke="#FFE211" stroke-miterlimit="10" x1="85.6" y1="-51.2" x2="50.9" y2="-16.5"/>
					<line fill="#FFFFFF" stroke="#FFE211" stroke-miterlimit="10" x1="87.9" y1="-48.8" x2="53.2" y2="-14.1"/>
					<line fill="#FFFFFF" stroke="#FFE211" stroke-miterlimit="10" x1="90.3" y1="-46.4" x2="55.6" y2="-11.7"/>
					<line fill="#FFFFFF" stroke="#FFE211" stroke-miterlimit="10" x1="92.7" y1="-44.1" x2="58" y2="-9.4"/>
					<line fill="#FFFFFF" stroke="#FFE211" stroke-miterlimit="10" x1="95" y1="-41.7" x2="60.3" y2="-7"/>
				</g>
			</g>
		</g>
		<g>
			<g>
				<defs>
					<rect id="SVGID_6_" x="34.5" y="-40" width="28.8" height="28.8"/>
				</defs>
				<clipPath id="SVGID_7_">
					<use xlink:href="#SVGID_6_" overflow="visible"/>
				</clipPath>
				<g clip-path="url(#SVGID_7_)">
					<line fill="#FFFFFF" stroke="#FFE211" stroke-miterlimit="10" x1="54.4" y1="-53.5" x2="19.7" y2="-18.8"/>
					<line fill="#FFFFFF" stroke="#FFE211" stroke-miterlimit="10" x1="56.8" y1="-51.2" x2="22.1" y2="-16.5"/>
					<line fill="#FFFFFF" stroke="#FFE211" stroke-miterlimit="10" x1="59.1" y1="-48.8" x2="24.4" y2="-14.1"/>
					<line fill="#FFFFFF" stroke="#FFE211" stroke-miterlimit="10" x1="61.5" y1="-46.4" x2="26.8" y2="-11.7"/>
					<line fill="#FFFFFF" stroke="#FFE211" stroke-miterlimit="10" x1="63.9" y1="-44.1" x2="29.2" y2="-9.4"/>
					<line fill="#FFFFFF" stroke="#FFE211" stroke-miterlimit="10" x1="66.2" y1="-41.7" x2="31.5" y2="-7"/>
				</g>
			</g>
		</g>
		<g>
			<g>
				<defs>
					<rect id="SVGID_8_" x="5.7" y="-40" width="28.8" height="28.8"/>
				</defs>
				<clipPath id="SVGID_9_">
					<use xlink:href="#SVGID_8_" overflow="visible"/>
				</clipPath>
				<g clip-path="url(#SVGID_9_)">
					<line fill="#FFFFFF" stroke="#FFE211" stroke-miterlimit="10" x1="35.1" y1="-44.1" x2="0.4" y2="-9.4"/>
					<line fill="#FFFFFF" stroke="#FFE211" stroke-miterlimit="10" x1="37.4" y1="-41.7" x2="2.7" y2="-7"/>
					<line fill="#FFFFFF" stroke="#FFE211" stroke-miterlimit="10" x1="39.3" y1="-49.1" x2="39.3" y2="0"/>
				</g>
			</g>
		</g>
		<g>
			<g>
				<defs>
					<rect id="SVGID_10_" x="63.3" y="-68.8" width="28.8" height="28.8"/>
				</defs>
				<clipPath id="SVGID_11_">
					<use xlink:href="#SVGID_10_" overflow="visible"/>
				</clipPath>
				<g clip-path="url(#SVGID_11_)">
					<line fill="#FFFFFF" stroke="#FFE211" stroke-miterlimit="10" x1="60.1" y1="-77.9" x2="60.1" y2="-28.8"/>
					<line fill="#FFFFFF" stroke="#FFE211" stroke-miterlimit="10" x1="83.2" y1="-82.3" x2="48.5" y2="-47.6"/>
					<line fill="#FFFFFF" stroke="#FFE211" stroke-miterlimit="10" x1="85.6" y1="-80" x2="50.9" y2="-45.3"/>
					<line fill="#FFFFFF" stroke="#FFE211" stroke-miterlimit="10" x1="87.9" y1="-77.6" x2="53.2" y2="-42.9"/>
					<line fill="#FFFFFF" stroke="#FFE211" stroke-miterlimit="10" x1="90.3" y1="-75.2" x2="55.6" y2="-40.5"/>
					<line fill="#FFFFFF" stroke="#FFE211" stroke-miterlimit="10" x1="92.7" y1="-72.9" x2="58" y2="-38.2"/>
					<line fill="#FFFFFF" stroke="#FFE211" stroke-miterlimit="10" x1="95" y1="-70.5" x2="60.3" y2="-35.8"/>
					<line fill="#FFFFFF" stroke="#FFE211" stroke-miterlimit="10" x1="97.4" y1="-68.2" x2="62.7" y2="-33.4"/>
				</g>
			</g>
		</g>
		<g>
			<g>
				<path fill="none" d="M63.3-37.8c1.2,0,2.2-1,2.2-2.2c0-1.2-1-2.2-2.2-2.2c-1.2,0-2.2,1-2.2,2.2C61.1-38.8,62.1-37.8,63.3-37.8z"/>
				<path fill="none" d="M48.9-37.8c1.2,0,2.2-1,2.2-2.2c0-1.2-1-2.2-2.2-2.2c-1.2,0-2.2,1-2.2,2.2C46.7-38.8,47.7-37.8,48.9-37.8z"/>
				<path fill="none" d="M63.3-52.2c1.2,0,2.2-1,2.2-2.2c0-1.2-1-2.2-2.2-2.2c-1.2,0-2.2,1-2.2,2.2C61.1-53.2,62.1-52.2,63.3-52.2z"/>
				<path fill="none" d="M48.9-52.2c1.2,0,2.2-1,2.2-2.2c0-1.2-1-2.2-2.2-2.2c-1.2,0-2.2,1-2.2,2.2C46.7-53.2,47.7-52.2,48.9-52.2z"/>
				<path fill="none" d="M41.7-45c1.2,0,2.2-1,2.2-2.2c0-1.2-1-2.2-2.2-2.2c-1.2,0-2.2,1-2.2,2.2C39.5-46,40.5-45,41.7-45z"/>
				<path fill="none" d="M56.1-45c1.2,0,2.2-1,2.2-2.2c0-1.2-1-2.2-2.2-2.2c-1.2,0-2.2,1-2.2,2.2C53.9-46,54.9-45,56.1-45z"/>
				<path fill="none" d="M41.7-59.4c1.2,0,2.2-1,2.2-2.2c0-1.2-1-2.2-2.2-2.2c-1.2,0-2.2,1-2.2,2.2C39.5-60.4,40.5-59.4,41.7-59.4z"/>
				<path fill="none" d="M56.1-59.4c1.2,0,2.2-1,2.2-2.2c0-1.2-1-2.2-2.2-2.2c-1.2,0-2.2,1-2.2,2.2C53.9-60.4,54.9-59.4,56.1-59.4z"/>
			</g>
			<g>
				<defs>
					<rect id="SVGID_12_" x="34.5" y="-68.8" width="28.8" height="28.8"/>
				</defs>
				<clipPath id="SVGID_13_">
					<use xlink:href="#SVGID_12_" overflow="visible"/>
				</clipPath>
				<g clip-path="url(#SVGID_13_)">
					<line fill="#FFFFFF" stroke="#FFE211" stroke-miterlimit="10" x1="31.3" y1="-77.9" x2="31.3" y2="-28.8"/>
					<line fill="#FFFFFF" stroke="#FFE211" stroke-miterlimit="10" x1="54.4" y1="-82.3" x2="19.7" y2="-47.6"/>
					<line fill="#FFFFFF" stroke="#FFE211" stroke-miterlimit="10" x1="56.8" y1="-80" x2="22.1" y2="-45.3"/>
					<line fill="#FFFFFF" stroke="#FFE211" stroke-miterlimit="10" x1="59.1" y1="-77.6" x2="24.4" y2="-42.9"/>
					<line fill="#FFFFFF" stroke="#FFE211" stroke-miterlimit="10" x1="61.5" y1="-75.2" x2="26.8" y2="-40.5"/>
					<line fill="#FFFFFF" stroke="#FFE211" stroke-miterlimit="10" x1="63.9" y1="-72.9" x2="29.2" y2="-38.2"/>
					<line fill="#FFFFFF" stroke="#FFE211" stroke-miterlimit="10" x1="66.2" y1="-70.5" x2="31.5" y2="-35.8"/>
					<line fill="#FFFFFF" stroke="#FFE211" stroke-miterlimit="10" x1="68.6" y1="-68.2" x2="33.9" y2="-33.4"/>
					<line fill="#FFFFFF" stroke="#FFE211" stroke-miterlimit="10" x1="71" y1="-65.8" x2="36.2" y2="-31.1"/>
					<line fill="#FFFFFF" stroke="#FFE211" stroke-miterlimit="10" x1="73.3" y1="-63.4" x2="38.6" y2="-28.7"/>
					<line fill="#FFFFFF" stroke="#FFE211" stroke-miterlimit="10" x1="75.7" y1="-61.1" x2="41" y2="-26.4"/>
					<line fill="#FFFFFF" stroke="#FFE211" stroke-miterlimit="10" x1="68.1" y1="-77.9" x2="68.1" y2="-28.8"/>
				</g>
			</g>
		</g>
		<g>
			<g>
				<path fill="none" d="M34.5-37.8c1.2,0,2.2-1,2.2-2.2c0-1.2-1-2.2-2.2-2.2c-1.2,0-2.2,1-2.2,2.2C32.3-38.8,33.3-37.8,34.5-37.8z"/>
				<path fill="none" d="M34.5-52.2c1.2,0,2.2-1,2.2-2.2c0-1.2-1-2.2-2.2-2.2c-1.2,0-2.2,1-2.2,2.2C32.3-53.2,33.3-52.2,34.5-52.2z"/>
			</g>
			<g>
				<defs>
					<rect id="SVGID_14_" x="5.7" y="-68.8" width="28.8" height="28.8"/>
				</defs>
				<clipPath id="SVGID_15_">
					<use xlink:href="#SVGID_14_" overflow="visible"/>
				</clipPath>
				<g clip-path="url(#SVGID_15_)">
					<line fill="#FFFFFF" stroke="#FFE211" stroke-miterlimit="10" x1="35.1" y1="-72.9" x2="0.4" y2="-38.2"/>
					<line fill="#FFFFFF" stroke="#FFE211" stroke-miterlimit="10" x1="37.4" y1="-70.5" x2="2.7" y2="-35.8"/>
					<line fill="#FFFFFF" stroke="#FFE211" stroke-miterlimit="10" x1="39.8" y1="-68.2" x2="5.1" y2="-33.4"/>
					<line fill="#FFFFFF" stroke="#FFE211" stroke-miterlimit="10" x1="42.2" y1="-65.8" x2="7.4" y2="-31.1"/>
					<line fill="#FFFFFF" stroke="#FFE211" stroke-miterlimit="10" x1="44.5" y1="-63.4" x2="9.8" y2="-28.7"/>
					<line fill="#FFFFFF" stroke="#FFE211" stroke-miterlimit="10" x1="46.9" y1="-61.1" x2="12.2" y2="-26.4"/>
					<line fill="#FFFFFF" stroke="#FFE211" stroke-miterlimit="10" x1="39.3" y1="-77.9" x2="39.3" y2="-28.8"/>
				</g>
			</g>
		</g>
		<g>
			<g>
				<defs>
					<rect id="SVGID_16_" x="63.3" y="-97.6" width="28.8" height="28.8"/>
				</defs>
				<clipPath id="SVGID_17_">
					<use xlink:href="#SVGID_16_" overflow="visible"/>
				</clipPath>
				<g clip-path="url(#SVGID_17_)">
					<line fill="#FFFFFF" stroke="#FFE211" stroke-miterlimit="10" x1="60.1" y1="-106.7" x2="60.1" y2="-57.6"/>
					<line fill="#FFFFFF" stroke="#FFE211" stroke-miterlimit="10" x1="92.7" y1="-101.7" x2="58" y2="-67"/>
					<line fill="#FFFFFF" stroke="#FFE211" stroke-miterlimit="10" x1="95" y1="-99.3" x2="60.3" y2="-64.6"/>
					<line fill="#FFFFFF" stroke="#FFE211" stroke-miterlimit="10" x1="97.4" y1="-97" x2="62.7" y2="-62.2"/>
				</g>
			</g>
		</g>
		<g>
			<g>
				<path fill="none" d="M63.3-66.6c1.2,0,2.2-1,2.2-2.2s-1-2.2-2.2-2.2c-1.2,0-2.2,1-2.2,2.2S62.1-66.6,63.3-66.6z"/>
				<path fill="none" d="M48.9-66.6c1.2,0,2.2-1,2.2-2.2s-1-2.2-2.2-2.2c-1.2,0-2.2,1-2.2,2.2S47.7-66.6,48.9-66.6z"/>
			</g>
			<g>
				<defs>
					<rect id="SVGID_18_" x="34.5" y="-97.6" width="28.8" height="28.8"/>
				</defs>
				<clipPath id="SVGID_19_">
					<use xlink:href="#SVGID_18_" overflow="visible"/>
				</clipPath>
				<g clip-path="url(#SVGID_19_)">
					<line fill="#FFFFFF" stroke="#FFE211" stroke-miterlimit="10" x1="63.9" y1="-101.7" x2="29.2" y2="-67"/>
					<line fill="#FFFFFF" stroke="#FFE211" stroke-miterlimit="10" x1="66.2" y1="-99.3" x2="31.5" y2="-64.6"/>
					<line fill="#FFFFFF" stroke="#FFE211" stroke-miterlimit="10" x1="68.6" y1="-97" x2="33.9" y2="-62.2"/>
					<line fill="#FFFFFF" stroke="#FFE211" stroke-miterlimit="10" x1="71" y1="-94.6" x2="36.2" y2="-59.9"/>
					<line fill="#FFFFFF" stroke="#FFE211" stroke-miterlimit="10" x1="73.3" y1="-92.2" x2="38.6" y2="-57.5"/>
					<line fill="#FFFFFF" stroke="#FFE211" stroke-miterlimit="10" x1="75.7" y1="-89.9" x2="41" y2="-55.2"/>
				</g>
			</g>
		</g>
		<g>
			<g>
				<path fill="none" d="M34.5-66.6c1.2,0,2.2-1,2.2-2.2s-1-2.2-2.2-2.2c-1.2,0-2.2,1-2.2,2.2S33.3-66.6,34.5-66.6z"/>
			</g>
			<g>
				<defs>
					<rect id="SVGID_20_" x="5.7" y="-97.6" width="28.8" height="28.8"/>
				</defs>
				<clipPath id="SVGID_21_">
					<use xlink:href="#SVGID_20_" overflow="visible"/>
				</clipPath>
				<g clip-path="url(#SVGID_21_)">
					<line fill="#FFFFFF" stroke="#FFE211" stroke-miterlimit="10" x1="35.1" y1="-101.7" x2="0.4" y2="-67"/>
					<line fill="#FFFFFF" stroke="#FFE211" stroke-miterlimit="10" x1="37.4" y1="-99.3" x2="2.7" y2="-64.6"/>
					<line fill="#FFFFFF" stroke="#FFE211" stroke-miterlimit="10" x1="39.8" y1="-97" x2="5.1" y2="-62.2"/>
					<line fill="#FFFFFF" stroke="#FFE211" stroke-miterlimit="10" x1="42.2" y1="-94.6" x2="7.4" y2="-59.9"/>
					<line fill="#FFFFFF" stroke="#FFE211" stroke-miterlimit="10" x1="44.5" y1="-92.2" x2="9.8" y2="-57.5"/>
					<line fill="#FFFFFF" stroke="#FFE211" stroke-miterlimit="10" x1="46.9" y1="-89.9" x2="12.2" y2="-55.2"/>
					<line fill="#FFFFFF" stroke="#FFE211" stroke-miterlimit="10" x1="39.3" y1="-106.7" x2="39.3" y2="-57.6"/>
				</g>
			</g>
		</g>
	</g>
</pattern>
<pattern x="332.8" y="6855.3" width="28.8" height="28.8" patternUnits="userSpaceOnUse" id="_x31_0_dpi_30_x25__16" viewBox="2.2 -31 28.8 28.8" overflow="visible">
	<g>
		<polygon fill="none" points="2.2,-31 31,-31 31,-2.2 2.2,-2.2   "/>
		<g>
			<path fill="#45A83E" d="M31,0c1.2,0,2.2-1,2.2-2.2c0-1.2-1-2.2-2.2-2.2c-1.2,0-2.2,1-2.2,2.2C28.8-1,29.8,0,31,0z"/>
			<path fill="#45A83E" d="M16.6,0c1.2,0,2.2-1,2.2-2.2c0-1.2-1-2.2-2.2-2.2c-1.2,0-2.2,1-2.2,2.2C14.4-1,15.4,0,16.6,0z"/>
			<path fill="#45A83E" d="M31-14.4c1.2,0,2.2-1,2.2-2.2c0-1.2-1-2.2-2.2-2.2c-1.2,0-2.2,1-2.2,2.2C28.8-15.4,29.8-14.4,31-14.4z"/>
			<path fill="#45A83E" d="M16.6-14.4c1.2,0,2.2-1,2.2-2.2c0-1.2-1-2.2-2.2-2.2c-1.2,0-2.2,1-2.2,2.2C14.4-15.4,15.4-14.4,16.6-14.4     z"/>
			<path fill="#45A83E" d="M9.4-7.2c1.2,0,2.2-1,2.2-2.2c0-1.2-1-2.2-2.2-2.2c-1.2,0-2.2,1-2.2,2.2C7.2-8.2,8.2-7.2,9.4-7.2z"/>
			<path fill="#45A83E" d="M23.8-7.2c1.2,0,2.2-1,2.2-2.2c0-1.2-1-2.2-2.2-2.2c-1.2,0-2.2,1-2.2,2.2C21.6-8.2,22.6-7.2,23.8-7.2z"/>
			<path fill="#45A83E" d="M9.4-21.6c1.2,0,2.2-1,2.2-2.2c0-1.2-1-2.2-2.2-2.2c-1.2,0-2.2,1-2.2,2.2C7.2-22.6,8.2-21.6,9.4-21.6z"/>
			<path fill="#45A83E" d="M23.8-21.6c1.2,0,2.2-1,2.2-2.2c0-1.2-1-2.2-2.2-2.2c-1.2,0-2.2,1-2.2,2.2C21.6-22.6,22.6-21.6,23.8-21.6     z"/>
		</g>
		<g>
			<path fill="#45A83E" d="M2.2,0c1.2,0,2.2-1,2.2-2.2c0-1.2-1-2.2-2.2-2.2C1-4.3,0-3.4,0-2.2C0-1,1,0,2.2,0z"/>
			<path fill="#45A83E" d="M2.2-14.4c1.2,0,2.2-1,2.2-2.2c0-1.2-1-2.2-2.2-2.2c-1.2,0-2.2,1-2.2,2.2C0-15.4,1-14.4,2.2-14.4z"/>
		</g>
		<g>
			<path fill="#45A83E" d="M31-28.8c1.2,0,2.2-1,2.2-2.2c0-1.2-1-2.2-2.2-2.2c-1.2,0-2.2,1-2.2,2.2C28.8-29.8,29.8-28.8,31-28.8z"/>
			<path fill="#45A83E" d="M16.6-28.8c1.2,0,2.2-1,2.2-2.2c0-1.2-1-2.2-2.2-2.2c-1.2,0-2.2,1-2.2,2.2C14.4-29.8,15.4-28.8,16.6-28.8     z"/>
		</g>
		<g>
			<path fill="#45A83E" d="M2.2-28.8c1.2,0,2.2-1,2.2-2.2c0-1.2-1-2.2-2.2-2.2C1-33.1,0-32.2,0-31C0-29.8,1-28.8,2.2-28.8z"/>
		</g>
	</g>
</pattern>
<pattern x="332.8" y="6855.3" width="28.8" height="28.8" patternUnits="userSpaceOnUse" id="_x31_0_dpi_30_x25__17" viewBox="2.2 -31 28.8 28.8" overflow="visible">
	<g>
		<polygon fill="none" points="2.2,-31 31,-31 31,-2.2 2.2,-2.2   "/>
		<g>
			<path fill="#C2933E" d="M31,0c1.2,0,2.2-1,2.2-2.2c0-1.2-1-2.2-2.2-2.2c-1.2,0-2.2,1-2.2,2.2C28.8-1,29.8,0,31,0z"/>
			<path fill="#C2933E" d="M16.6,0c1.2,0,2.2-1,2.2-2.2c0-1.2-1-2.2-2.2-2.2c-1.2,0-2.2,1-2.2,2.2C14.4-1,15.4,0,16.6,0z"/>
			<path fill="#C2933E" d="M31-14.4c1.2,0,2.2-1,2.2-2.2c0-1.2-1-2.2-2.2-2.2c-1.2,0-2.2,1-2.2,2.2C28.8-15.4,29.8-14.4,31-14.4z"/>
			<path fill="#C2933E" d="M16.6-14.4c1.2,0,2.2-1,2.2-2.2c0-1.2-1-2.2-2.2-2.2c-1.2,0-2.2,1-2.2,2.2C14.4-15.4,15.4-14.4,16.6-14.4     z"/>
			<path fill="#C2933E" d="M9.4-7.2c1.2,0,2.2-1,2.2-2.2c0-1.2-1-2.2-2.2-2.2c-1.2,0-2.2,1-2.2,2.2C7.2-8.2,8.2-7.2,9.4-7.2z"/>
			<path fill="#C2933E" d="M23.8-7.2c1.2,0,2.2-1,2.2-2.2c0-1.2-1-2.2-2.2-2.2c-1.2,0-2.2,1-2.2,2.2C21.6-8.2,22.6-7.2,23.8-7.2z"/>
			<path fill="#C2933E" d="M9.4-21.6c1.2,0,2.2-1,2.2-2.2c0-1.2-1-2.2-2.2-2.2c-1.2,0-2.2,1-2.2,2.2C7.2-22.6,8.2-21.6,9.4-21.6z"/>
			<path fill="#C2933E" d="M23.8-21.6c1.2,0,2.2-1,2.2-2.2c0-1.2-1-2.2-2.2-2.2c-1.2,0-2.2,1-2.2,2.2C21.6-22.6,22.6-21.6,23.8-21.6     z"/>
		</g>
		<g>
			<path fill="#C2933E" d="M2.2,0c1.2,0,2.2-1,2.2-2.2c0-1.2-1-2.2-2.2-2.2C1-4.3,0-3.4,0-2.2C0-1,1,0,2.2,0z"/>
			<path fill="#C2933E" d="M2.2-14.4c1.2,0,2.2-1,2.2-2.2c0-1.2-1-2.2-2.2-2.2c-1.2,0-2.2,1-2.2,2.2C0-15.4,1-14.4,2.2-14.4z"/>
		</g>
		<g>
			<path fill="#C2933E" d="M31-28.8c1.2,0,2.2-1,2.2-2.2c0-1.2-1-2.2-2.2-2.2c-1.2,0-2.2,1-2.2,2.2C28.8-29.8,29.8-28.8,31-28.8z"/>
			<path fill="#C2933E" d="M16.6-28.8c1.2,0,2.2-1,2.2-2.2c0-1.2-1-2.2-2.2-2.2c-1.2,0-2.2,1-2.2,2.2C14.4-29.8,15.4-28.8,16.6-28.8     z"/>
		</g>
		<g>
			<path fill="#C2933E" d="M2.2-28.8c1.2,0,2.2-1,2.2-2.2c0-1.2-1-2.2-2.2-2.2C1-33.1,0-32.2,0-31C0-29.8,1-28.8,2.2-28.8z"/>
		</g>
	</g>
</pattern>
<pattern x="332.8" y="6855.3" width="28.8" height="28.8" patternUnits="userSpaceOnUse" id="_x31_0_dpi_30_x25__25" viewBox="0 -30.5 28.8 28.8" overflow="visible">
	<g>
		<polygon fill="none" points="0,-30.5 28.8,-30.5 28.8,-1.7 0,-1.7   "/>
		<g>
			<path fill="#74FFE7" d="M9.3,0c0,0,0,0-0.1,0C9.1,0,9,0,8.8-0.1c-0.1,0-0.1-0.1-0.2-0.2c0-0.1,0-0.2,0-0.3c0,0,0-0.1,0-0.1     c0,0,0-0.1,0-0.1c0-0.1,0-0.1,0-0.2c0-0.1,0-0.1,0-0.2c0-0.1,0-0.1,0-0.2c0,0,0-0.1-0.1-0.1c0,0-0.1-0.1-0.1-0.1     C8.4-1.8,8.4-1.9,8.3-1.9C8.2-2,8.2-2,8.2-2s0,0,0.1,0c0.1,0,0.2,0,0.3,0c0.1,0,0.1,0.1,0.2,0.1C9-1.8,9-1.7,9.1-1.6     c0.1,0.1,0.1,0.2,0.1,0.3c0,0.1,0,0.2,0,0.3c0,0.1,0,0.2-0.1,0.3c0,0,0,0.1,0,0.1c0,0,0,0.1,0,0.1c0,0.1,0,0.1,0,0.1     c0,0,0,0.1,0,0.1C9.1-0.2,9.2-0.2,9.3,0C9.3,0,9.3,0,9.3,0z"/>
		</g>
		<g>
			<path fill="#DAFEFF" d="M24.7-15.3c0.9,0,1.5-0.7,1.5-1.5c0-0.9-0.7-1.5-1.5-1.5c-0.9,0-1.5,0.7-1.5,1.5     C23.2-16,23.8-15.3,24.7-15.3z"/>
			<path fill="#7C94DD" d="M8.4-11.7C8.7-11.7,9-12,9-12.3c0-0.3-0.3-0.6-0.6-0.6c-0.3,0-0.6,0.3-0.6,0.6C7.8-12,8.1-11.7,8.4-11.7z     "/>
			<path fill="#74FFE7" d="M23.5-5.9c0.4,0,0.7-0.3,0.7-0.7c0-0.4-0.3-0.7-0.7-0.7c-0.4,0-0.7,0.3-0.7,0.7     C22.8-6.2,23.2-5.9,23.5-5.9z"/>
			<path fill="#FFF821" d="M5.5-19.7c-0.4-0.3-1-0.1-1.3,0.3c-0.3,0.4-0.1,1,0.3,1.3"/>
			<path fill="#DAFEFF" d="M21.2-19.8c0.1,0,0.2-0.1,0.2-0.2c0-0.1-0.1-0.2-0.2-0.2c-0.1,0-0.2,0.1-0.2,0.2     C21-19.9,21.1-19.8,21.2-19.8z"/>
			<path fill="none" stroke="#7C94DD" stroke-width="1.893" stroke-miterlimit="10" d="M11.4-8.3c0.1-0.3,0.3-0.7,0.7-0.9     c0.2-0.1,0.4,0,0.6,0.1C12.8-9.1,13-9,13.2-8.9c0.4,0.1,0.7-0.1,0.9-0.3c0.3-0.3,0.5-0.7,0.6-1.1"/>
			<path fill="#74FFE7" d="M17.4-21.6c0,0,0,0-0.1,0c-0.1,0-0.2,0-0.3-0.1c-0.1,0-0.1-0.1-0.2-0.2c0-0.1,0-0.2,0-0.3     c0,0,0-0.1,0-0.1c0,0,0-0.1,0-0.1c0-0.1,0-0.1,0-0.2c0-0.1,0-0.1,0-0.2c0-0.1,0-0.1,0-0.2c0,0,0-0.1-0.1-0.1c0,0-0.1-0.1-0.1-0.1     c-0.1-0.1-0.1-0.2-0.2-0.2c-0.1-0.1-0.1-0.1-0.1-0.1s0,0,0.1,0c0.1,0,0.2,0,0.3,0c0.1,0,0.1,0.1,0.2,0.1c0.1,0.1,0.1,0.1,0.2,0.2     c0.1,0.1,0.1,0.2,0.1,0.3c0,0.1,0,0.2,0,0.3c0,0.1,0,0.2-0.1,0.3c0,0,0,0.1,0,0.1c0,0,0,0.1,0,0.1c0,0.1,0,0.1,0,0.1     c0,0,0,0.1,0,0.1C17.2-21.9,17.3-21.8,17.4-21.6C17.4-21.7,17.4-21.6,17.4-21.6z"/>
			<polygon fill="#DAFEFF" points="22,-20.3 21.3,-19.4 20.6,-20.3    "/>
			<path fill="#74FFE7" d="M18-12.1c0.6-0.6,1.6-0.6,2.2,0.1c0.6,0.6,0.6,1.6-0.1,2.2"/>
			<path fill="#74FFE7" d="M18.8-11.2c-0.6,0.6-0.7,1.6-0.1,2.2c0.6,0.6,1.6,0.7,2.2,0.1"/>
			<path fill="#DAFEFF" d="M9.3-3.5c0.6,0,1.1-0.5,1.1-1.1c0-0.6-0.5-1.1-1.1-1.1c-0.6,0-1.1,0.5-1.1,1.1C8.2-4,8.7-3.5,9.3-3.5z"/>
			<path fill="#7C94DD" d="M2.7-6.3c0.3,0,0.6-0.3,0.6-0.6c0-0.3-0.3-0.6-0.6-0.6c-0.3,0-0.6,0.3-0.6,0.6C2.1-6.6,2.4-6.3,2.7-6.3z"/>
			<path fill="#74FFE7" d="M13.7-25.3c0.4,0,0.7-0.3,0.7-0.7c0-0.4-0.3-0.7-0.7-0.7c-0.4,0-0.7,0.3-0.7,0.7     C13-25.6,13.3-25.3,13.7-25.3z"/>
			<path fill="#FFF821" d="M18.3-15.8c0.4-0.3,0.5-0.9,0.2-1.3c-0.3-0.4-0.9-0.5-1.3-0.2"/>
			<path fill="#DAFEFF" d="M10.5-26.5c0.1,0,0.2-0.1,0.2-0.2c0-0.1-0.1-0.2-0.2-0.2c-0.1,0-0.2,0.1-0.2,0.2     C10.3-26.6,10.4-26.5,10.5-26.5z"/>
			<path fill="none" stroke="#7C94DD" stroke-miterlimit="10" d="M22.5-24.8c0-0.3,0-0.8,0.3-1c0.2-0.1,0.4-0.2,0.6-0.2     c0.2,0,0.4,0,0.6,0c0.4-0.1,0.6-0.3,0.8-0.7c0.2-0.4,0.2-0.9,0.2-1.3"/>
			<path fill="#74FFE7" d="M9.3-28.8c0,0,0,0-0.1,0c-0.1,0-0.2,0-0.3-0.1c-0.1,0-0.1-0.1-0.2-0.2c0-0.1,0-0.2,0-0.3c0,0,0-0.1,0-0.1     c0,0,0-0.1,0-0.1c0-0.1,0-0.1,0-0.2c0-0.1,0-0.1,0-0.2c0-0.1,0-0.1,0-0.2c0,0,0-0.1-0.1-0.1c0,0-0.1-0.1-0.1-0.1     c-0.1-0.1-0.1-0.2-0.2-0.2c-0.1-0.1-0.1-0.1-0.1-0.1s0,0,0.1,0c0.1,0,0.2,0,0.3,0c0.1,0,0.1,0.1,0.2,0.1C9-30.6,9-30.5,9.1-30.4     c0.1,0.1,0.1,0.2,0.1,0.3c0,0.1,0,0.2,0,0.3c0,0.1,0,0.2-0.1,0.3c0,0,0,0.1,0,0.1c0,0,0,0.1,0,0.1c0,0.1,0,0.1,0,0.1     c0,0,0,0.1,0,0.1C9.1-29,9.2-29,9.3-28.8C9.3-28.8,9.3-28.8,9.3-28.8z"/>
			<polygon fill="#DAFEFF" points="4.6,-14.1 3.8,-13.2 3.1,-14.1    "/>
			<path fill="#74FFE7" d="M6.1-24.4c0-0.9,0.7-1.5,1.5-1.5s1.5,0.7,1.5,1.5"/>
			<path fill="#74FFE7" d="M7.4-23.6C7.4-22.7,8-22,8.9-22s1.5-0.7,1.5-1.5"/>
		</g>
	</g>
</pattern>
<pattern x="332.8" y="6855.3" width="28.8" height="28.8" patternUnits="userSpaceOnUse" id="_x31_0_dpi_30_x25__32" viewBox="2.2 -31 28.8 28.8" overflow="visible">
	<g>
		<polygon fill="none" points="2.2,-31 31,-31 31,-2.2 2.2,-2.2   "/>
		<g>
			<path fill="#39858A" d="M31,0c1.2,0,2.2-1,2.2-2.2c0-1.2-1-2.2-2.2-2.2c-1.2,0-2.2,1-2.2,2.2C28.8-1,29.8,0,31,0z"/>
			<path fill="#39858A" d="M16.6,0c1.2,0,2.2-1,2.2-2.2c0-1.2-1-2.2-2.2-2.2c-1.2,0-2.2,1-2.2,2.2C14.4-1,15.4,0,16.6,0z"/>
			<path fill="#39858A" d="M31-14.4c1.2,0,2.2-1,2.2-2.2c0-1.2-1-2.2-2.2-2.2c-1.2,0-2.2,1-2.2,2.2C28.8-15.4,29.8-14.4,31-14.4z"/>
			<path fill="#39858A" d="M16.6-14.4c1.2,0,2.2-1,2.2-2.2c0-1.2-1-2.2-2.2-2.2c-1.2,0-2.2,1-2.2,2.2C14.4-15.4,15.4-14.4,16.6-14.4     z"/>
			<path fill="#39858A" d="M9.4-7.2c1.2,0,2.2-1,2.2-2.2c0-1.2-1-2.2-2.2-2.2c-1.2,0-2.2,1-2.2,2.2C7.2-8.2,8.2-7.2,9.4-7.2z"/>
			<path fill="#39858A" d="M23.8-7.2c1.2,0,2.2-1,2.2-2.2c0-1.2-1-2.2-2.2-2.2c-1.2,0-2.2,1-2.2,2.2C21.6-8.2,22.6-7.2,23.8-7.2z"/>
			<path fill="#39858A" d="M9.4-21.6c1.2,0,2.2-1,2.2-2.2c0-1.2-1-2.2-2.2-2.2c-1.2,0-2.2,1-2.2,2.2C7.2-22.6,8.2-21.6,9.4-21.6z"/>
			<path fill="#39858A" d="M23.8-21.6c1.2,0,2.2-1,2.2-2.2c0-1.2-1-2.2-2.2-2.2c-1.2,0-2.2,1-2.2,2.2C21.6-22.6,22.6-21.6,23.8-21.6     z"/>
		</g>
		<g>
			<path fill="#39858A" d="M2.2,0c1.2,0,2.2-1,2.2-2.2c0-1.2-1-2.2-2.2-2.2C1-4.3,0-3.4,0-2.2C0-1,1,0,2.2,0z"/>
			<path fill="#39858A" d="M2.2-14.4c1.2,0,2.2-1,2.2-2.2c0-1.2-1-2.2-2.2-2.2c-1.2,0-2.2,1-2.2,2.2C0-15.4,1-14.4,2.2-14.4z"/>
		</g>
		<g>
			<path fill="#39858A" d="M31-28.8c1.2,0,2.2-1,2.2-2.2c0-1.2-1-2.2-2.2-2.2c-1.2,0-2.2,1-2.2,2.2C28.8-29.8,29.8-28.8,31-28.8z"/>
			<path fill="#39858A" d="M16.6-28.8c1.2,0,2.2-1,2.2-2.2c0-1.2-1-2.2-2.2-2.2c-1.2,0-2.2,1-2.2,2.2C14.4-29.8,15.4-28.8,16.6-28.8     z"/>
		</g>
		<g>
			<path fill="#39858A" d="M2.2-28.8c1.2,0,2.2-1,2.2-2.2c0-1.2-1-2.2-2.2-2.2C1-33.1,0-32.2,0-31C0-29.8,1-28.8,2.2-28.8z"/>
		</g>
	</g>
</pattern>
<pattern x="332.8" y="6855.3" width="28.8" height="28.8" patternUnits="userSpaceOnUse" id="_x31_0_dpi_30_x25__36" viewBox="1.7 -30.5 28.8 28.8" overflow="visible">
	<g>
		<polygon fill="none" points="1.7,-30.5 30.5,-30.5 30.5,-1.7 1.7,-1.7   "/>
		<g>
			<line fill="none" stroke="#A8EBFF" stroke-miterlimit="10" x1="25.2" y1="-19.1" x2="16.3" y2="-10.9"/>
			<line fill="none" stroke="#5340FF" stroke-miterlimit="10" x1="20.8" y1="-19.4" x2="14.9" y2="-14.6"/>
			<line fill="none" stroke="#5340FF" stroke-miterlimit="10" x1="12.2" y1="-21.5" x2="6.5" y2="-16.1"/>
			<line fill="none" stroke="#A8EBFF" stroke-miterlimit="10" x1="10.7" y1="-14.5" x2="5" y2="-4.8"/>
			<line fill="none" stroke="#A8EBFF" stroke-miterlimit="10" x1="19.6" y1="-5.5" x2="12.1" y2="-3.5"/>
			<path fill="none" stroke="#A8EBFF" stroke-miterlimit="10" d="M28.8-12.7c-0.2,1.4-1.6,1.2-1.8,2.6c-0.2,1.4,1.2,1.6,1,2.9     c-0.2,1.4-1.6,1.2-1.8,2.6c-0.2,1.4,1.2,1.6,1,2.9"/>
			<line fill="none" stroke="#A8EBFF" stroke-miterlimit="10" x1="25" y1="-10.6" x2="25" y2="-9.6"/>
			<line fill="none" stroke="#5340FF" stroke-miterlimit="10" x1="23.2" y1="-11.6" x2="22.1" y2="-9.2"/>
			<line fill="none" stroke="#A8EBFF" stroke-miterlimit="10" x1="29.2" y1="-17.5" x2="30.8" y2="-19.5"/>
			<line fill="none" stroke="#5340FF" stroke-miterlimit="10" x1="24.8" y1="-24.7" x2="24.6" y2="-26.3"/>
			<path fill="none" stroke="#A8EBFF" stroke-miterlimit="10" d="M18.3-23.3c-0.3,0.5-1.5-0.3-1.8,0.2c-0.3,0.5,0.9,1.2,0.6,1.7     c-0.3,0.5-1.5-0.3-1.8,0.2c-0.3,0.5,0.9,1.2,0.6,1.7"/>
			<line fill="none" stroke="#A8EBFF" stroke-miterlimit="10" x1="14" y1="-25.2" x2="7.4" y2="-23.8"/>
			<line fill="none" stroke="#A8EBFF" stroke-miterlimit="10" x1="32.1" y1="-29.2" x2="29.1" y2="-27.5"/>
			<line fill="none" stroke="#5340FF" stroke-miterlimit="10" x1="18.6" y1="-2.5" x2="17.7" y2="-1.9"/>
			<line fill="none" stroke="#A8EBFF" stroke-miterlimit="10" x1="22.8" y1="-3.5" x2="23.1" y2="-0.1"/>
			<path fill="none" stroke="#5340FF" stroke-miterlimit="10" d="M16.8-7.5c-0.3,0.1-0.9-1.2-1.2-1c-0.3,0.1,0.3,1.4-0.1,1.5     c-0.3,0.1-0.9-1.2-1.2-1s0.3,1.4-0.1,1.5"/>
		</g>
		<g>
			<line fill="none" stroke="#A8EBFF" stroke-miterlimit="10" x1="0.4" y1="-17.5" x2="2" y2="-19.5"/>
			<line fill="none" stroke="#A8EBFF" stroke-miterlimit="10" x1="3.3" y1="-29.2" x2="0.3" y2="-27.5"/>
		</g>
		<g>
			<path fill="none" stroke="#A8EBFF" stroke-miterlimit="10" d="M28.8-41.5c-0.2,1.4-1.6,1.2-1.8,2.6c-0.2,1.4,1.2,1.6,1,2.9     c-0.2,1.4-1.6,1.2-1.8,2.6c-0.2,1.4,1.2,1.6,1,2.9"/>
			<line fill="none" stroke="#5340FF" stroke-miterlimit="10" x1="18.6" y1="-31.3" x2="17.7" y2="-30.7"/>
			<line fill="none" stroke="#A8EBFF" stroke-miterlimit="10" x1="22.8" y1="-32.3" x2="23.1" y2="-28.9"/>
		</g>
	</g>
</pattern>
<pattern x="332.8" y="6855.3" width="28.8" height="28.8" patternUnits="userSpaceOnUse" id="_x31_0_dpi_30_x25__5" viewBox="2.2 -31 28.8 28.8" overflow="visible">
	<g>
		<polygon fill="none" points="2.2,-31 31,-31 31,-2.2 2.2,-2.2   "/>
		<g>
			<path fill="#FFFFFF" d="M31,0c1.2,0,2.2-1,2.2-2.2c0-1.2-1-2.2-2.2-2.2c-1.2,0-2.2,1-2.2,2.2C28.8-1,29.8,0,31,0z"/>
			<path fill="#FFFFFF" d="M16.6,0c1.2,0,2.2-1,2.2-2.2c0-1.2-1-2.2-2.2-2.2c-1.2,0-2.2,1-2.2,2.2C14.4-1,15.4,0,16.6,0z"/>
			<path fill="#FFFFFF" d="M31-14.4c1.2,0,2.2-1,2.2-2.2c0-1.2-1-2.2-2.2-2.2c-1.2,0-2.2,1-2.2,2.2C28.8-15.4,29.8-14.4,31-14.4z"/>
			<path fill="#FFFFFF" d="M16.6-14.4c1.2,0,2.2-1,2.2-2.2c0-1.2-1-2.2-2.2-2.2c-1.2,0-2.2,1-2.2,2.2C14.4-15.4,15.4-14.4,16.6-14.4     z"/>
			<path fill="#FFFFFF" d="M9.4-7.2c1.2,0,2.2-1,2.2-2.2c0-1.2-1-2.2-2.2-2.2c-1.2,0-2.2,1-2.2,2.2C7.2-8.2,8.2-7.2,9.4-7.2z"/>
			<path fill="#FFFFFF" d="M23.8-7.2c1.2,0,2.2-1,2.2-2.2c0-1.2-1-2.2-2.2-2.2c-1.2,0-2.2,1-2.2,2.2C21.6-8.2,22.6-7.2,23.8-7.2z"/>
			<path fill="#FFFFFF" d="M9.4-21.6c1.2,0,2.2-1,2.2-2.2c0-1.2-1-2.2-2.2-2.2c-1.2,0-2.2,1-2.2,2.2C7.2-22.6,8.2-21.6,9.4-21.6z"/>
			<path fill="#FFFFFF" d="M23.8-21.6c1.2,0,2.2-1,2.2-2.2c0-1.2-1-2.2-2.2-2.2c-1.2,0-2.2,1-2.2,2.2C21.6-22.6,22.6-21.6,23.8-21.6     z"/>
		</g>
		<g>
			<path fill="#FFFFFF" d="M2.2,0c1.2,0,2.2-1,2.2-2.2c0-1.2-1-2.2-2.2-2.2C1-4.3,0-3.4,0-2.2C0-1,1,0,2.2,0z"/>
			<path fill="#FFFFFF" d="M2.2-14.4c1.2,0,2.2-1,2.2-2.2c0-1.2-1-2.2-2.2-2.2c-1.2,0-2.2,1-2.2,2.2C0-15.4,1-14.4,2.2-14.4z"/>
		</g>
		<g>
			<path fill="#FFFFFF" d="M31-28.8c1.2,0,2.2-1,2.2-2.2c0-1.2-1-2.2-2.2-2.2c-1.2,0-2.2,1-2.2,2.2C28.8-29.8,29.8-28.8,31-28.8z"/>
			<path fill="#FFFFFF" d="M16.6-28.8c1.2,0,2.2-1,2.2-2.2c0-1.2-1-2.2-2.2-2.2c-1.2,0-2.2,1-2.2,2.2C14.4-29.8,15.4-28.8,16.6-28.8     z"/>
		</g>
		<g>
			<path fill="#FFFFFF" d="M2.2-28.8c1.2,0,2.2-1,2.2-2.2c0-1.2-1-2.2-2.2-2.2C1-33.1,0-32.2,0-31C0-29.8,1-28.8,2.2-28.8z"/>
		</g>
	</g>
</pattern>
<g id="leftovers" display="none">
</g>
<g id="Layer_11">
</g>
<g id="layout">
	<g id="New_Symbol_2">
	</g>
	<g id="New_Symbol_36">
	</g>
	<g id="New_Symbol_1">
	</g>
	<g id="New_Symbol_2_1_">
	</g>
	<g id="New_Symbol_5_3_">
	</g>
	<g id="New_Symbol_5">
	</g>
	<g id="New_Symbol_5_1_">
	</g>
	<g id="New_Symbol_2_2_">
	</g>
	<g id="New_Symbol_35">
		<g id="New_Symbol_5_4_">
		</g>
	</g>
	<g id="New_Symbol_13">
	</g>
	<g id="New_Symbol_13_1_">
	</g>
	<g id="New_Symbol_1_1_">
	</g>
	<g id="New_Symbol_5_2_">
	</g>
	<g id="New_Symbol_34">
	</g>
	<g id="New_Symbol_2_3_">
	</g>
	<g id="New_Symbol_43">
	</g>
	<g id="New_Symbol_40">
	</g>
	<g id="New_Symbol_36_1_">
	</g>
</g>
<g id="slices">
	<g id="New_Symbol_57">
		<g id="New_Symbol_57_1_">
		</g>
	</g>
	<g id="New_Symbol_60">
		<g id="New_Symbol_60_1_">
		</g>
	</g>
	<g id="New_Symbol_62">
	</g>
	<g id="New_Symbol_36_2_">
		<g>
			<g opacity="0.54" enable-background="new    ">
				<g>
					<g>
						<g>
							<rect x="62.9" y="9.7" fill="none" width="109.7" height="38"/>
						</g>
					</g>
				</g>
				<g>
					<g>
						<g>
							<path d="M62.9,32.1l3-1.2c0.7,2.8,3.1,5,5.9,5c2.7,0,5.2-1.5,5.2-4.2c0-3-2.4-4.3-6.3-5.5c-4.3-1.4-6.9-3.5-6.9-7.1         c0-3.5,3-6.8,7.9-6.8c4.8,0,7.3,3.2,7.9,5.2l-3,1.3c-0.4-1.4-1.9-3.3-4.9-3.3c-2.5,0-4.6,1.5-4.6,3.7c0,2,1.9,3.2,4.9,4.2         c4.3,1.4,8.4,3.2,8.4,8.3c0,5.2-4.6,7.4-8.6,7.4C68.6,39,64.1,36.8,62.9,32.1z"/>
						</g>
					</g>
				</g>
				<g>
					<g>
						<g>
							<path d="M138.7,29.7c0-5,3.4-9.3,8.6-9.3c5.2,0,8.6,3.7,8.6,9.3c0,0.2,0,0.6,0,0.6H142c0.2,3.7,2.9,5.7,5.6,5.7         c1.9,0,3.9-0.8,4.8-3l2.9,1.2c-1,2.5-3.6,4.8-7.7,4.8C142.3,39,138.7,35,138.7,29.7z M147.2,23.4c-2.4,0-4.4,1.6-5,4.2h10.2         C152.3,26.1,151,23.4,147.2,23.4z"/>
						</g>
					</g>
				</g>
				<g>
					<g>
						<g>
							<path d="M102.2,33.2c0-4,3.6-6.1,7.7-6.1c2.4,0,4.1,0.7,4.7,1.1v-0.5c0-2.7-2.1-4.3-4.6-4.3c-1.8,0-3.6,0.9-4.2,2.6l-3-1.3         c0.6-1.6,2.7-4.3,7.1-4.3c4.3,0,7.8,2.6,7.8,7.5v10.6h-3.2V36h-0.1c-1,1.5-2.8,3-5.8,3C105.2,39,102.2,36.8,102.2,33.2z          M114.7,30.9c0,0-1.4-1.2-4.2-1.2c-3.5,0-4.8,1.9-4.8,3.5c0,1.9,1.9,2.8,3.6,2.8C111.9,36,114.7,33.8,114.7,30.9z"/>
						</g>
					</g>
				</g>
				<g>
					<g>
						<g>
							<path d="M120.2,29.7c0-5.4,3.7-9.3,9-9.3c4.2,0,6.6,2.5,7.7,5l-3,1.3c-0.9-2.1-2.5-3.3-4.9-3.3c-2.8,0-5.5,2.6-5.5,6.3         s2.7,6.3,5.5,6.3c2.4,0,4.2-1.3,5.1-3.3L137,34c-1.1,2.6-3.6,5-7.8,5C123.9,39,120.2,35,120.2,29.7z"/>
						</g>
					</g>
				</g>
				<g>
					<g>
						<g>
							<path d="M157.2,34l2.9-1.2c0.9,2.2,2.7,3.3,4.7,3.3c2,0,3.5-1,3.5-2.5c0-0.9-0.5-1.9-2.4-2.3l-3.5-0.9         c-1.6-0.4-4.7-1.8-4.7-4.9c0-3.2,3.3-5.2,6.9-5.2c3,0,5.7,1.4,6.7,4.1l-2.9,1.2c-0.7-1.6-2.3-2.3-4-2.3         c-1.9,0-3.5,0.8-3.5,2.2c0,1.1,0.9,1.7,2.3,2l3.5,0.8c3.5,0.8,4.8,3,4.8,5.1c0,3.1-2.8,5.5-6.9,5.5         C160.6,39,158.2,36.6,157.2,34z"/>
						</g>
					</g>
				</g>
				<g>
					<g>
						<g>
							<path d="M86.3,36h-0.1l0.1,2.4v7.7H83V20.9h3.2v2.4h0.1c1-1.6,3.2-3,6-3c4.4,0,8.3,4,8.3,9.3S96.6,39,92.2,39         C89.5,39,87.3,37.7,86.3,36z M97.3,29.7c0-4-2.7-6.3-5.6-6.3c-2.9,0-5.6,2.3-5.6,6.3c0,4,2.7,6.3,5.6,6.3         C94.7,36,97.3,33.7,97.3,29.7z"/>
						</g>
					</g>
				</g>
			</g>
			<g>
				<defs>
					<circle id="SVGID_1304_" cx="25.1" cy="25.2" r="24.5"/>
				</defs>
				<clipPath id="SVGID_23_">
					<use xlink:href="#SVGID_1304_" overflow="visible"/>
				</clipPath>
				<g clip-path="url(#SVGID_23_)">
					<circle fill="#37474F" cx="25.1" cy="25.2" r="24.5"/>
					<g>
						<defs>
							<circle id="SVGID_1306_" cx="25.1" cy="25.2" r="24.5"/>
						</defs>
						<clipPath id="SVGID_24_">
							<use xlink:href="#SVGID_1306_" overflow="visible"/>
						</clipPath>
						<circle clip-path="url(#SVGID_24_)" fill="#4089F3" cx="57.3" cy="60.6" r="48.2"/>
					</g>
					<g>
						<circle fill="#BADEFB" cx="29.2" cy="7.2" r="1.1"/>
						<circle fill="#BADEFB" cx="25.7" cy="11.2" r="0.6"/>
						<circle fill="#BADEFB" cx="11.7" cy="28.7" r="0.8"/>
						<circle fill="#BADEFB" cx="14.8" cy="15.5" r="0.6"/>
						<circle fill="#BADEFB" cx="18.2" cy="9.2" r="0.5"/>
						<circle fill="#BADEFB" cx="8.1" cy="30" r="0.5"/>
					</g>
					
						<radialGradient id="SVGID_25_" cx="382.3434" cy="20402.6953" r="97.0853" gradientTransform="matrix(0.5 0 0 -0.5 -183.1139 10209.5059)" gradientUnits="userSpaceOnUse">
						<stop offset="0" style="stop-color:#FFFFFF"/>
						<stop offset="1" style="stop-color:#FFFFFF;stop-opacity:0"/>
					</radialGradient>
					<circle fill="url(#SVGID_25_)" fill-opacity="0.1" cx="25.1" cy="25.2" r="24.4"/>
					<path fill="#FFFFFF" fill-opacity="0.2" d="M25.1,0.9c13.4,0,24.4,10.9,24.4,24.3c0,0,0-0.1,0-0.1c0-13.5-10.9-24.4-24.4-24.4       S0.7,11.6,0.7,25.1c0,0,0,0.1,0,0.1C0.7,11.8,11.7,0.9,25.1,0.9z"/>
					<path fill="#263238" fill-opacity="0.2" d="M25.1,49.5c13.4,0,24.4-10.9,24.4-24.3c0,0,0,0.1,0,0.1c0,13.5-10.9,24.4-24.4,24.4       S0.7,38.8,0.7,25.3c0,0,0-0.1,0-0.1C0.7,38.6,11.7,49.5,25.1,49.5z"/>
					
						<linearGradient id="SVGID_27_" gradientUnits="userSpaceOnUse" x1="402.24" y1="20389.2559" x2="446.2254" y2="20345.2715" gradientTransform="matrix(0.5 0 0 -0.5 -183.1139 10209.5059)">
						<stop offset="0" style="stop-color:#000000;stop-opacity:0.25"/>
						<stop offset="1" style="stop-color:#263238;stop-opacity:0"/>
					</linearGradient>
					<polygon fill="url(#SVGID_27_)" points="34.2,15.5 10.9,23.4 35.6,47.8 50.9,49.9 51,32.4      "/>
					<path fill="#E0E0E0" d="M34.2,15.4c-0.1-0.1-0.4-0.2-0.6-0.1l-22.5,7.2c-0.2,0.1-0.4,0.3-0.4,0.5c0,0.2,0.1,0.4,0.3,0.5L21,29       l5.7,9.8c0.1,0.1,0.2,0.2,0.3,0.3c0.1,0,0.1,0,0.2,0c0.2,0,0.4-0.2,0.5-0.4L34.4,16C34.4,15.8,34.4,15.6,34.2,15.4z"/>
					<path fill="#FFFFFF" d="M34.2,15.4c-0.1-0.1-0.4-0.2-0.6-0.1l-22.5,7.2c-0.2,0.1-0.4,0.3-0.4,0.5c0,0,0,0.1,0,0.1       c0.1-0.2,0.2-0.3,0.4-0.3l22.5-7.2c0.2-0.1,0.4,0,0.6,0.1c0.1,0.1,0.2,0.2,0.2,0.4l0-0.1C34.4,15.8,34.4,15.6,34.2,15.4z"/>
					<g>
						<defs>
							<path id="SVGID_1310_" d="M34.2,15.4c-0.1-0.1-0.4-0.2-0.6-0.1l-22.5,7.2c-0.2,0.1-0.4,0.3-0.4,0.5c0,0.2,0.1,0.4,0.3,0.5         L21,29l5.7,9.8c0.1,0.1,0.2,0.2,0.3,0.3c0.1,0,0.1,0,0.2,0c0.2,0,0.4-0.2,0.5-0.4L34.4,16C34.4,15.8,34.4,15.6,34.2,15.4z"/>
						</defs>
						<clipPath id="SVGID_29_">
							<use xlink:href="#SVGID_1310_" overflow="visible"/>
						</clipPath>
						<polygon clip-path="url(#SVGID_29_)" fill="#F4F4F4" points="17.1,32.8 39,11 57.2,29.2 34.8,51.6       "/>
					</g>
					<path fill="#262626" fill-opacity="5.000000e-02" d="M27,38.9l-5.8-10.1l-10.2-5.6c-0.1,0-0.2-0.1-0.2-0.2c0,0,0,0,0,0       c0,0.2,0.1,0.4,0.3,0.5L21,29l5.7,9.8c0.1,0.1,0.2,0.2,0.3,0.3c0.1,0,0.1,0,0.2,0c0,0,0,0,0,0C27.1,39,27.1,38.9,27,38.9z"/>
				</g>
			</g>
		</g>
	</g>
</g>
<g id="cover">
</g>
<g id="guides_1_" display="none">
</g>
</svg>